<mxfile host="Electron" agent="Mozilla/5.0 (Windows NT 10.0; Win64; x64) AppleWebKit/537.36 (KHTML, like Gecko) draw.io/24.7.17 Chrome/128.0.6613.36 Electron/32.0.1 Safari/537.36" version="24.7.17">
  <diagram name="Page-1" id="JGq21QnB8tR7lMuDK99B">
    <mxGraphModel dx="1434" dy="2056" grid="1" gridSize="10" guides="1" tooltips="1" connect="1" arrows="1" fold="1" page="1" pageScale="1" pageWidth="850" pageHeight="1100" math="0" shadow="0">
      <root>
        <mxCell id="0" />
        <mxCell id="1" parent="0" />
        <mxCell id="FdE1HlHuFpduavi0FDwO-1" value="" style="rounded=0;whiteSpace=wrap;html=1;" vertex="1" parent="1">
          <mxGeometry x="315.5" y="-300" width="520" height="890" as="geometry" />
        </mxCell>
        <mxCell id="PtL3wAgKAEpK9odxt3dh-5" value="" style="shape=image;verticalLabelPosition=bottom;labelBackgroundColor=default;verticalAlign=top;aspect=fixed;imageAspect=0;image=data:image/png,iVBORw0KGgoAAAANSUhEUgAAAOcAAAF4CAYAAACvs+4CAAAAAXNSR0IArs4c6QAAAARnQU1BAACxjwv8YQUAAAAJcEhZcwAADsMAAA7DAcdvqGQAAP+lSURBVHhe7N1ntGbZUR/8fXPoPB0mB+XRBGmEEAIRZUS2TZAQmKQEOHvZ/uBlr+Xs1wsvnME5YQM2RgKMCTYYg7BAQkKgLE2UJqfOuW++b/3qPHX7zFXP9B31Vbdm+qnufU/asar+u2rvs89+RlaD2pA+r7QSHF5ZiZOR+B9heXm1YfrE+EjD/dOnTrajRw+3A08+0Z58/NF2/MihdvjAk+340UNt7tTxtjh/uq0uL7bRSDU2strGR1biuNJGhdGRNjY2ksfROI45jrZ4pqyRKHI1ylvuKhFX/il8Ja49Hx0Za6tjE215dKJFbnFvNNKPR56TbXw8wsR0m5qebVMzW9rM7La2ZfvONrttR9u1e2/buWdv27ZjZxufmWnL8o+Cs5ho7PjYuJKGdAE0BOdFoD6DncOKM4BaWlpsd991V7vrzk+2e+++sz384ANtaf5MW16ca2NtuU0E4KYnRiOMtckIE+NxHGttchwAAfQsMIES+DNECY5AuhJgWU3UKDZuxOmy3iLOgXE1wLgM+gHU0QDqWAALQONBW444UdPILK7jWQsQA+quAObV193Qrr/pBXG8vi1GfqORrkV+WfYgDOlzpyE4LwLBBS4DD1pmRXE9rOCJ48fbe97z2+0Dv/e+9ujDD6ZlZBXDqAYARxKI43kvLObYaIAzwuhKG1kJSxrx0vqxmPGMBe2OY2lBiXZ5eSmPwLmq3CQWsgPmaIQEXQALCEdGA6AsJ3DqHmA4wRkViXgJ5ADtRFjT3Vde3V7wohe3F998c1jYqXg8kXmiITgvnAbqMqTPJ5U1Q0CaFo2+xzXALc7Pt4UI3EGWMV3TAOPqynJbXlpqi2FdhXRP+31pnsafAN5KoGhpabktLi61+fmFdmZuPo/L7ocbvRQgW4qoSysjYeVW22JktRj35+PmfKRZWIhyFqOchUgTZbG28gb28ajTxMR4m5ycaDPT0xnGuLDqFfFVQTxWfCV6gJWo9xCYF05Dy3kRqM9gVpTiAihrNnfmdPvVX/ml9ge//4F28MAT6camVYwRYBjJAC/LGcof5xNhEdO1DYs51pYyLtBMBGgEIBqL8NTOQIH6YJYUeJTbBa6tsScgrkQ8QbyxsJ5jMd4cSevZubsjA7d2NO6PhZVciestMfa8Ltza2155R5vZsi3ic4OjU4kwHnkM6cJoCM6LQBicoASYOjoNC7MwP9d+6X/8Qvvwh/6wHT74ZEDD5M1SurHp1gbYJrmyLNggTI2ttunAylQAcnZ2pm3ZuqXNbplt09NTYd0CPBFnxGATIOMvN5dbmuCMipi8WQ5TuhhWeSms5uLiQljZ+bCCi20hzlnblYzbueDl1nJpjT2nZ7cmOGe2bm/X3XhTu/2OL4pz4Iw42fX4O2jkkD5nGoLzIlCCIVzSBAlVT3SupMu6GmPCX/i5d7WPBDiPHDkYFhEaltJysozAORXWcios5PTUZABysm2bGW87t820mamJBOa2bdvb1m1b25YtM21yaios6HiCc2Jisk3Ozobp7UAVf7peIsIKVzeBGS5tdBBnTp9qJ0+eaMdjDHzixMl25sxcm5vnTq+E5TRGjTFpAHQpQDs1szUniqZmt7Vrb7ipveJVr27TW7aGkdW+ISg3i/g7Q7pIlLOqFN1F9omrAaDBeE7glnJVw/IZe+YYLsBrPHrmzJk2bzwYIBfm5+bC2s2ltTPpA+/AuHXLlrZ15862Zc+eNnnFFa3NBDinI8zMDEKcB5BGd+zI51t272679u5tV+7b166+6qoIV7drrr66XXXVlW3f3j1t547tbTbGmCai1I21NiZWdx1M1jfakKRNw75+02hoOS8CpbEajOsAr1PilWD+clivhfaLv/BzYTn/oB09fDCtpfsBy3Btu4kjR2PNmozZNjvRtkcA5um4zjDjOJVjz9Gw0KORcBW4FR4dAkezww5XF7i6fjnPA+yrJpwiLCxGiE6gO5qMis4gjHnUtht7xpjT6xSj3pkYc15z3Y3tJTffku8/WU75I+PPIV0YDcF5EQiDYYQba1KnU99Q+oW59un77mm/8eu/1u7/9L1t4cypHF9yaVmn8UBlLSqQxliSRZ2JsejMZDyPcSkQAgI3lvW0vEEnoMwKxo6krA4JngFA87VHJBrRUQRA0yDGtTRJEa/LO9xkiwosSpicbmOTMxGio9i6s+3ee1WOO/fsuzoM9JaIO9GlzcyGdCE0BOdFIAzGZe6oCZ1U27COJ44ebr/xa/+7ffTDf9DOnDqRM7Ojcd8zus1iApzrHJ9GJi7H21IbW12I85ytESGAF2ND/9aO/nYZ5CxsAM0kj2PcjP9RjzVwRsxAsI6ggD5qxjaChQXeX1qcAJxAOTW7Ncad2/K4ZfuuAGi4wtfdEAC9qs2atc0JKPUa0oXQEJwXgRKcEZbDRUxwBoCWF+fb/iceb//j59/ZDh/Y36bCYk5OjMb48nSEGF+ecZxLV9O4E+hYSZNKXqWMr5rRDXAGCM6uEuqeOwJ3PM0OoaxkxOiO4Z4CHQC65oAOIAvWg39FABvxIqxEusWVsOYB0InpLWFFZ9r41Gyb2bKzXXP9je2mF7yo7bsyLGiMezOzIV0QDcF5ESjBGX9Yv/EA4anjx9uBJx/PFUF3fvLj+V5zKVxc1vP0qWNtYS7AGQD1kp94AC1XAg3A6VXKVCAq19fGvTVgxrFeo4gv7VICWy0ik7KaA5DGnw6c8nYNiKL14QnMAwualnNiqi1Yfmjt7eRsHGYTqHuvvKbdcOML25VXXdO2bt8Ww1Kzw0O6EBqC8yJQjjcHAz+TPY8+/FD79L13tyceezgAuNAW5063Y4cPtmNHDiVAl+Pe6sC1ZWkBsltuB08jbTJAOWE5X+AJMHN1TgLSc+LsRFoASxH7Pxh7GnfKBxgr5D0u7aAchTtPK8zKJjgt0ZvK1ymjEzNtMkA5Pbujbd2xu11/4wvaNdfe0LbvuCKeWQ4okyFdCOkuh/R5JuCwGoiV835x7sxcO3kirOTpU4EB62uPtmNHj8T1yZy9XQkLaxbHWHCQQ4QYS3bIyjGkJXLGmfUU5VTOoKwV7mwuo7OEQKdgvtV3J0IAH/jj6L2q+ysrS5km8zWzvHY+CMa9ywttLjoS+UI6N53L7TXQjh0B0q1b2+ik2dwhMDeDhuC8CJS2KRQ23c8I1qhu3bqlbZ3dEkA90w4eOBAAPZagzFVA3ikO3NUEYwClAwKQ+MIEUOEDSAfXeQ8wHTtgroof4Mkxa5xb8CBEZvncKxSrkfJZpEsQZprPDvl+NeqwFHVkUY2BrSw6k+9brQ3uVhmtLi5mxzKkC6ehW3sRqM9gFuz4kcNt/xOPtkce/Ez7yB9+sD3y0P1tZXEuVwJNBCDT4oXryr0E7G7JnYEeN9ZXKattkkUMq8uNzXjlzgIlcEY5eZ0oDtAmcLuQfnbXZUQ6dtPKH5M+OgRu7Nnj2Hi4tOMTeRybnMoZ2vGpmch5si2PxP1wb7dsv6Ltu/LadtU117W9+65u23fuaGNTYUGHdEE0BOdFIAwWOssYoAhrdebk8fbQ/Z9u//tXfrnNnT4eVmwx3cuReMa1Ne50ZJ1qFRCwWJo3Ef7OeICv+2QMYIXunWiF+J/PEpwJ0jgkBSDjn9ck3cxtOLojnNvIJCeFOqo6s/hRcPwfi3GkseRExh+b6GZpZ7YGECdno/MYyVcpL3rxy9oNN93URoYTQhdMQ3BeJAqbFUZtKYGzcOZ0WM7H2n333N0+9YmPNavf5mO8eSoA69ni/JkA5Hxg2OdYxoSBj/hj4sdXJwnOsJTuATsr14FSvA6YOUGk3EhfEnbsTnN0OjhGrASpl6zdhJA8EriuTUYFOAE0TGiCc25xuU1MbWlTW7a3yekYZ45P5SL4q66+Lmds9151ZRd/SBdEZ7vKIX0eCRRMCHUu66HDh9pDDz/cnoyx5vTsbBsPd9H3lmfmF9uZsJJzg2VzFg2kGxuA7NbeRojrbgZ3JMemaUm5wxHH1iDGqmMBrG4Nb4g38kgQxlGQp+86fdO5sCzE2DHGk0thsVlnYSmvI/gWNOqhLhbI11I+X6gkYBPYI202xs833HhDu+7668Kl3Za3qxsY0udOQ3BeBKrxHqvkc6wjR460AwFMEygWq588eaodO3asnTp1Kte1muQBSsAbj/FefmUSadco9D7zjNB93DwINXEzmLxJoIUrDWAZgG4tzkq+3pHOtXj5sfVgba0PtS2sn4s6zs3N5Vcq+aVKnCtXWutvpTdLa9H8nr172pTF9f26DulzpiE4LwKlMgdQHIu8u/TtJVDs3/9kOxyAnZ+bz2uvSs6C00oelpCrSe+7Y97L+wMrOQBE/y/qxpXil/vL6vr65Wxwv4CqitzZ8bg/EfWbmprKhfW+G3UUdyI6DB2EzkWHYsbZrK2xcWQyKHlIF0rDMedFIOM+ryly4Xu4nyePH20HApCPPvJw++iHP9TuvftT+YrD95n5PjJcTO8mcwVQHC1cyFcgQYGN7p71tTnOBNJBLxui9G40QewygJIrhPLKzW6s6WsV9zrBc3dZYOmMN+XXTQDl8r4ca3bHXPg+ZUVQhDiOjE/nzO22HbvaFXuvbHv3XZUztjt37+nKyzCkz5WG4Lwo1Lmf1skCJ6AdO3q43f/p+9p7f+d32pOPP5Kg9EWKmVxL+ZYX5jtAxjVwmhgSWNCx0QBuBBM/OUkU9xJuKco1KHYgTSCiyDvPI8T9iuVZgjLAiLrlfKwtxA+OMcb0wfVKADR36JuYzokgQB2fAtDZNjW9pe3Zd2W76YUvjrHnDW0s3HX5D+lzpyE4Lwp1oKmVNfNzZ9qhgwfaA5/5dPvkxz/aLXKfO9UWY4znu8r5MzH2nDuds7VAy1J6pwmMwGmGdnKCleuDExQ6gOZ5vv/s7iYNzlfi2IdwgjNAyL3t0gEkSxnHDAHaBGj3ysWaItuVeL/p0zFWdHrLtrZ1+84Yc17Zrr3+xnbV1dfku1H5D+lzpyE4Lwp5kQIOqwnA/U8+0R556MF0a62nDXVvhw8dyHOAzNcpYT3D1AbwfKANkN04sDt6hQKo3drbHE9GKQW3PI8LkjVJtGYpXcdxsDxhENvBOBbAjUu7MWjn1vqOc+DaBjDbmFcpkxb/5Trb0XBr7Se0O9zZ6258Qdu9Z1/bvvOK/K4zAa3MIX3ONATnRaDuXaMZ2JG0kp++794YZ96V404renx0fWD/E7kTAlc232+GO2vXvdxhbw2cHUBtAmYH+DhNi5djzwBXwQFoC5xmYrMOESwMqmMBNLsMESMkQLmtA6vZH3OmaxtHG3sZe5Zbu2X7jnbN9Te1W29/Zdt1xZ58lrWQZgjOCyLyHNLnmVLpQ9mBwOznzMxMbisyMTHRFmJs+fgTT+TrFbOdJnG4rmZEu+0uu9coQLYQz82QmtGFvg5MAle0AFXBTGwH5m5GtrvugMclHqSN+uU4NuOFuzqIkxZ0kK67ZlUjv8HsMVKP06dPx/j5aDtx4kSzm19k2oUhXTANLedFoYFbi9Xhplpb++Tjj7WHHnygffyjH24PPXB/fnydW5SEhWUZ2R0ura9IWFEWFZhYT5NBJolGTQoFUNJqMlaDskCDw9oZxO71SH7JUseM1Yvpnk4hgdiBkcWsY25R4jiYrbVKiOX0Hacx5+TMlhhvXtWuue76XCW0fdeuyHbo1l4oDS3nRSQARdu2bWv79u1ru3fvTks0NTXZttg1b+vWNjM706Ymp9KCAQ3rVIsDlgbHDEuO1uE67xYasK52fq/FCPlFSSAyv2SJvKofZi87S9q9Rx0PC86K5wbVEfLewGqWNXaUslvs0L0TLctt0cLBQwdzYcWJk75H7V77DOnCaGg5Lwp1dgpYzLp6pXL08KF2/2c+3T72kQ+1I6HYK0vdqxPrapdseZk/ZmR9rRf7oezGrGGIvNdcPyHEJR2Pi27pXmevymaVcLsadBNAuQ8twLFujnHPOdc1Z2rTLY24eRSnA+my2dpV9ycGM7Wd5fSu0+7v11x7fc7W7t13ZZuYms48hvS50xCcF4U6aHTfTC7lT/35NbFHHn4oQbq6vNBOnzzejvvg+sTxGHsGQGMsOrKynLsd5D62gboEYZyfBedZt7b7EiVClNRBsIjLynp2R9ND3NuuRqizfmkdA6DdL4wNLGUCtmZsxwcTQlHw2GScT0QFJtOl9XOANpe++prr2xW79+S9yCzzHtLnTkNwXgTqPpC24/togs5s7T133ZmztcaOFh088dijYUEPxHUA2PtNs7U9YLKSCT4W0qdiXmjEvZypfYrlBDaw6Mac2SnEsX4XxW+ZLMd1PoqIOe6Me65zdRB3No4FzhxrDgDqjav9g2a2bE/LaTGC2dprr7+pvezlt+XKoImJqc4ye+0yBOcFkY52SJ9n6qsoK2V8Nzs7m7O2c3Pz7fDhw7nwPXcSMDETcSx4F29tdjQAlOO9ALn+NC1mANexc0cDEIMyEmyJvj6drQXwJg3iOKRVz06kG58Ccmfpu3uOyJhUVj7+NvZV/5OnTkU42Y01I/N0l4d0wTS0nBeB2KV8z+k8lNpigyefeDzc2gfbxz/6kbCaj7T506dC57tfFjNj62j82M3WBiDDksIUS8mlreV7nTUVj0vbzb9G5Cy1o7ShAa7IJv6wnJ5ybfMZpAJzXD3Vchp7OnZWsGZrWcyRcGtZTVtk2uTL3rX7rr6mXRfjTR9cb/GjRkPLecE0BOdFISwOUJgQ6hDaTh47mu7tb/3f32iPPfJQgnF6crytLHYLEGIgmmNO59xcH2oDY7639Col3FqwS3AmSFOYXVmOCdC4F89dAmO9RklgAuUAnHmWFjiscQ+U8ac7BzT3A5QA6VXK9Oy2Nr1lR04IuZ6YmsltMW+48QXtygDq5PRM5j+kz52G4Lwo1FlOrz26H/1ZbaePH2uf+fR97f3v+912cP8TuabWBI+jMajlexa/m7HNWVvvOYExUGgMagNqgHzKmBNQ4wj/n0VAWmBkDQWTO4Nr49UE6ACQlCIxDmABzEBmW4n7NpUGRu87u1VCYUnDovop+quvuS6tJ3DOhvUcgvPCaAjOi0CAme8FB+ACxgc+85n20IP3t+NHD4cpW24njsW488jhdG+BcykAmZ+OBWAt4+uAaJwJnCxoZzHrnt0PahlfBykdQmQ9GCvWIgTCVpMCa4JTiPvdu8/B+00gBUqAHbi1lu5ZV2un9/gTzybTYm6/Yk+A8qZ25TXXtp07rwigzg4Xvm8CnbOTHdLmUlqg+EPp+ZWHDh1pjz/+RDt96nSbmpoOK7nQTp8+kz/zN+cdp3eb4nttEgPM/MVqkz8ACZGh9DlRE3FyBVCgrr4XldbChVqU0MXpgNqvi/S1FaZ0dkgwweNnBk1M5Q4IURfna9dz3U4IvhGVvlsMsZQfYV9z7TVtz+7deT6kzaEhOC8Cde8ROxeSBRsNF9H2JMKZAOXBg4dybe2Z06cDVLb+sDVmZ2XPzsZGRgmyASAH52iAu44GFxk/6Gy8RGX87a47cK7mKxYg7gDarTiy/QjgOc/7ERxz1VHUrX9thwdxrRJyX/u0d0gXTkNwXgTqwBmsDnxwIC3bu+GGG8IF3NkOHT6cW5TY7gM4TPCUcnfA6lziDAnKpwLzLEWaQdouD2NHbm0ASAgg5f5Bg72F1gD5WaGLk0v/gHhQltIsmNehZNqoT+5vG+WcPHkyXPSH2hNPPJHWPyeThnTBNBxzXkTyvnCAuzZ34ni7776726//719thw480ZYX56KntDVJgCKs56rPxszY2gUhwCXwaNOSjoRvHNc5xmRdgRF8QpQ5ktQJ+BPEOiJ/STpna/M6Ysa1+2udR9zrOgbjTecx/owxaL1K8fpkanZLLkSY3bqjzW7b2a0GGuvGnn5hzC+NWQA/3AnhwmkIzotIa+AMjp86drjdd+/d7f2/99527MjBtuRXxZYXutnZwWytmVvfbeY7zrCYQNgt3wNIW5WYqe1mWuPWwA3iNnv+VNB1BQcg41gTQnVPPBNBHXX3POvedQKniSErhPwEoG01W87UTm3Zlu85c21tgHXvlVflbO1V11w7XFu7CTQE50WkbuF7a4cPHsxfGnv0kQfbk0881k4eP9LmTp/MXxg7c/JYuJV+zKh735mgZEEDdEBocqj7+Lqzmt3Cd+BkPTuAwpxySJYLmpRubgfOXHgQ1xnxKQDqW04TUCynFUp2QOj2D1pa7bYryV+3nphJS7rjir3tuhtuyg2+duza3Wa3bO3ejQ7BeUHUdbZD+ryTMWNSAMbkzyOPPtIOHTqUy/MAwuTL3Fy3xeTCfFjPABW4WXTQfc7VfdLVzd4OPuuKkL9hwuUEpgidOyplAcN40bjx7Ng196yN/GucacbVhE4FPwGhPl2IOMaog/Fot5Aiyol/Odsb+Zmh9Qnc3r17w4IGMAF/SBdMQy5eBOKc9B2Us9eh4KHsp06dbseOH+8mhcKVNdmS9osLC4QBTG5nTbTUJA1g1LrXDJFXTtYAXgT3EqhpDbNf6CZ54n6Bs/sWNMDn3mDiaO1ZgBNQzwK3e71SAHa0+bS4mTmKfHQEQ7pwGoLzIhGA5PgvwhW7d7cbb7yxXXnlvlw0fjDcXNaUonevWAa/6iV+pCsgdqAJ8AQYALGbuT2bNwDn9iaR3obVjqxYrpmN5wOMJmXnAFBxdDvHrRG6eJzoLs5ZMHeAm56eCWtuO5NuwQLSqew/sD8X7wNqjlGHdME0HHNeJMLmnBCi7AGsM6dPtIcfeqD93//za+2RB+8PwM3nWHJk9ewGXxbAW/huCicS5RgTgFyvriyuXdeSvbS2g2MCMcpiQd0gZRO3IJbnjhlE7NLk30gotxxzcpejk8hPxkwO5TYlMzH2HM9fFzMhZLXQ6MRUbo1pbe21193Y9l111XBCaBNoaDkvIgEoq+SXwhy5je5t37697dq1q22L8VpazQAGa7UQrmOu0jEOTbeyW5HjWSn+2Z51MMr0J0+irACtLVBse1I/qzATls9WKD5ZszVKbo8y2CIlf9B3y9a2bVuEuN4S1+L5KYaZmenMg7WMbiateGe9uxp07nVXZlnUIV0YDS3nRSAsTjZH8Jrj1Inj7fHHHskd3+//zL25ifTSwumcsT114li3VYlXKcuLaT1zo68AXE4O5YTQSH7FAoNlPR3TasbNDp9dR5CudF5l8d1sbVyX5fRsLV4c5ZKubV47BtByZrfbTNretRa/5ydjg9nabTt3t6uvvT4s5jU5Y7t1+44uTeQ2pM+dhuC8CMTSCcAFIXZ6v+fuO9v+Jx4P9a1F74fy6Ed1ve/0CqXbUHq0TXp1AoBen0QeHTDN5nbgBKbcqgQwe+DsJMvOdcDM5XqD8/yuM46e6TA6axfgjLzWvud0DpwF0LGJBCX31jYl0aL8pWtblNx2+x1t994r23h9KjYE5wUTDg7pIlDXB0YIIPgpPfu9uraU7vjxE7lz3ZHDRwazrOICXn0lkmjMGVWzuRan24Ggmy2No7Awv7Zo3bWjGVUTOd1ueR1IEy5RhwS02eBB/p117zoRLmvO1A7yq58ANKt8/PjxXLDvF9GUbwKI5bYPr9c8XS/Q1X9IF0ZjfztocD6kzxNxGwVKbycElso7S+O0o0ePtMceeThAcKZNToRVDMDkxl0RJ11WacGK0ifAQ2iBsG6lEIBJ04XOvWXtOvB1ARwjxH+pE4TxzzpdgC0w1uuUGjt28aTpXGIZmEFe+6kFoLZAIaypPYOWE/zd2tuJGJumCVfokD5nGrq1F4mwmSUCqJUAgnHno48+1H7n//1WuLn35bI9s7VtsIQvN/kyW7v2M4Dd8j1g68agFQburmdRDkx0sACwrtwsX4g/xpoZPBvc647+cnE7VzYXzgcAc0HBwK2tTaWXVkfa9JbtbWbLjnRr1y/f23fV1flr3V1NhvS50tCtvQhE8YW0ZKHkFhZ4D+kIE7MzZkRn495EjvPotPeLrJmfaOhe+pupXQwrd/ZTre7ovefgyOoNVv8I3QqebjFC1kFlgDjqwOKm1Y06mCGe8kO5Aah6P5phfCIXQIjDaqp/jZ/Z81w2yIJGnhYw5Fcv8WxIm0NDy3kRqMBBmVcDSKdPncy9ax944NPtvnvuaqeOH23zZ062uQhnTh3PTaVZz/wJhlVucAA7oNW5smZsHYHMuLRzYXNCyHmWWM6oZ50dLTdzNcHvWszufrndrrvzwbOM24WsQVhQM7bW17Kg45PdTzH48dwrr74utyfxZcrWnbu69BmG9LnSEJwXmRbn5tp9997bPn3f3fmzf16fWGhgwfuRw2d/BhAo6+f/JoAu9DzHoAEYwKwvU54CzDh2sOqLdODexhlXtgsx1vTEeUYJMEsbeX3Wr4zFuLJ7nRLnLGmAcnR8Ks7DbY3x5uTM1nbVtde3m2+5LX8CcCxc3DXgD8F5QYSLQ7oIBAiW3VmAMDnpt0gCAAGZmempdjoA6rdGjh8/lnGBo3M3aymfsV8AKSypT8kW7DEULi63NxenO1YQJ8LZe9xN98v1NfHTLSBwNEGVa2Ej5LnnEb9b6F5ra83MdjPMJrCOnzgW4XjO3J4KL0D+6qve4SZk2iFdOA3BeRGI1VplRNLFXGk7tm9r1117Vbtq3xVtcf5U937z9InQ63BjI06uTQ3rkxM3XGL3m59m8NP0EcZ8lG2CyGdkOXEaoRsDWiyf48CJGFP6imVqIvLqxoSA2S1K52YHEANU8rZU0PJBH3x34UyAvlsIIfiEbdl3pavSB7Ajj9xGJdzr1Tj68aKHHn24PXlwfzs9byeEocXcDBqC8yIRd5LlMi2zc8fWdsN1V7frr7kygTAXwAQQ7wlz6w+rDKAuQNVN43RgnAhQTo+3NjVuBz5hdDD+DCBGWmE8AAmUuXA+jtzTgGJOJln6xyqywAm4CHZd8CNKywt+OKkDpo+9l+J6YcEvbJ9Ja203wO6LGYBeTs91IjwAZdrt/aGHH2qPPP5oOxpWdQngh3TBNATnRSDwMom5sGhyJwA0aZ2rn2PYkiZ1eYklMnM6GcdwD/2K1+hEvkN8SrAA3dgvxoA128qVzPeaAeS1bzkHwXRCurVAGRXI/YSig6gZ13zXyZ2NCobdzRC9QlptqrG6EnlEvdU9w/JqgNdCCHlI041RvRedm1top06eaadPBajnFzV7SBdIwwmhi0ChxwMAdL3hySMH26MP3d/uu+uT+ROABw48mdYsf+ErrCF7yW3MCaFwZydGwqVlOSM42iJzPNfwDSaBEqCAEiUIKApMkMZ9K4YAyqOKW2I3M9stYAjgq13moUNR06iJziDqZfLHDggLAdDVOA9/OVznmZyt3bJtV9vri5TBO85t23dEykE9hvQ50xCcF4HSpQ2EwtPywnK78xMfaR/+4PvbZ+65qx01OxvAtBQdaPJ9YoIo4BFHwJyMseZ4PAfOsQCryVOL3+l/gbOsZRGhunLPVpcmaYi64nSvdzyXx0QAlNXuAZz1zOtulrYDaMSZ6H4nJbqSthKAnp7d3q6+7ob20ptvbbv3XdkmwyPI96jh7g7pwkj3OKSLQANMBEiW24kTp3Jj6SNHjuaqIVam+4CZ9RIxQri7wLMax5VwL4F7KaxWhnCDaweDfnAvgxncwSxujnP1DgMC0M6t9Yqlc2/N5J6Zm4+wmGEug/W7PlmL87Ww0M6cno86G7OGaxv1UEl1n56ablMTUzEO7hYlDOnCaQjOi0Slrwm2XMVj0DYyGHvOhHKHi8gq5TjSqxOi4X52wFxeA+ZgHNn7yfkEYxwTjHnsxpkVjDXXHKQok6ubq3vCSnevQMbD0vpOU3mjYekHITqFHGsOgjr7qXtjygRn3ATU40ePtyefeDK8gCNtMQCcq5yGdME05OJFIsoNHp3edrsb+FWxvXt2tV07t7fZGcvlRtpk+L5mYL0a8apE3G47kprA6V5ldNZPALzuWRcv0mS6SBnXZljFM+urg2DVANPC+8mJbjuTqenJNjM73aajk5jyUfW0j7Mnw0W1iF0ccccijId15HZ3r3ECyjmb+8QTj7Q7P/Wxdv+n78ltPtuyCaFBZzCkz5mGY86LQGFkwsKtJvhGAiwf/oP355jz2MEn297dO9vcmVP5k/OnTp9OlU7XE9ACeKOrtitZNsLL8aYJobHRuB/j0O4nGwLIYWlz3FmztdxiljoyA0pjwLxeRzX+HBmZauMTvsNksfNWpHISQX4suTFnHFlYvzbmpwCtFOLZnjI7G8+ujbHni1/60nbjC1/Stu3aHemHff+F0BCcF4FqQmhxfq7NTo60w/sfb48++Jl24PGH24mjh9tDD3ymHTl8qJ0+cyYnb4ikrKC3lAA5HkCcNBEUoEyrNeK1DEx4pWIGdgBQeEpQBcCiYK9QLPlbm+gZUD9eayZ8fEXSvZbJJxkB4Flxs8hROPd3pDua+PGzfxPTMwnSma1b2zXXXh8Avb7t2HNVZNmBfUifOw3BeRGom3QJCxiWb2w1wOfF/pkT7cyJI/lTDLYrObD/ybScJmcSnJmyA2dazQFAzdrma5Y0SkDKsnXgW7OEgz8Fzu7Z2pOks5fSWyI4FcALcA7yWQuRN8ub40ivWwKkI2MRfyJc33yNsqNt37krw+yWbeESBygntrSVsS35qqXqpE11PqSN0RCcF4FWVnzqtZAW8GCMz+ZPHW2jK3HdltpCuLSHDh5ox48daXY3qInV1YEe51cpXp8EKNO9DYtKx1m486k60eoYzksBujFbjwBjXMrfWYclx7wRgXvcubi+TpHGx9fbd+zMI+9gPix/m9jZ9l3/0jY1uzOteanYEJzPjobgvCjk9zYX2typY+0PP/De9sj997a5k0fbVLio0+GrjoXO+qqEIPIVRxyB0xEo80PrATjzOv7lOPJ8BJwbEK8c7SnUIdBo89xpRBEPOM3mLsd1jk3DpdapLJglDoTuuupF7fXf+J1tdvvecIk715aaAWcdh3R+GoLz807YG+BcOdNOHT/U3vObv97uvfNj7cThAzHSW2xT1sYGMC1QoOhLZlYpcaa0Zgd0ALN35GayYOeRXOaxAcvpl+TN53aUcItDd60meRbXnji3lJAV5Qa7txI9yaJlgfHQPrdX3fiK9o3f/pa2ffe1+aqmTyw5cA4Ben7aQPc7pAsnAPF9ZoBrMHacmhhJq2mSZyzcW9uTrC7Px3lYRzO06craYU/ogHk2DGBCv58poHPdXx8G+eXsb1zX1y4W+TB8ucg+eg+veSYnRqMdUaeo41gEq5amBovxp6NNMxH8LL7PzHIBxLDv/5xpCM6LRdw5M7BLPtEyydPaZLiDk4GCqbAuU4GEyUBCZ0XDmoZVyvM4TuS5Z10wjuPWnjeIl/GfOXSvYrjX3flaiOvxkfFBuVGPqN+0n3uI8+6lymo87z4GnwhAW8rATrKnFkPk+9V14ByCdeM0BOfFIAqZ4IzzleUMo3Gda3Li2J13Lx4IJM/DgoXjGkeubRdc51raOPp/vpCHgQv5TAGQC6DO021e+xd5hL/ahfAAuKURRuvIzY72CLkBdlh24BTvXKS8IW2MhuC8WBTjsgkznGGNwp4lwPxbWVoOj3Yxl70tL4Y7GzoNxOEt9o4RE7AHIbFu4ihOnjFUgvMGnUFnKQddQJYZOAtXezWXG1pHu7y43BbNKMfRs9GME+lN08ZxNE4n0spGHvGowP90pI5DenoagvOiULCZwno/WIo/AJzAWk2MjWcA24JvQjgBA8pnQ72L3Czq8vLKI+qZgIsRaNYx/gNoBODTmUxOTOUi99npmdytr+qcnYi4S5Eo4uYi/l4dq8M4H2CHdJaG4LwYxEBQcEqc7iM3MmAWgZqaiMlIlHdgyQZP4t7gmKLqwlqserQW4u55w/o0gBh55pRthCzP7Thybwfj1vz4O7qN5vccMkSDlllQbmxY3rSWAB7eQBRTY175FDBRAXNoNc9PQ3Ceh0qx+qF///zUKXkbsUftSFsMzV0NUNLzlZHFNjoVY7bxpbheiLAYz5ZCuRfb0upSvlNcChjOBQgsJReWQrl9R7k6Nhl5dXO6+QNDAQ7vHbu9Y+18YOHDYuQlvwBRFKm2+RspQJe7501GXhNxN8LyRBtvUxEt8gsQr4SPujoex6jn6pj1tOKFlVyNshdXIiy1sSjHu1cLLFbDbC5G6oWItxxtXQzwFn/61rImifrXda9Cf5bXM9eXIw3BeR4qJSmq61KkjVEHzqVwUe2usxLKvzwSSj2yEPgAzoAdcI4uxDMgDWVl5cLyCCsJyNEE5nIcV8Nl9ENCQLAC9AFM+9Gm0VPUWIDBAHAsQBBHIXdYGOdaB9q4nOMTCczVUR9ZT8VYd6qNj0zHeTzPtFHPAOdy5LGS+XcgHglwjgZix6KTGffKB/hXgHM1O4/5QTt1An0eFUDPNYOL6l4/TdG54l8ONATnOaivIKVU/YC61xQbZR/XbqyNj0+38YnpsGBhicKFHA2Ft29QICbyDQBEsPJmMjdsngkMDX5mb9qP1G6JdLlpSQDSUjtfkmyJikyHlQxABGAsXp+Y2pphMtJMxnFsYjbuT+fuBeNxLp+RSLM0SLMS+a3G9WqkXY58VwKsK3G+ElZ1WRhcW8g+EvVhQS16n7A/bVhsb2FZ7u6Xxyaj87H6N9rq29QBf/rg6vOwz9NygR37q4pcr1/IcLnQEJznIEpRrpVjndf10/X+T08ULxR4crZt27qrzcxuD8D5ododEeJ6Jq4DSNPT29uWeD4V16urE21+YTXD4nJYogDTcgNK4PapFjAHiCKe5xlndbLNL420U2eWI6y0+UUrjvye5nhbWBqLMBr3RttC3BcW8zzuRZr5sIhz4SbPxXFe2QHauUg3F+UsxL2FOC4G8EYCpLPbr2gz23e16a3bM2zdEefbdrSJaNNYdCrjk74JnVkD59MRHhY46xpvkWOFy5WGy/fOQcUSSlPKUUrUf7ZhMm8SYTTU+4Pv/Y328Q+9tx167L42PTrXts+aaLHdZIw3A3wxCG1n5lfaoaOnA3AB6rBK+bVIuKU+IzN85XNagzvONV3u9pK1p6y9Z+0if/z40WjESlgvriiKunNNw+/VSczObms7d+0eWO3IMIDdli1kjxqOnIrLM2EFozPKdykx0lyJTmEuSl1aartmZ9reXdva6Mhc5Bd1DD4sh2WbD8/g5OJ4G5/d01508yvb133Tt7ep6ISKT3XEv6fjXZ+3zqtTrF0GLzcagvMchCVASUn6inQupTof+yKHVPDBnEy7/84PBTh/tz1470fbwon9bXZqpM1MBQBN4ITF4nIeP7nQzoRlm90WFimAtAxU6e6ZCWVNlMkFDFBZDB8Z25D6+PEj7a67PtkeffjhvLazgZ31pNXHLCzaG3eqXXXVte2lL725bduxM/KJriEGi6thGe15C5yLI6ejQ4gEMY4cj85hNCzu3PH5Nnf0aBtdXGhX7dme4GztdLi9MY6OMuYj/ej0Fe3K61/abr7t1e22O14TXu90xOnoXLwrywh4Al4KBcT1zy83GoLzHIQl1Wsb71RPLqwH7PnZF/FFGUQ7tf/xdufHPtDu/sQH2qHHPxM2cL5tnZkKjC2GpTTrOt1OhFvqc6urr39h27l7X7imkTzKtLVI7ty+FCO9zoRG7mEhx8OlXVpo+598vH3gA+9r9957T1jUxbZtW7jJW2KMGWlt0HX69FwAcKq94AUvaq/5ki9t+/ZdGRmEWzvPSobVmwxwjoY1DNDlDG9Yz6mwriPRUZw4eKIdeOShdjDC1Xt3BDjPRKVOtaUAzVLksRzj2l37XtBedttr2y23f1HbfsXeyDs6nR5/1vMN8PC5bxndE6/AihwvR3Befi3eABUAu190PpPH+oVnvxfiXgX3nzlIu9IW5ltbmjNzOtYm7Ntjt7rpbnY01DFCKOPgCECTMX7zG5j2hN1ifLdlZ1jSK+J8d9uyY3c37tu6M8Z8EWLsKkwaywaoZ4xrt3Zxd+25uu244qq2befeTCPe1CC+tDOR/8z2OCojjuJkUMY25UR5Ga6IsfDWlq9hTNgAD4sdwMndFsbGc7Oy6ZkYd3Jz7eY34F2F9df4sxSusp84BFIEhNUxFl2OwERDy/k0dOrUqfapT30qwWgTLApCkaoX18M7Px/7uLWjYQ3HR2faysKZdvLIo+3+ez7SDj/xmTYzNt8mRpfya490TdtUTvrMLY61wyfm2+jktvwVLz+555MsW4XYJyhLjD/dVibedEbasJQnYqz5wAP3t4MH9nvYZmam2+TUVNR1NV1aYDDDumfPvvbCF724bQ8w6iyWlrnLAbbIaHl0vq1EvdhSVtpyvAkTSsejIzp2qM2MLLYbr90T7QnXd/lEvttc9mpmIsahUwH+bddEh3Bl273v6nDHVfSpFrPO8c05q+nHmm644Ya2d+/e9FSKp3iMxOnncbnQEJznoEOHDrWPfOQj7Vd+5Vfa448/ngoDoFhV7NK7lwt2XloN1zCAZ4uSuZP724lDD7ddW1p75S03tSu2z8SYr/vJvzY6G5Zpup0MC/uRT97XHjtwvC0wKGOTAaDVAGnY1VBUewYhy/jWfrsEUOM4P+dHiBayAzHejAp2VimPINfCfZ1qM/nz8V5ZAKYJpuh8vLP0vnViKeP7fZWxSDAzMtna3ErbNrHSXvGyF7SX3Lgv3N35SHkqx5x2f1+INj7yxKn24GMn2rFTc+HW7klw4k+F4l2d4x+reeWVV7av+qqvaq973evaTTfdlM9R38W9HOmyBqemV/MpgP1fT5w40X7v936v/Y//8T/aJz/5yXbs2LF8Vr13xS/LuTHyon8ywdkWI7+l4+3Gq3e0L3v1y9vuQOkSn9d07thMuIoz7fjplfa+D368PfDIgXZmMRTUDutR1HJYwG45XSiv/xEAMv7E5Wp+yUKtndf6W3XM3RAGY9QuZoR41u26IBMzuVYbrbSV0cW2asWSuNFGi9un4vnowkrbs3W8vfaVN7eX3hTgnLAZ9olcCLEa4FyJet/16QPt43c+2h558mAbD/fWO1CkHn3eFcmfN2Lf3jvuuKO94Q1vaK9//evbjTfeuPa8n9YROc92xfO+XITnE5DH/nbQ4PyyohKmgAj6yJEj7UMf+lD71V/91fabv/mb6dK6z/Lkz773AqXaSOh+2aubYV1cmoveMFzZ8ZW2e+dsu/bqcAMnQ5nCalpfm69NTBEtrbRHHj/QTpwKFzMsk20oQwtjLGcjrvHwTLtXK1zc3Hlv3AIHkyqhqK7zWeQbwTE35WLh6nxwnRtYC9KHa+pXw8Ynw1KNd+6mVzVTE5NtMiys5e3bpsfbdXt3tT1R9/GwsCPtTAI/X+tMzLRDR061AwdPtOMnw6IGT1lO/Cse1nkFvFeOIcTBgwfbyZMn08W9+uqrY/w6vQa0AiXqy8yx4sivgPx8oedPN7MBIsxSinT1giiHaz8Ee9ddd7V3vetd7f/9v/+3JuhnCtKeL1D6fEfJQAUAc1neIERtunPHCK7rFUZeZ5wuTT/9+pDGL1KIg9Iy5vHpwrr0eZedE9KWDqoY7fQvz7tcTVmdjSuwxRFYb/HiKavd/bzEuXlSoYYL27dvT2C+//3vbz/3cz+X/De0KMAhR9c6RkfpAdl9siTDivt8ocsKnCU8EyMEjAiVhbzzzjvbf/7P/zkVhGu7XpHOFcrdfeYQ1irKLUDQ3jyPfx0o1KPOe/cKNHXM0Ps7+Ear8krwejLQz4KSoNC8P3jWHbt0HaKAoAeyQSrKUYDLEM/UrQNkH6BZch67+BvruPAPbwRAA7J77723/cRP/ET79V//9fbYY4+lfJCjNMBck0ZLA+9EPvXK6/lElxU4USkCYSI99Ac+8IH2H/7Df2gf/OAHE7jGQBslSvJMgduXqht606lwp2yhv0F1XjDqQsU8e95RZ+Xq6YA+Sx+7XLoHTw1Pzb273dWnA1x1FAmwjMRqijSwnpmki9/lUMcqUbwAnFjGs+t4ca6gk/SKBc9ZUJbxE5/4RPuFX/iF9u53v7s98sgja/HK2ykQOgKm4DmgPp/osgJnCbh67cOHD7c/+IM/aL/0S7+UFpNrVbReiZ4uyPOZQheP+nqPWaGAkrYpHnaqjfJsAAZXdU7hKf7grHvufsZzPshjLa91YXD/7L+gzLcLUUt3uqh5raynhqq3SLLLeI4ZuvZkiBvdWPTcPOkHYCSPui6gGWL8xm/8Rvut3/qt9sADDyQQBfIT+sDEY1Sgfb4Qrl82RIgEuxQ9rFnYD3/4w+1//+//nWMcvbdJiFKAjVIpzdMFVIrbKXgXOkicVfb8G0p91kLV+eCf83weT4XB/TwOrrtwFkyfFQbgjkKlyn9dXh0BKDVXXzGqAzlb5wja0mVx9hjxOtsbwGoxhs+4kfuAB08XSh5cVUevVYDtiiuuyPOanGNBTRiVXIDXuTxQgRPIn0+Ei5cNEZ5g8ufjH/94+8Vf/MWclTVLSyEoRl9xzhdQxX+6kBtmBZs7Bac8AyVPoHRKXNeRIq/PAtD9wfngubzyKH3cL2B2wO3yW0vfD12qLs0g30zjXoQEYtT3rGV03tW5wGl1UDcijetBXN+arsWN5z57c8xZ4rj/TAG/DS+WBuNGAXFx3ScnHajXWjpQAEXSsrglg+crddy4TEhvS+B33313+0//6T+197znPenKWn9qOj9X0AQB8HpFOlfYOIlbin42JGCArkDSA0z+WzvvAOl5F2cA0BSf9IPn/oqTV2f/rd3P/AbA7KXNjsLjuNNZwQ6M/QCYdcyPv/v36n4cY9CQ9zLD81CBk5VEU1NTee/RRx/N623btuX1fffd1/79v//3OUnUXxRCngBaoC7L+nyhrlWXCQGmlT8EbfKnluYVlZAJ/FxgPFcoK/qMIXNFEBBlrJYF7YDT3Y/88nxA4gFwxq94feruFRgrj6ecD0KX7+BY146ex3mBsqxmPu8FljHdVu11PQhdWsd1wM345+DDulDuqc4Q7+sey+l6KSxqxQFQK7b+7//9v+3+++/P54Jn4pDF8406bXweUikA0jNzXX//938/36MZy7CUhFvjFMJ1jSrd+Whj8ahvuG1tvo3ZMyiuRlbGY+AUymTFTz4fKPjIUmBxLo62/Ygnq1Px1FYkooeVsL/Q6HzGizuZd72nzH9xXsEeQGuh7uWxe/0SyMx70kbj47zrLCJ6G496TQirMYK0rDDC6miky7ziEq/Ei0fjUQ1bloyyYsuLYTnD3Yy6Zr4bpOI7kCGz6UV9uZjFNUdgkuihhx7K+wVKsnBeeRS5D+R9WW1UvpeannfgxPhifgkGMM3KmlwgWF9EsJiA+XSCqnyeKWyUEpwjwGnPnbhR4Iw8UrUSHAIQWBXkw2vgnAwIRh0TECvd/dEAboA0FyskAKIuA6BlnGcICcyKO0jbBZSF5OvTBGfUbSIU3SZeFh10aUWJ+HEMxz/iRRgAdCQtWIFz0AE8CwIqPAWw4i3wFQBN1vF0eD4AapJo//79a2mKXMurQl33n1X+X+j0vABnn+k1Dqle1IICL7b/+3//7ynQS0OUAdw6JTHe68aT56IOdF2Kzprl+QBQCY688/khddKBDDCY5AiYaW3zTlDFWYs7eOJik6nkumPHjrVZ3J/92Z9tv/3bv722kgg5VodbSyyBW0dMH+QhPFfoeQHO6jkJBBUwTfbUyh8urTHnkJ57VJ0vMmnk2riTXL0LNUnUJwAFyHKPpS3gmkwqN/kLnZ43bi1AYjwBEIRpd4A0K+vIleUaDem5R2QLaNxa8t26dWtaQGNQa6EB9OGHH07QkX1Zx+q0kXOhrOpzgZ4X4CyB1PjEGPMP//APc3bvfe97X7q27j9XeswhfTYBVXW8ZE2ejj7r+z//5/+ki1uvYDwTT6hrQR7C0HJeRMJwgtAjcl0/+tGPpsDqPSZXqAQ2pOceka/xIzmSIS/IvZ07d6bMa5IIQGslkeeOfZm7Rw+A/LlAzwtwYjamW5IHmD//8z+f78NY0F27duUzveXQcj53qTpgY0nDF8ADVu9EgdUk0X/7b/9tbakfIncTSNIKzzV6XmgrQXFdLZY2xvyd3/mdtJgEZ81srUAZgvO5SWXtyBFAgRJATQR5ZgzqaKEC+dfnZv2VRKjkX9df6PS80FYWU89p9s5Y08QBwSACcV5uzpCeewR4JU8yrFckPjFDll2WbD/96U/n+2ye02c+85mMV2PVsp7PFSv6nANn30WplT8A+T//5//MvX9YTMIUxCMcwkQE7LovqKIam/Tz31yS7+D0KdTdVF8vFF3l1iP2CYoEWa9ewozmzyaS3LOEp2Qbd6LctVt5OeBN/zxIdWxVAiDn4u2FUpVFdnWNzOA6VyaeACFZm8U1g2sM+uCDD+az4plj6UCf5CNt5Y3655eCnjPgxKhiVjGygFkrfwCzPqTuK3AJwlEgnH5+qC+8ftpNoyiqX94aDcrzr4iS5W7udS+fB1Xyz0P1OjrbdlXN4gb1c5X1H5Rd/PPsLGiCv72f/ttMKgCerV+nA4i88Qz1VxL92q/9WgL0wIED2XFUekH60gehrlGdfz7a8WzoCxqcmFMBcx0xFuOMMY0xTAIQgrWys7OzKTCC6q/PNCZxXxqTB75CKar8CVW6mnDYdBooVSkD0paxUGyflSWV7sd9Cj82PpYbeqlXbtgFIGGhhEtBXX2j4wjLrk6CeuJX8S331Q1+XipSH/LWUfu4wVpqcxA68j7g1N35F/JKoi9ocFYPd66VP95vGWMSQFlMAKMgGIvh0joWIF/84he3m2++OSeJkOfyq/jcZGUVeDaLSoG70Ck06uq3nPvDdrv0dV9hLEUdUmkWz+7i5z6AFiAuBUV1m99q0YlkPaNe6rmwgGcsk3ae3QLmUhCeIkBTRyuJfuqnfipfrVmo4F7FwUvxqiP3THBfGy4Vn4u+oMGJABKjMAzjTJPb8+e//Jf/kkfAYzE9r9k8zBekxXzvPl/wghe0b/mWb2lf93VflxMI9ZxgzOoi5VSHsJkE/H6WgSLbJlP+uY1HBOcs5wTgRl1sVRmV8D/r4h/a7Dp9LqQOfqdFlUqBuw2ueTY6uehIdCpxvFSEZ+RrRpcFpR8+2LYnUS1UEIeelHV0XZQ8j6CtZRQuFX1Bg7N6Mj0YhvXHmO9973sTdO4XqMrqURwBgwXnL3zhC9uXfMmXtC/+4i/Oc/cIp5SeEFGVudmUMBsIXrB9ZIZwA7mCa88ibleneJbuI7e3u89iVZsuFaljdzII8aeru/MBXcJ+pOSPR84dddo8LZNEdlTwuZn76t2Xd8mgeLzW1ktEX9DgxKByOY0X16/84cYWM4uRgFyTQphucsAW/9ddd93auOgrv/Ir01rKWxxHwJZPX1ibRVmnSXVat8NC3E/XKZTZjwFludqR7enS5XMXHRJS7y+V7qszxc/6Bs9Y0eJ9V9duPJp1vkSEh6ym+ulw1c1CFABlQXXsLKivWehV6Vhf5tUmunIp6QsanBQBk44ePdo+9rGP5eD+6Vb+1DnApuJEQNL6HY59+/YluH/3d3+3fdmXfVnbvXt3xgVYwZgUqD9vipUK3Y3TagyJ1BvuzHSykNPTUzkJVD/xB4jiGuuxsH7/xCTSpSB1NUmlTqXQqt/xbGBxTFhljEtD6qijVSfgcrTdCdnytHzX63MzK4nsvlh60x8SfaHQFzQ4KQCG+uzLvrJcWbOy61f+IHGLsXpM4w6gu+aaa9qXf/mXtz179mQcIHz5y1++BlAW2CIGgJEfQdUEwWZR9s45YdKNcfXsUwHCqaifnwJUJ98qditdoqOJNKn0cZ4ubS9cSuKCT05Mtpno1Ci8DnLXrivyHK/TBc/O49KtXdWhl17USiKrhZB6em5xgo2rzfLbF5fM1b86TNd4XR38paIv6N9KYfW4Ij/zMz+Ts7KAibnFPEdUoCQIIPMMownnVa96VbqxroGWtSxlsh/qk08+mWmBhjAKBJvZg0Z/HPnFWCiUdjwAtxLu4MToQpueXI02HW9HDh9tR4+daEdOHGsHjx5pBw6davc/cKQdOxEu90hY1Imoz0i4WtHc3GWg2yvEaG9QwoWRXRhQjoGjrn56Ic25EvAizljusbbYxkaWow3L7fSJo+3E0UNR35PtwJET7cDRU+2Bxw+3A8fOtMW1H/e9+J0JualzeV1k6lyoDlxgNXXM7ltAb/dF8YsqXunYpaBL+itjii6G9HstAMM4Gz3/8i//cn72BajlplQ8JJ08KpRL4z6r+da3vjV/GMe6W70kEF5//fXtla98ZY4/rMO03QUBGZ96XoLcLEpHL5o5NhIdSzRzZWGpzU4utT27Ygxsb55wdwEj9/MK8C0sj7X9Bxba3PxUG5kYbWOT0Z64b5cBz+MigpzPKtOFEAUAULmNkonMVTjBGWXHveUA53hbiHqPtL07Z9tEnI8tzzW/Dgq2K2PT7fCppXZ8zhhOR3J+61kyI288L7nxenSizktHCiilrnWPnEoX+nH7+SHHOnefdTXLf/vtt+cM/jd+4zemvohT9ar8hKKqkzwqTl1vNl0Sy1kNqnONrEY7AqIVHrWvLOEVMNczq39eeYlPuBj/vd/7vfl+y2wdK0konnsmT/cs8aoFDH2mbxZxT1lNNc02BhzmA5BHTsy1/cfmw9rM53H/sbl28NhiO3IyxqV26DOBlIAtGEbb4+LsjnubQ5Xb2RzjDF/jv7p2l2GFQrdPnpmPOp5uTx450544ttCejPruP77YDp1YaGcWdB741/HwfCRO8RqYnJO/DpbXQx71bD0I6yj0yxJHHn2SVpy+bMne0MjEUE0uXnXVVQP3vKtLP98qS5B/vy5CXW8mXRLLWUDUIAKoXg4Tzcra8NnXBRaz60XPRyVEYzZ5YTjr+G3f9m3t7W9/e04EAaWxKqEog2uL+abW7S/kXglDXTaT2fKt/Prsdl4B4ct6RaqA+mnr3qWg9fWu+lZwn0zW13H9dQGR3LSbrN2rFVxAg3ScpQfkiyp/IEbKdC2fupaXIE3FUx5doAdVf4A0m/+Od7yjffVXf3XOTyDPxZNnlSduUemdOOvbthl0ydxaxQqYp2GEWq9L/uN//I8JTMLpM+PpqJqASfLDNEy26MC6Sh/iEkoJhLC4sdwZvacX1FxoQqk8hM8XlSAdBXVyrLqvf15U7UT9+xeT+nyp+vTrW8dnelZHwTACWKpTIhtp6zUIedANcRB98Ny15zpcsi2gIHmifh0E1/17NbFoOCNfq8e+8zu/s33N13xN/oBvxe2TdNUBVL7C54Mu2YRQNQjjndeeP+985ztzuhvTCGojDa88MI3V9F7zG77hG9prXvOanKnT87KkekfjCmNQLsxLX/rStnfv3kzH7ZVHhXMJ5kLoXPmVstQzx34dni5caurXBe/rXr8tVc/+8Vz38B64CpwCoAk12+qZI50wKSh+WVDXgOqaayp9v07SedbvAIDXUV11Ns6RV3Q6c0DVUZtB97wvF9S/di7fKnMz6ZKAsxpcoDLGBEx7/nAz9ZqePdsGy4sQvCYx4YNpvu/TQxKcQODKJrRSAC6uVSME41n13ptJ1dY+9cuo8xJ6hT6d697FJuWXbKpNVad+e+pe/1jnyLn4ZFDeUekFqrjkCYxk96IXvWitk73hhhvatdde26688srsbMkYUAFYPmQvrwKxPBBgChXHUVnaoi4AWrO4Om4udtVVEA/VsWj99WbQJXFri3EazaVgKX2P6bMvQK0xSJ8Z5yNMRnq77/u+70sLec899yToCE4+BbpivnveebKgvlzwhQsBiV/5bQaV8JHyi+XrjxWvrs9FfUW5FKT8CkVVHzwrvlV7+/H650XSAYv45O7dM7ACmXfcBUyWzDBEHIAlp0ormNSzwKR+qkE6cZwrV73Kila5/Xojcq+x7a233tq+67u+q/2RP/JH1ha8iFt6g9a3dbPpklhOjdFQIPFhrK8GgEPPB1wsZzFSvPNRxeMaf8VXfEX72q/92hSw95jFfK4t5suXMOucMuiNrSAy7lSHEuhmUeW1vi3u17M615a6h6SpUNeXkvrl9+uFx/3rase54vfjkQXvBgD+2B/7Y+3P/bk/117/+te3l73sZfkV0Wtf+9r2R//oH21f//Vfnx4R2ZAR4CFyNPNuCPOSl7wk8yNL5QOauIBaIAZ61rFcZgExBnQE8OmfOLZBMTfBguoUkOfS9NvWl9dm0iUBJ8aykN49+lEhoGBBMVrjBeAiiOqdzkeYi/nf//3fnwL1FYpBPbcH4G1pgcHOjTcxXG/snnJcG59650mg8tpM6itvP/SJkEvo54pTSvD5UoaNUHVc/dAnzyv0qd+e4gXQ0ANuqSWWX/qlX5oy0cmanAEMcckDIAw/rOYqi4oASnpHBKDyEV7xilek/OkWUNIv+Vtw0Hd/AZkeAKR60RHl+YLFazi6qBPXgYgrnXZXG12vb+9m0CVxa63O8HWJyZ8CZgl0vbA3QhisJ9Tb/vk//+fXmCsv40gBk4GPMlQa5WE2YLK2XCPrdz/1qU+lK7WZtL5dxfanu0/gReJUUGdx+s8vBfXrXXXut0lw3X9Wda77OkBK/4Y3vCHBZAwJdDweALKO2vtu6ciUdQSUAmblp+PlhbHAOn5pdcCCMSP5Ax6dIG/XFp888cQTmQfdURf5ioPH7pfr/EVf9EXtm77pm3IWV6fvmVD66ly+m02fF8upQSW8EoRrgNDr+Q6zVv5gKsaU0hVgNBhV40vYngsYVwxxrkfkFgGVNbjAj/kEIa1ACITM7SlLqsd1TpDcW72lwCUqgCsPVfkFbM82SuvjVp36VLzqUz9eP/76eF8I1K8fHvXl2q8vuZETfnvdZe0zq+Y++ThyKX09YtijQyVHusOzcW5W3rkOF5h5YeYYdLBWgnnOOpI5a8qKKlOd6Io8yN41/SFv9Sdz13TOM/eVz3qrl86k3pFXKOqfS196KxQP+nHOR5sKzvVC6FdKRbkkekK/VGzlDwEWACo+qkYUKAoM7jsK5ftjpCMBWHQA8L/0S7+UHQBBAai89KB6ZuMTyuC7TsrBdSJAgmRBdRZWDUlHmFUmKmZXfapOm0nyXx/6pLzNLnMzSX3VD69YOUf8Zc3wuhaAmITzLtp7RfdrAboJOh2leCyZjtTY0wytzrQAX2W5FuTJvRUPgICdbsjD8EYe5Mpr81ydxFVXesl7c155o8qfbgC7zkGbana4jENfRiWf4kE9q3v9/M9Hm+rWqkxVgAKrvMphEmbrBX1dAqA1K/ZMVA2THpPkWfk7uo9xmM81Ev7pP/2nubcQZhOMIC2mUoJbbrmlffu3f3suiOe+cm8sqgdErou8zB5bmADQVc9qC/CKW3Ub0mcT+egw8Y47aebTe2cA/Sf/5J/kK5G3ve1tKQfyIUOyxNdaHYS/7pcekXepah1RXw51XoASEGtM/jr0srispgUv3hD4uAJAC2zKRNW5yJfckc7DSiJjZJ05Ekda6bQDAX+Re+rcN0QboU21nAquwutc0ONghCV5gKmhxYhnIkKWvhrmiBEI42qsygq+7nWvS0v5v/7X/0om6dk8qx5OesIx9rSFJhfIuzLjCb2q3tBEEsuKmbUWV1p1qLoon/CR+rg3pKcSHgEdPlJSvAc840o8Jx/3WEUgAWIWDXAcDSvoTE3+ONZ5BZ290L9f8UwokbV8XZt9JTP36xld0QlbKgqs5Einqv59KrkL8uJKqz/Q19654gj0pXRGO+kI3al7z4Y+bxNClS3fHhMsYjf5o3HVkPORRiFM0bhikLwxh0C8zzTWBCprZLmz0hWAxCMk96SjNI6U5pu/+ZuzR+fmGKd6plf3nHvsvSd3SdpiNCWr3lEb3BvSZxO+lNzwz0ynzs+QAhh0jp6THYDa3cLvqIqPSkdKqcmm7glFxf86krtOW6eMlGG8qWMAZmNHpBP3Ab/hi7wBs3Ss6u5If8jbUbmA7Vqnru5e+xgeVfnaWvWjM/36Vqe0Udr0MSeqChlIcxmt/MH8AqYGbJQqL8xyRM6r4Zhk2l0PaZKpQChUOeI7x3zM8UxduD16P8v9pGfdMd6YR69uUsl1Px+K1FeUIX024UsfZPilI+WJAKmxP5AAKMsjrplZOmIRgXiemegRzML6QJq1cy1OPXO+PvCOpJEHt/q2227LfaN0rMALYLa7kae66ajVgaxLz4TSZ1Q6QO/oDX3R6ctP536+lUTr72+ENh5zA6TwAo5eigvra3MrNwij/HDPN0LVII3GuDp3xGCCxniAU5bOALP6ilHgcl5HdWQRCdGyQQLl2uoBjSO4uCYsTN3LS3xlyJswh7QxKlkhPOS26qgBh3vrI3idXckEb8mVfkhHdgBQ9wT36nx98ExccpZOkD/LqUOgLzoDsjf/UDIVUOWhbHL33D1W1ZFFRtIqh85pT215og3Siuu8D0wkv2dDmz7mVKma/LGvLGDqaTDGUYULPBsheQqY5og0XoNNNFhepXc0++tegUcZ4rGQBcoSLOGIa+yr09CjclEAHSC5ytKYcvd1jF4fY+WpLPGL0cX4IZ0lOoDvOuNSVAoOKMZ8XEmeiSEFntMLfGYxxSMnM7MIz1klfC7dKXkKde4oLfCRl3vKZ9WsMCIzk3yGWDoGYGI5lS1vQd6O/XwLcM4rAKc60h8uujEyXdGmqjfw0hHxpUfOnw1tquVUYebeZIqVP8Z/Go9Jep3q1YRnQ33mELYjZpgI0iMqF7PlD5yeY4weUdnFJOU6rw6Eskhb7g+mG4fYFsU2ip4DallMRwogH+mGVvTchD/GfORBdmRQY3XXAKoztdGWawDSeYuDyEfAX4HMAWc9MCvUM3nRg5K5VyXW4/KEDFm8NzVUASZyVIa8S7+kKyuqroLytEPceq5zcQ2IyrF+myEyjnWuLuJW3lVn18+GNtVyUnA9E6bXT72rlAoiDUF1/WyoBKGBGovxrB1XFLO8hCb0/gQOKoEWKVuHgeTBUpqkoBg6ExNDekPjzle/+tXZhvpiRV6EU/mpz5DOTXhDuUvZgaxkQbFZHR05kPCA8Jwl4/rqFMX3jM7Ip4C0PrhfgWwF93Wq3Gavx8iZVSZ3K3yUx7W2cVzVUZqqG1J/16Wr6u5eXatXlScN/aiFCjoar41QPz9x+7p4PnpW4JR5KWRVzLWGcSUoNx+cgmM+5vYr1W9Q5XM+ElcDC9iYyXUx++adpHz1lpgPRARbgkMYX8ItRkkPeDWZJI3xgwkGz6zH1PNJx5qaOrdixTUQV17Pph2XI+FNyZw8CpyuWSNjQvcNTXSqvCtyrPvSio/XpT8CmQrOC8AVV96AaZE82apDvTuVBmjIlhEx56CcSlcBSdcvu+TsWj6o4nuuzv2VRDw7bZKuAqpjkfTyrDiVp/MNgbMSFFUmMhUAk3L7RWkvdYuxFVflUeXh3rMh6TRYvs6B8s1vfnMyA1NYN+em4j1XdtXPuR5THQiJRbQAgbujRy03nKDM6FljK3/XXCDfhSqD0ugE1EPegOpYbRvSZxNekfV6HRCQ5zpGQDI8IR+8NkEnDXmTIQCaqCMXLqrOUzDGI8865x6bfbfyiNzIiyvLu5Ivd1YHzEKzmvSWhVafkmvVDVWd+/rqvOJU2xDA6lxYfrqoA9BJ1Hv2ftxKX8fqIJB7db2h95yliBRdwirMubEb5f43/+bf5HgNEzaLqmrKU5ZG6/msx/w7f+fvpKVUJwy3ZI/fr8cS9MyE4zkBYJSFCt5LOQc87zLV3ztSS/+A3DXCbK6WT5W8qPbbLN7VspyUQPvLIg/p3JQKdg6FJEu8AzrvlX/wB38wO1BjONbGYhWv4Iq/eE4OZMSzYZ0AoQAlH2Bw9Fz+Vn55XSI9++MduFlVnS7ZAixwVgeurtI5yrNf341QtZXHiFjtH/qhH8qOolYSyatwo21IvYvcF6fwtSHLKaJQ5yqCNM7SJ8x0LJO+WQRUmEdodQ5IelrAAxaNAUQANe4kHNZQwHSM8Y3nn/gTfyJ7U4B+17velUJy/cY3vrHdcccdOUHxYz/2Y2vT/KwoAfMISmn0iphfzC1mD+nc1OfNeiV3XQHwyMWwyLzBW97ylpSvuQQdMv6b/DM/cPfdd+d8BitonGe44Z6hBytMltZu+7qIdWRRzU3oYMmcrrBm9IkM6YiA6BfdLqC5fjZUaQRGSv3lXSuJqr3iwYlnlabuV9loQz6ZyBUklhGrwvLokVghVmczgYn0cAJGAoUGYj5QabgJKEwgFNaymK5+3B+f+Pi+kwvLIlq2x6WxPvKP//E/ntP4elt5e07g1uVahC0f5VEAdQBWvTxgDmljVMooFPV1yX3yAxK6A2i2qeGJ8XCsKDLmJwt8JyeTLT5yMLFDxgJ5mj9wD0jNeThyk3la0gOAcuSjLNcFBPVw7VkBZX29z0fyAXy6olx48HrIDh9cazoljvyFSoOqnLouHdsQOIsqsd7MgNrkjx0MuCQavNngrDw1FGE+gACje1b2ABdQemZM4tyY0rst4CQcvbGemXBdc2kIWc9FIbxK4aoCI9IegjQmNabRbr03VwXjCXVIG6dzKXrpEuBwUfGXi6fz1OGTr1+FM5OO57wi3o335zpMlpVMeWvkTlY6V/Me5ClfebJa5EWmNeQqvSp9LWCqo2OdPxsSv2/1kHax2LX6Sf3EE6fKQq4rXb/cZzUhpBEKZCmN8fRyLA7mVY/Tr9xmkHwxmltpsgYgWU1C5LIqH5O5L8YmgOuLARZW2rKWLKuPsYGQC2yCR311NM71xtwqkwtWlIgPuEibAVl5XCPurbxLuEM6N/V1oZSur4R4SEELgOTKapKP+4YwPBYyZgyAzjCDu8rDMcfBsppMYinrV85ZMDqj47byy1wDgAAz0oGrhzr0gVj36rx/PB9pi85Fp65jkU7noEOgL7w89dGJKL/SiLfegpebveExp0QsT332ZeWPSmCOY/nP1bjNJPlyX771W781G0IAFgkYaxAWcBGQ/We8YiEEnYexiXdaJhKAmzB1KBho0TumUQRMBXqeAEVheQnfJJDPyigFxnKDxdU5EX69VhnSuan0oQLqex14Bxw6U4pstp2MeCv4T694Sl57WUTAWppL0KECrDQmk8iRxWRZWVKdqLRk5RNBna3JIUMx9VCmetS5o46WDjtX76L++fmo2lhpeGd0DW7oqI69ZpbpIwJeZfd5VTzaEDgVgCF6NcDUi8mUclJSjOBrVwGbSfJTeaAzEURwrJ8JAu/HjB3NiGEEy/df/+t/zZ7VpI5ZXfHUTWdiAksvyl0CXC45AROeRfMEbnJCj61trKmxj/EMJWFNuc/y51pVpzSkjRH9WA9O8iUPnR8FBiCg4oY6BzYdr45Zp1vP6cNf/+t/PRXeb94ANTmTJ8spPZCSpaEMDwqwq1xU+upIx9St/0zYKEkPC9Joi2vWUp50yZH+GXt6xqjRWefKrPKE6jw2BE49E0C+853vzClujZdpURVQDd0sqkpj7vd8z/ckw1ktXycQmMXpXAQCwnwzxnomgnPkzgKlsSTLC9iEbUpdPoTHSmKmdZc+1gZqPbh0hKksYwVHjOWW4AdFAmYKMaTPptIFRwG5pnR1n3x1/OSIr5TZGM19OlVGgVJzT3WO+M3V1SEjXhRvjm4UCOQtLR0ATiAgTx0qxS8dVUad11HZVce692xIntLLB1V9XDvqXFhS9wG0Xsv1eVRh1M1KjOq6CHNYGS4fAMiYtahCZVLWo5/umajK6FeqjvKqumAkYXBNjBeR3gkgxTFJwPqZFQMUVs3MrMB10JtaJ2tWGRA9B05gYwnrl6XkI09WUjxxagLBeJOFdO6e9pvSl5e6qbc6FQ/US7uG1FEpWlHJvgiIdHb4V64eflNy8wfVIes8KbLleOTrmYkj7m7NCSB5k4H0LCzA0qOSoeee9an08EJkJ22B2rmg0y+cIOd0hV5ys83irp8kqnM09jf/5t/82/0HRTKniBTfOyMZaaSGVbzKpDKs6/NRxVfZYkjliaEY6ZnyWLs3velN2VsSiLGh2Tm9oBkw7yVNJnA9vc/US2KAyRyWU0+sHSwil4cy6KXlCfTGrdpmXGPqHmkjSysv5bLS0gAyMmtrAoKbRXnkqW7qK1CUPk82ypfnE/Xb/HR8wCNemI6OZSQnQwYgwlO6QBZ4bNzPyzEs4UkZwvzUT/1U8lonKW+8pzfyRGRmnsA9hoUFFr90uHSuT+vruFGqdJWv68rfuTo4AqzOhP7yzBgFuqYTqTQVN93aSowpzjUAQzTILwDXR8ibRcoQykcvZVYGsCIABTqAsdLClDjmm8Ax8LcAAWhM7AAekFk66EeLuLeAyKXRK+t5MQUYgRhzXGuX3RmQ3/HksstbesADcG6I5WSUQxmOGCk9a61z4D5RLG1xXxsoCJ5qm2O1a0hnCU/IVGfrXSXwcFGrg6aDdBIPAU3nC5gIf8kC3+kN3gNddY7uSUPehiM66dI3eYp7KYie0x/tMzutbjwCnh6dLVyo31PGnFVhCs1iWklDYSmhBm8mqaSgTBVyTliulaWCJmS8PuHScl+t/FAvAgImkzfiA5GeiDCBgy/PbSVwAjKGxAhCZ4kBr6bgCc8MrXEpAVanwBJiYtXHuft6aXmynkAnDYWocbh71Rbp3ENDcJ6b8IqHYlKIzI0Njefxujo3evCX//JfTtl4qW+GHqCBtSaRpJWmeE8e4hiCeG7OhH7QgZLRpSDtqfLV2RCK/tJbeo0Xngvp1uplKBGQ1OQPJrAqGlSRN5Oqp3Ok3Bha9zAWGLiagKmD4MZoALfWIgLugJ5WfTVQo/VAQAdoruXpnrpbiEB4QAtg1StjEEtKyO4pl5WWj55McG4yAuM8lzdGylenYMwqb/eRNmC+5/LH383m3/OBCiBkpLMjD7wkK7ys+QYfZXP9zMrSTUMKPLVSjBzI32QSXpdOSU/WvCfKr1MnX8/J4lKBU/nlDdAluk/3tEHHQc/oX8YFzgKGwIUzBrOulOJJIKPNbEwpLuarnFDAdFRRjDW+IBTvGgnBPcAjCGMTVquW8UkjT0Dj6miwwTagG8/UhJD8THJxn7jIZmG12VEe0hdw5eNcjy14Jg7l0QbAZWFNODnio7aU8B2r49G2IZ2byBQ4yd48AfDRDR0zr4bczLCzqmRHJjrliiO9e3QBQPG9OmKB++u9KZkqA9XxYhO9KB2Bq9JZ7fJMR0VfUbq1FKcAqufCBIrPUkmANrsx8lNuMROjXesRVd47zHolAlhm6BBGAxaAEBAAeTntvCypgbZzDXat9yRkPa126n2Bu9Jz2wWdkTTSA7znlUe5T0Ba78sAneukPtITPn4JysE/bbtUivBcIHyipN5HMwS1QshEHIvJU6KL3l+XB4KfeE0X6Adg825YSHpBf3ScXtGQD6tZ90s+8rkUVHqhLgyHtms3vfKMrtN79JRPxpwa25kF40IYn1E692WyWYS5pbCYrHIqjPlApff4i3/xL+bKEffLepWFLFdR/TxD6ueZRjsHduQ5F7hcUvkAm45APHlVHRzFJTj3kXwwzbUjC6mO6sUFcdSr+1wNr8THdPWQF5Kux+YhDaj46hWKMSV+0T2v7v6//+//S4Dy4gCz5ImP5COQF1DWYhNytUiGpwW0Nq02L0E2xql0ofJR9qWg0n3tKL2gU4yEjug7vuM72p/+03+6ixfMiefd1C+FtbzNsjXg1HAK7LmwWaQc5ZWVrAoTlHsYqpJAoLNgtTwDIABDnsnHdeWljsCCCE7e3GGAlN7zEqx4wCytPAAKk9yrHq34ghwL9MqWv17ZqiVu1T/7Z/8sZ97kXe0bgvKZCW/IDf99JuZVlRlxcubtGC7Uu8CSMxlJxxXEa4AjBxOHZvZZSTP2pUes77/6V/8q3zzQAe4u+VwqcKo7vVQHOqhNjI6jlWpe8ZnsRCPRiNQeDyX07tCLeysvKCKF9GwzCVMRBjkHhjqn6H/lr/yVdFUouxe21eMVU4VyBaSp/MQppmuL86q7c/dcC9IrF1UdMAvjBKQ8aVCV4xnBOxq4c524y//iX/yLVCSuMQsgUCDppat8hnSW8AQfycP3tvb8IQMuqE6ZBTWOJAeyxffiJXm6T27uVUdpBpccjF2945Tn3//7fz9dZWlKR6S9FKTuQmhhGx0LnYq2z0VHr0503vfF1gujaFendALCqGKG81Sq1QBOHNeH8IkHIdIJ0mcuqK4qyF9gUZ664LjK1iuanePOGN9RdGDVo3p94V0QQAjcFm4tF5h19Iy/zn0VXHtu7OF5xRfHtTzEqdkx+XCvPBfPfc8rX9fS8Sbc8xpGfY13WVI9vTriWVnpy5lSAYMXFRAFFHT45F48wi9EBoIxpqFCeSI6UvGLt0Ba+dbQoSYyvXem5IDq/beO3byBuID/+QJlIKULhYUeHrrQ/RsdGW3jowxea8vRDm2ZmZpuY3F/NTCxEtfBvQjy6Cgr76jH8umNbf4wZRxTstCwQvEPqUZ3LOquUd1bVXrdXz37HAU0o6yzr04c9YBA6Ke+vZ/kXptBLeA+E4kjj40Q5dgsqp5cfVlPCxgsy6pOBT+rvI204/lC2i0UEJzXEc/KNQUcRx2ohSZm572T/pt/82/m8IL+CaWbOvTiY50XyIHWPXn98A//cH4y6JwF/bt/9+8mQIGzvCNpNotS05+S31ld7O7WtcU+2oIXPDmY6nQDL26++WXtzW/+zvbWt78jogY2ahFCKbcX9HouTNLDSZiFD0JH3dn667MU13mr7j/1uQqOMemRN1BWT0jJ+dt8cEH5rBqL9oUYAJCVpgQUS3vwD+/KDU/+bbDjeL6Q9mo3ADjXQbnGK0rI0wAQPDI0edvb3paz8eIZZ3q/zkMpF1Tcyhfhq2fue15zAcozP8Gb4cXwgFzr6MsI0LWqz2aRWp2V8Nmz9cDMv2EhO6qn8W9Qr7179uYnjne86lUint9ypoJlXv2eoU9nq1YxVvOyKvXZtLKC2d0vGwOnyRWurKV4BsQWHeg5q17nI3E2Ek9+m0nFM3U1vnFuCeFP//RPr7lupQSbXfYXMuGL9htz44Gg/YBoeACgZieB1Yyqd5FeS4ljSaXxO90owFXnLZ9ygUt3+jwu4AG/b3iNYwG05gPMppc1FnezKDUvxHtWA/maA3IzL+LE/wRneBZRz/jrQbq6c59lOeN/NB6tKdq5wJnubDw7Nyn97LED5jPT8jJmd4vcCYkgfQJkMI+BejpMVvZmkvZtNsmTkujpvfpx7dtQ74spjVC8vVxIWwUA6gNLJ0bWLB4wep/nMz17/ohjcs3zv/f3/l7qAfdXOnm4Lz8Al9418hz/yxIbg8rL1ytmas0PADxwWmNtLqPy2kxKtS8QFhb8WYcHQATK4pHH7vXd2re94+1d3Px7HlKIMeSqjD8r6CW6nmIjwESltCrHapqsMaFiJYiZuho/CASzkSDN+cK50l1oUEedjIUJlMLqjnqJrH394+VEBRY80dEKwEbeJn289hDMKwCnjw2MCw1jyij0+ea83FF5uq44ygJKvPdK5fu+7/vWPv8DXHMZOgHrbHWiNdbdTEoMrOFhgIUIz1RKxuuHAZaKNmA5x7tEWdpndQRPoa5a56cYcmZGlJtSY6SJIJMqZtuMNw3c9XDqtBEiuPORNm4myY+yUBLtMDtoHGrM/rf+1t/KupcyXU5UfCmZkLPzesVk9ZdFA0Dyb//tv82ZVrP0XFEv4k3gcIkrvaM8Kt/SCfrBknoHar7Ce00LEswBIMBkgb0n9X6TN2PSzrh2o3q1MSpQrZfz2TLqSVnOlSi/6jA62n0WZ5bZZulvf/tbutwiAsqGO54bnMHoQfamiNdT96R7cG6APvVeJ7judw6LscYdxiMYricUp8L5SL2FjdBmAqWUBbESFIqysABeBTjv8/ZyIZ0V3fGOkrXU0ZK1YOLHAhM88ps6Fg3gIatmx0Tu7o/8yI9kZ8fK4h3e0gnej3P5F3Dx2Hee3/md35lbmSiPJZY/j4xu6RBMMklvsshz7/HluRnUARPo+rrl6qzMu3P6QheiwymdjfYZh545M7cGzne8/Qe6NBEBrSnQM4Mzgvwy6dmC0dmKdMez1XxqvI46FwVzuDGEg3GugZMw1aXqdT4Sb6O0kfyeDclP3fGKMunhKZA2GU+r20Y6mOcTaTNZFq8LUMBpFhUAWTQLA8QxDtQ5mxwyW/mP/tE/yhlvOoKv1WGzhHgp9Mug0LaxsRDBxm88r9Idk04ssoXvFjUoS761VnczqIMhGQt9HHjSnZfWPRWccSPquAbOl98cnUwHTvE3BM6VBGenYFlIZtpVIkEZ/6vw7uH66+5en5RXZWK6I6Y555ZQ+KrXZtJm5kdJ5Keu/XwpIo/A/YqjLZcLkSPFZ7EASNvL2ul4HfHGEfB4HABrZ3bfdfrA39AA3+ggKv5Jg0pfPP9Tf+pPpUW2ttZ2JmbODS/MX7CUtQFc7bOsPIvmK68LJcDsQujAU3DhTu86qDqWle5xjk1HRqLjCg/g5ptf3t6c4Pz+xM+GwBk5tuXIZXmp3E1JB4UFcJ1XL5bPstQuiFV6W2U4dnG7WSr3aozpmlAJt+JuFm1mXqjjRbekT6CA/Wvn7qHNUoTnApFbAad4gfAD6YDJAm/I2blJIns6GTf6YsjiAc/6bux6fQBwY0mv4EwmWvBuS1RANUvr0zMW2JpVE47vfOc702LWWt3NIsDkWXbWk5w7UIKC2jrvjt2f5eWVBGc0po0ET0ZizHk6LOfLXnZze9ObvjPA+ZY2Jm00GGWjHT8bnGNtJAAqQ25bMUtcZDHBapS0EIwaH/dyuPvIOd/j9BRS/n3GDmlIiB4ZN+qQzbT6+QyurU7amBWQPRMHGOmfgMQBTkMjnTuX1fY13FuzssatXFyvVFhOv+ljUzDW1Nh0swgwGa9AWQLRyp+2Gp1zPNMf5TF0H1gtXdWOjKvjHhzPzM23F7/4pTEef2N7xzve3ibi0YZWCK0sm21bbpMBvIkA4Gqcr8a95aXFfHl65szpvJ9AXVuSpDJdT0kAesGyHkOgDgnRAR09ywpIAGZM6n2nc992GkMyFHTSRxC+xbUrhoUqrn0KBpTcWONW6VhGM8Dy5eJayseK2vVdGrpY7vKmUOi5GdeJKHty0nxDa0vRqcydORXH+VwzGyDKtbSOW7bMtukZlrv7umY5cLEUXqlXP7eFhf/iV9+RgN6Y5YxMApFZD8hz74pdV7R9V16Zy9gOHTrcDh46mIP8+XlfesivZlpHwoR377ncGwsQc8uVNaTLm+gEb8wcgwUKgFmfedEPrz0ELi7ryRUFrBoyAKJ0Xr9wZY1ZubOsZQFQGhbWl1Z02h7HrGYZik2h0OvJ6Zl0TZeXFsJQjbedO7a1K/fubrt27khAHj1yuD1hr6sYB48FkMejbgC9FJZ0dHyyzS8stpeGW/sdb/zO9oODVymdaXsGykiBptGRGLyHqX3hTTe01732Ne01ge4X3nhd2xWV2Lf3irh/Y1Rmb5sOho0BZQAyzXsAlQVNKxqZYfoQlkNCDALvrLwooKvxKD1xzZ3V6QOhZXlmwIHNfecsLvAyKsabdqWQB9dXHN+Hvutd78plldbZMizCppP6hic5HoDbvWtnu+mG69vVV13Ztm/b0vbuuaLd+vKb2+tf/9Xtta95dbjY29tKgHhpcaFNRT0ThAHSxFp4nGW3NuDWxv2VpRYjybbnip3tq77iy9tXfuWXt5e8+EVtW/R4XNz5uTNtYd4eO6fiON9ZygiyNOB1wiVHCmaJw7HtbgzpsqUCJwIoVs5neVxUM68WpHBRgZG1qwm2Gne6zmFXWEEgpbu1nQy3lh77yBpwWUxgV95me21ykzeVnp2ZClxsyePE2EhYzu1p0G6/9ZZ2+223BmD3taMx5mXdFwOgU9NTcVxKj5PVvz3ccItxEjtRUZSMclzv1o7HOHJl/lTbMjXabrnl5e3N3/Xm9qpXfVGb3bK1HTl6LJjwYPvt//fb7bd/+z3tyLHjbXxisi1FRZflGb1IgjP6BpNG3u1koUNoDmlAwEXvuKHcVBM3Jni4uwDHYlJ8oOyGRmc1RzogdTR2q7W7JonkZeLF/bLO1RFUWZtF9FrnsiWM1XgA0jhzZXkxQHl9++Zv/Pr2la97XVpS8zYHDx5KfL37/72nPb7/QLrDcwvL7eSpuRhvvqJ99/d8b3vrW96S+aZFfWZaTYCaLD55/Eh74NP3tbvv/GR74DP3tf1PPNYOHXgywv62uBCW89SJ8K0PhSWdS/CxugnDqLxD1/N1k0xDGhICPKADHEdWzysRiwaAEwEWF7XiOgKvABTAyeqaoWVQXHsmrmv65uha2MyZWiT/rWEt586cbvuffCKs9xPt1MkTbS46hkfCmn/qk59od37qk+3RRx5uDz7wmXxmNtdY1MSRiVZhNe4tLna/IZr4ybNnIJFGAphjXNHIDBg//IcfbO/57Xe3P/wDKy4eDwbZnftUztyakeIJe62SY88gPYspZEcmPF2AIQ0pqCxhHYGHlQRWR0CjL57XfYHlc/SMhSwrCqTA4plj5Ycq7abrX5TNGntb0W1OsBLGar6diWEesN59153t93///e333vfe9sjDD7UTx4/GeHMx0nnl0oWRkfIqhc7t3pAJk8Bgl2VcyUFvMMqUa4BVxsCoMmaq4sZaIVxZTHM+GpXuLGYVPaQhhY6EfvQDEAJYARM5BzxAAwJH8Qqw9ErcfH8Y5FwcVG6va/HEr2ebR1H3wAIPcyzc2hUdRuCB3k+O24crOofAiQkg2q+eS4Ejb0WB2bPCURk0eW4AnLIz5TvW5uZXM4yMRu80PhOW0Ioeg9noKZZHAoDe88zEcy6KT4WiCPwNJuZL2Cg9J5iCurWFHfOL0UXu968xVW9XTK1nrsWtUMyvZxXf/SpDqLj9MpwTfJXdD5V/xasyKq5y6ljnqI6V9vlA1aY+4aU2kpHQ54vgWsDfAhAqoDkW71m24m+fKu9Kg5QhDXIsHamyHOVVz6rulU8/L1T5VR7PhqSVe/1dXQ2rHWF1ZCLx0iIsroy3YycWYoxJ/yfi3mQ8M/bllyKpnXVX5wVnF9XEzlSEmfbo44faJz51X/v4J+5pn4zjXXd/pj32xIFoaGszs9tiUOynEMLvHxSjQGQwnAxyFwPiHGFCCRdT+gwvZrom1GJaXwAV5I30lKjPfAKqvBzdE6/KchSMXyofRFGQ+P2gvqjqqZzKt5TAeR/Ez0eqduGHdgvFT4Qv66+LP+7Xc+nxq87rPv7VtTGn67onVJ6CPMtKItf9ULJx7Id+fHm6Xv/sfKR1XFppwGtycirqMtVOnDzTHn50f7v30w+1O+9+oH38k/e1D37oE+3QkZMB2gBlYGo5+oax8cnwRGPMGeltRBCc7fKNCqCsnONnz9aGn88nXtTrLeR2fnNz4U/HgFvdrXTwvafle9MzMznYTmDKr4rpZLNGKuG9p/yBzowaBgODmTbkGgGMSQLfSmK+Gbn+DByG1LnPhMz2FUDlbWLA+KSEWUz3eZoJB+V4wV3AlEaQxke6yq4yHO0qbuGFtaDKoTSeyb/SlpKqS+VZ5T+XSfvxidvpHFC0HQ/c9xs2FhR4L2npHZnQh9SjiCc+ntkAjVycO1p84B2mgG8VlwxcC/J13yuIAirZef3gWPKTX9036+u+1zLueSVTeZGtPLwrpVNkJF+6oL7i1y4d56foVOh44EQ+JkTnAyOUfwLwAjNhKpNnW0N3sk3SZBsn8ngyhowvevGL23e88Y3t7e94R6QJ4xER0TOCczKejUTGi9FQDVq0bC8KN7kzPhGD7GDyKIZGsOoBOP3v8N9RH6R6F6eYiSHKARZMs+4RMwnOlwq+brcNpWVbPjECTAInUIuZAcDXBxZLe8/lOfBYCE1ZMMv7slII9Re0V/kYpizv12yTQjgUy4e5lnrpFHwT6NvAUgj5eY+mrFIwilDLzjz3vo0SI+U8H4h+4JeOBv/wo8jP/1s+Z8YUz822+gqEcts7Fm/JWufrmfePFgjgr+dmaC3FA75+3vjtvadvPX2QLZ7vMS3H88G2j/S9w7TroW1IgNInYr7xVBZZ2qbE97X0it6oi8Xw8vXct57ypG/KqV9K92yj4ExT1Kl9YNSChHCdw6A55hrzeGxINzU1HToTOIn2wYT1AIB6Zq772PpNtil529uDBzFE28ja2pBJuKFh6uMEECcCTNYRjkcYiwEvUHavSDC0q2GCsUdd7kFxYvyJCBsDMcpnPX7qzV6lwFZCsy8PoFl3WKtDMJEyACdQi2uxsx6bcK2l/Jqv+ZoUEGEAnjw9QwUoSgToyvUtoXwJF6ilsdpE2ZaT+ZRJHcT14zn4Jb8TJ46nAnnuqwoMVs/6qgL/KJq2PtepQOOobaySa5uz2TXR/Vo04J7PshDeCDo7oNLZ6UB5ITwQ/AUcnS/riWdkhHRsQGT3BPogHR3h0Xz3d3933idHQNcBW8IHfGRQ34tKp9OXd8lax6quDIOyyFJZniEdLJ3ZGDg7XfZGwjGBFXxJTIx0xkAZk1GW9/7jgRlrAGiED0qAczmGfXtD92655db2ylfekTzYkK9lyMybXo0MV6KxYSbbWPjUE3qB8K9HozDPo25rK4GeliKO3gQjWBng0QP6IsHX8O5hKFCwmpiDUTYJtnKC0AHADxNhto4E41lXroqe21cNrglAI8UFuFIqwkTqgGny9HW+ssvCUpp6IW7tpmsKwaKqm85EPRYWOhfYfjg6A4qnh5ev/Fma5wMwEf5RtDrXNkEHCzTuUWgdk6N24wMZAqzOjmdGJnioA8Rrx3IlyzILRc7loRxyJA+y1jlLhzzXsQKnfPwkg99I8aNc0vg5Sd6P+HSEbOgVoNMHMtS5O+qw5bdR2XV200oAX6eEXgFpnI8GOBmxzph17qvcLHRXfsYLnok3GpiyqYH0S8qNeOcFp0JYxonpmQw+vJ6Pxs9FgxZY03hudjb+JDBlKpyL4FawgkivS5hcWe4fIbrm/yP3uD/vfOc78zMgTMI0FpKlpSQWM/vhGsEP6xpzSkcRCIVwfL1AqHpfzzC9hCE/ZYqP5Kln50JzkdwnaEdfSMjvb/yNv5E7uQErC6rerDeXTt2NYykeRZC/ehPE84HwClDIjvtPdhSYheIa6szsB1V7Qek08VQ6fMAvP1aMZywVvgKnPPEIr5Fr+ZKTkIocQWfsPv7aRI0sAUp9gE755MD1ZaVZbsMdHSr50wNgtDUKHdJpS8OC8xirE1CG8tRbOB8lXwJgVscJjJUPqPPjjwSe9nSTmiyk+Rkh9WIQZ1WcQAcDV0jZkOVcDBACYuTSRqLyjhDPolpVz93VG5zN+Jlpe/SyLBJXBogAi8+P0Xo/jQUAnws5/wt/4S+kEI0dKD8wAKKxAQEDVG17iMnyAyaW2N6lNnQiIJYU4ykWkrf8bF9hb1M9uPi2vCC8moRAGAt8ypNGPhSCxfBZErDbSc44Rf1Yb/mLRzjPBwIwANIegMATPNBRkaPNumxryrL9pb/0l9JaAYT4eMuz4PqTmx/KAiIdWOVd4HDEO+f4Sl7AJT5wcU2NK3k5du3jnkovLgDrEORB+elNTeyQFRn60sUPT3GFWV/7D9Uv2mkTmSFH+Z6P6P88fvAII6mlq4tRdi64kVe0hYEbD+s5FQYiJ4HoFYMW6Zci0dJSh58O5J1LvzG3VuIorAMhUxzMjIwV6pwf3U0GdYWxts9EJViC0YsCjckCzMBMTGXl9GzGlsDwkz/5kzlhAJTiEBiXGJj1xhhM8ITIuurBgZPSmNzSOypLUE/l1eyueOri19X+3b/7d6kA3OgCmOA5BTO+5c4ikz6eKYvrVEG9jHkpg7aUsJ/rRFGFkhs5Ait+69CATwfJigKIMTpQ4AFe/9zP/Vz+tJ9tSHS07uuk5SHfsrJ0o/IWRyBv14AoL50CYMpf54BYazpCdsDLxbV/rTkIHae6kZ26ko348qu6ylP5rktPNkKmNwHK/AvXldWEA1hhKXPSB04ib23gtkaDAzd0q8NRBrjJY0cbKh34chZW5pFxWkgVj3uVsVcsWdAaMM8Wsp6qRwJAFXat13Jd40QMNQ7V+xojAEW5joSCTAj4ct54EUCBheKYELBPaf3qsbyAGBG6PJQpELze3ZjRGJfVIyT1oySeq1v11n47UTyuHIGbRDLGZA18BMwDMJnmHgtCqeTxfKE+XwpMLBivh7tJDnhoLsCwhDxZMzzhZpKdMSkZAJYjuUkvT/kJdABAxKHQvCxeCTdVwHsAd9R5kytXmUWWH4toNz76U2Ndna6OXVwdsmfyV7fyrIyV5VdG4tlQ6tNAtzuXtgMeo5b65n60K/nmmTQBXPfFk4ZhAy+0sdlaCWU6PtatCYyo1avoGaSsRe6GwklZwe60GF5lOKqggCFlBeVpjMh1NElE2BhEcKwWQQKF3g7YAMbEAPcTOGpsivG24efOUCS9IsupxwU07apF0pjmmjCVIS5loAAsADK5pIcHdOd6YFPzlMzYUj0JnxvO9SJY+dTECCutrc8HKnCisi7AR0b4qHPUXnLUWeElAhivn8gWL8QVyFccvCIvfAZu1pCMlKFMRMb0ElDJsuYF8NjQhlx0FMCnXvJ3bQeEiqs8aZUhb/UyBhXKI4MBekbfxCm9fXriQXKjA5ihT5FgsJQvZA587q3qeOJR4MR9R/e5tB440plbwlu7Y6OfjJkO5j/b52R2ZjbBBIAajny/Ke2UgXBUKN/xBGCtNdQkTBIqfwFlBeMegRAosGEMZrlH4YuBXT26yRoC1kMChXGho4kHY0xuCqGafQW0EhCBALTy5ImAlJAIXH7AzMJSCD203pYSAH69YlE/AlOOusjbs0rjHoa7p7MRl3Joj7o816nkV/Ls3xPcq3a6Ph+JA+jASQcMCXhHlJS8gYzcWGDA2wgpX37qkuAIcu1+1Y2M6tlmEGCOjE3kmJPeK2eCJxk4sSbdNj8WtiuTLtLpqGk31ozgtcrc/EK7Obwtw7O3vfUH2oY3+OJPM8OLi9bRdrNrFSjoZADTqgigtQVDVDcZYIle5S2fKiOKzTgqWoyqZ4TlKF9HcRzVBZVL5VocvWHF7wtBnH5cwgd4wtcGZerxuToUoBSk3BnP5V08qPyUJX/3HatuOq2yCtxk4GdBpOsrynOdtFd7hLquY90rWW6ExC2+4j/LSZYIz/BV57vR/Er2/Tr2ZSCfzQbnyupIvr3wjbOF6/Pzc+1k6JYdRLZv25qfgy0tLbQz0RbeF11bCCxJVzO8J0+fCU/wpe2Ng933xqPqG+rOZWy3g9WVpTYzHWPDqXBnRgL1i/MZ3Ac2Jn3FOUF1SZ9C3F7/EAZhGiXGKAKizARDuT0Tp9yKApq40rjnmjAQphMsoGi8tPISv65ZZa4Wd1Xgutb7OPGqzBIkZemDsOK5V3XQu7OM0rKs0iDA1x5pu57y+UHajIofRXUf9e+fj4qn0uMXb4UHotPkjXCXkefnC3h9rvsVKp/Smc0iWU9PTeeQDzBZvSt2+ZHnbYkNG32xnlu3eLVmgqvDiw+z81tpru4g1C59aIO1rFesfGpLkhbiGEAZfDY2P+cVRYxDomCVUHj3M39dT9Yxw8BYL3NWeH0mOS8w1bkjZgJCBffdKyC5V+8v5dsHl/tm5Rw9I2huJgUQDPyBXtwqr8pxLkhXCgR43FxgU75Q9XFPOvHEl9Y9154/X6jaUnxB7lXo398IkRceFZ9KrjrU6pDdL3k8UxAPVV0q9J9X2FSK7HLORbY5waMNAUAYSF7gibH1Qn5KFg/Cmnbrap3b4gdugHNinDvc0QbAuZr+8yQ7u7zQVhbn2mQgfu8VO9uN11/bbrj+mjTds9NhTcJ8qyBwYi4yA5WzUFFJTO8Lj0BKyZ1TZnH0oMVU146eF3nmvuC8gMWtdE/cAo0jcKIqx3UBp5935VeCRNpRClLlIPeQe/Jy1K6y0tVpSFdxn+ukLcUX1Adh//5GqdJLi68li75nIs6zzbsvP7T++tnmdz5io4ByLPId1464VoItMK++el+77rpr2r69u8Oz8hbAuLTbkAAYQ1kG3md4gZE+l7YO2HpecCoksBkFBogW5tqWcGtvCkDe8Ypb2+u+9EsivLbdesvL2nXXXt12bN8WAA03NNL0Ge9fTie7FxXKtgyYTnH1kAUMyg1kjphK8RHAGn/UTBzFBwjxqocVxGfhCNn4UV5I3AJXX/jKlc5RXoJr9as0grjKVgfPpRdQ5dOvizTqUPk/H0m7L4SkrzyKf3jlXnWY5FC6tFFaX69+OWj9882gMQaInKMdszPT7Zqrr2q3vPzm9spXvqK96o4u3H77LbkbH3DOz58JXTGZ2sL4hecQeplWN/IwqYo2YDkDGHbVC9d17+6d7Ste99oA5u25G8I9d93ZPvKhP8w9hGwqrWeYCHNdW5RgQrA2QblWYFrSjjmOZcEIgIAoPNfRPYIiMETZxa34BRhxgEZA8hDEAUJxPJM/YFZA0hZw5AfwgrRApmx5ycM9oa9EzuXruvKvOlY93JPu+UDaKKynun+uZ89E4uMRXjovvahr5F7d3wj10xU9m/SfCynTZI+Z2enwIO1Vawe+I4cPtU998uPtvnvvCR2cay9+0Qvb13zNV7Wbbrox8WLfLZNG3FvjVFv8LC8OdhOJvxsAZyhdNG5meqJdtW9P+6JX3dG+/uu+tn3rH/uj7Vu++Zval772S9rOHdvb/iefbE/GAN6mRvm9JnMLmpQ0eoTgUPyP3iXusqQYVgIp5SUoVOApBRevwEFwrKHgPiAUqAAMqFhZgKm8xZOuAFXCL+BUXaQBZMeqk+uawRVfGY7i9C0+cvTMUXzP5VvPnw+kPUib+u16uvsboeJh8a7kXrLC641S1cOxQtH6680irWWQfF4JpGb/P/PpTydYX/mKV7Rv/qZvbN/0jd+YWPn6r/u63CLziit2Ja7ESVAuhZEInLhXW5VsAJysXbh4YSknowJ+w2FmaiJ86D3thS+4sd104w1tKqzdyZMn2qFD3eqK/Cg7aozRwY60nCU0FjQtaQRMF5wTjOCcUJwXEFwXU+WBXK/lGed1LU0Bq9LJAzl3T5mO69P3ybV8Kr+K2w9VZx2EY+VfeTmvjuD5QtWW4gFyr0L//vmo4vZ55rrywXd83Wh+lUdR1al/vj7OZpDqsX5q6a3GsaNHcof3hYX5tnXLTLvySp8hXteuzQUzszn0M1PbYQS+uvFneZtF5wWnqDngXV5Jq/jYw4+2e+++p90fPcOBJ/fn+01+8vJCWKzTZzKO6ypijRcKjf859gxhlEDqSAiE4bxvpVTWNSrGAkON9yovQVxp+mCpxrouQbtfoZ+20lc9nNd1pRUX9e9V3p4V8FG/nOcTVVu1yzmqTlbwTMAbVNf1DNUzfHSvZOx+PXMsPnve7+j65SjbM/H7dUCVVhwkjmfui1dllRckuFfPUcVBde+p1NXT4pvaXVKAjcMHDwVmHmmPPfRIO3zgYHvy0cfbscNH2vzpOYzJHeKzjeFpKqcrqitjQ5YzkoQvvNROHjveHnvkkXbPnXfFWPND7WMf+Wh79OGH85mVQllYKLNxZTIprrv0iguGaZjS47/iVaomZqpBRcXQui+eI+ZJJ2CotAXIZNAgfjHeM9eo0rmHso6D4F5foBVnfX4CKkEK5QqLU9TPS3i+UPFPm/Gl+MT112Y8wAuyqXaLJ37xq0/yQ5UWf92TR/EVyaN4XDIouSjLM/erjAIbvaihSaWtutW1o2GS/Po65T5yXfHW30Op28odPPN5GGAunJlrx44caZ++5972wd97f/vAe9/XDjFoYcCW5r35iOFT5BGwzPrnryTg2SDfDWmND4oFS/m2bdvRrrrq6nbjjTflcqudO/nOxmAAoFFW5su2KyBJQ3rXnV/duYoa5ahyGFhWEaM8K+F7L+ncCgvPveQvBvaF47yY6NwSOkv5XBuLohJqla1M9+RXAnI0M+uZ8az4tdhA+RSoQKxswQSUuOLULLF4JcTnOhVPkXaimr22bNIiDDwpAOOJ62q/xSUm+/DRO2f38clyvVp40gd98Vm84q34ZFrPPasVWe5La7aeniibnshDGdKTuWv5uKZzyrR801JQ+UpT6eSn3aja4VjnRYDZ/crYYHEK8EVZO7bvTHf2umuva3t27wmXdjKGhTMxFOwmK/NTs+BpB+zIs5fveRe+px+8upQ+8uzslgDjFRG5Wwt4Iphx+MjR9uBDD7fHHn+C59umgzGTE1NMRjQqc84Cu/zd6Fwhl1ZUVOPdE7Ki0SjnnmEiBlr9Iw8AIwREYM4xt9KKU3k6r95XnoJnGEgwFUdayiJ47p5QCqYO8nGvBIukQ/KipOqmjORbxANsZbgn7fOBtEfQxuIpxbfViC1DfBfpUztxLB6n8L4ueuMb35hfgQiWUXpuTbMvd2wjglclSyR/PCMPfBbPV0HWUyMriHQGPin0FRIZ+LjBPk6+SCLj+tDB53s+H1M/n4yRjbW6Ogl1f93rXpfbk6inDy6A29wJfdA+5ZdOCCX3Ivcsbc2fHwkx5zBvealt37a97d2zJ+rmR4SXsn1+ZeyRRx9thwI3c2HwYMnH2UvLq233nn3t5Ra+33FHmrIN/ZCRySALEUKV2+m5+fZoMOH+Bx9qDz74cHv0scfbE088mT9/Zo2gDYzGgtFAacsFx3x9YtSLKCsAxOns7MyaOwRomI0oPwZiOFASsDiUn7A8w0D3q9cFIoKVD8E7spgWpVcvSAGQtpbQxZXWMwvm5elcvdzHA3koh3VQnwK8tPKqfPXW6uKe+korTsV7rhN+aRPeVNu0164EfrqvlBaffCfrYwQfAfjeldLTLXIDXnFd+xYUsAHFsr3qeOWPdLjOff735je/Ob8eIk9f//iM0CeDPs8DdJ99kaFfunZtuaZrH9CTP5lZMcZKWkwvb8AEXvXlndUWKOTnSxlxpFXfkmFfls7rLYRvObtFBBa8dzo+vzDfDkRH8HC09aEYAj7py5kYh54KHbe2FjBtjenjkivCsr785bfkd7HSbsitzU2iA+En5xbaAw8/1j7+ybvahz780fbhj36s3XnXPe1ADHDHwkzPhGXNbRoGQlJJhViRX9dIw5FeDeNrewm9mvMCK4HoBX1ETaDAJg2w2ArDR7Xf8i3fksLQIwMOwnzP9ah+t1G+hILJyiOksnLq6pnvOeWjLOl8jgbAyiRA5aiLoKf31Yn8xNHD1gfWLAcgA3CB8vkATKQdJVu8E3Sgvm8FMgCrL3bc19lWwG87UljPTMYsHD7JE+/IAL/kuZ5nzuVHFsqhK4BpBwpgct/z6jDkqxOgK74mAl6gV7avkNwXz+d/5O5oN4yf/MmfzDXX9IeMHZG4aH29UF5HsNlAnOSY0Z5BtonlXd7/wIOBk4+3D37ow+0jH/tEu+e+z7SDYTUXw3KNwYotMAPcoKiUftgAOMNkh7+6EEPKlZGwpOGyTm/Z1raELz0b48+J6dnwtafbVB6nsvfoChs0RFuytMFgOv4DHkb62gATMeh7v/d725ve9KYEGEtECIDiPoX/83/+zyfDWCc98w/8wA+km1MuyQ/+4A+ufYzte87v+77vyx7Th9jy0BvWCiP1Ui4LAGB6KvnrlYFcGh9yGx8ZV3OJ5MXtUeaf+TN/Ji0FqyA/C7TlYQc6Pbl85A24ylrrrJ7jpFPDX7wjS213zQJyIYEU6Nzze5hcR5ZHPN6QNEKN3QGKDjjHLwD2nEwEvKugbNZQfHKpDdWkqY+tAVt5AgB6BpA6DADVYSvH9522KCE/nhIL6yssH0X8wi/8QrrjAGuzNvU4P3nDEGVHHU0GmXfZGi7tlgjTM7Mx1IuxdmBla2AGlnxi1gEzjF7gwWdj3Zgz9CSx09F5tUaSkcgkcotMwzUIUxy2OHqHmSh4S5uKwicjjBvg2kEs0Nifj4PN4G1k5K7c9I7L0ZBufEig3Bq72WFWTRRQcMKzi5r9XlhLgCUQIAHEd73rXe2v/bW/ls+54ayrHlVvaoH7T/3UT+XWI+5jNKESYAneuXvy8tymUD/90z+dggI4SiYOIdv0SzlGAYRX4ydKo+dmaeWrzraB1MlQOuH5QtpXwMQ/bWQVfcj8r//1v84tYbSffN7xjnekLKQRh5XTgercuKXiAgj+V2ctruC8eNcPQGesqbPj3QAWuet0gRHw5CUuUk9y9Ankz//8z+dznpROVKfOWlcH46ht2qUjkadz9VnvLfSp63DouImwGCfHuDMxEPeAb2Z2a9vGkG0Nzy0ACTPj5mQi/lJkld905rv/yCzKe1bgRB3gRmMM2Y0jgdQ2mXmM+3zn+YUY84Wi5nMh0mmc0DUggoblsTvXUL2rXlavRWgESTjGvTYl9oU6xQdaW1LU2NCnXrXRNHcJECkJIL3nPe9JUAOowbWeVXzCkR6zCYAiOUrnO1bjIpsK6wTUS13UHxGgcYqNxyiVOnLPCoxcIGMeQSfDlRZHGyuP5zqRIcXHR+3CO7zk0XDpTcjYIYIlBUYdKv7owMjJFiL/8T/+x3QfuZHyqlnaUnpH19I4Vyb+lWtMBmShM8Xf2m0C1djfUR2VzYvS+YujQxCfF0VGPtxniekTL43ctaOsPzmjAueaHkcocs7qZYhrIMsQmMkdRALcadwCdPYUCsTmxCm3VnzPPWNNxY+LTI82DE4gBEZWMxzsPDfkzWFvnCsIMPG4y3zg1g7obKMwu2uw50BgUybCIww9oF7Mtd4L48zQ2YG7dt/TmxEgwBICIekFubzS6F3lIx0BsYT2r5FGmaUIztWJm2VvG5aTe2bMQrn0/FVPRwrjuR68BKS35S4RrHN1kd5eOspWZsV9rpN2FA8F52SFN3jF2+EJua49efCKnKoTtTufiSIuKiKLslwFxuJXleNaPuIBlE6aHIDHGNJETtXDUbmOBXAWVserkycf1hQopa1N40xaGQrx4NTXNivc3ZI/qrpV/YpcG2uuhpGi+4BmogcugDDdVngwmxuB9sEUT9OmYOJnusSS0OX7tOAsxiRz4lrmUN9NF0vmPsbJtJta736K4bMrX1T51TmQ6X0F15QZM11zFe2+p9fjPgEXhgqYxh0CIAzn4hh36vHKsnJf9OgEYcsRoFaG/AlN2XpiIDYhAdh6cwGxhiYTytKykqyhntirAJ0CBdMpsM569nLPtF88bVCm8i4FKVvoy8O5sF7p1BEAAA7Vs35H5Ih/5eoVDym4js1cQI377bTHWgEOEFXHJ760+CQvz3WMrK788JlVM+ZztK0MvpKjGVqWU172a+LtsNLyd5Qf/eBtyY8nppMgUx0muambDgLInfO+WHuApk/k6lrQ9j6f6oiKJyi4HHUPTPiqJL9j7sbNAJsbSEdIcIZRc1yzqpnfWQi6Eirr3KakO+2otinhFgJL7iEk8+gVKKp3k5jQgbF76e/ebChnlJavSVSua8ZTsl6j6n0xHYO4GSZcAO1HfuRHchD/wz/8w7mfCuXn9irHznaYDiTGNHo4VpIgxftX/+pfZQ/9tre9LYFJGaRVX64uQelRla3ZFMWEj+0TjUO0nSU3ZiXMH/3RH013VT1YBgJVd0IWF49c206Ty6S3VZaxqDHN3/k7fycVQ2ejrRebtJNyaWe5fEDovs5E3V07lqsqng7L0TX5cE9diyPgYX9SyDPKCEh0RnvXW506SlPBPXpUzwAT73kh7ssHwMlYOB/JU1vUpdqGuM7aoBwgpDdVB3olvs5ZZ6oTB3Dt7PT//BNCaSkDJ2fmulVIFsAnv/PbzYBiNC+AFvzkvg86urwZwIwjYze/sNhuCVf927/jO9r3fe/3tKmJsKr1nrNID1TbGnYAtDiAO6vBQNr1nJ7Zja/2DLLYnTABFrGrT0fSCsUgDcE4Y0RjAucERfDuUa5iHJdGHD2uugEPZupJgQMgWVX5EgIBE5Q4hEWp5C0ADGFRAHkRBqBLY2zJlWYd1UdaAiuX55d/+Zezo2ClxXHNbVM39VRnPbpzaeV/Kah4TGadLM8u9gA8zygur4PV46Voo3oDillrL/q5e8Z5ZIX3hgLyKZDiGf7gs+cAjgp468l96dSjjvhE5mTodQyAk4081dXzZwr0r/JG8nXPM3WTR7na9A/RjQKy+9rhiF/Vho2QRQjSTE95PWjF2eB1XeDF+ln3Cugsanqfg3qyvMrft29vu/2222NIdEcDow1ZTmPJbqJHrxDCjUzTVANjnHdAi/FCXIszYE3+PRcV81RIfOUAlHwIxn3gcY8CYJ5zbgr3BoP10oBJWVwDiLQAx71yLMY7x3CKx0q7Vi5h1RiGC8taYiDF0ynIk4CUpfeVRn4UlwKrG4tNQV2XArFK6qY+7rtXynApSL21yxGpNyUkB54DF97qGSDVBm6hYQQLZrigY5SGsgHNz/7sz6ae4APZAZQ2Fl/xuhS7yuxTHzz4iTeOiDyV1eeZ83r+TCRfaR0F+dNRaase9azi9Z9Xec49w7MC/DORnNd+H0W+cV351haZjFVeD8rIMab6xVEaOuy9/ne++c3tB9/+1oyzIXCuDVgDgFHnrvCwoqrDcipcT5GNyqqen/rMIxACIFQCroY5VvU0oIRPGRyBoiyj5wgw5COgys99oAVA9yiaOnBjucLKB155C/LTfmlLOZxrq+fyU289smfVkXimTuIpByVfMO4Skbqog3oiCgKE+OEdsgUWAKo94nEhgVDHY6ihU9Q2/HH0c3teURkDio+qfXVd8qjrfrz1vFAfPC55q6dr9VF3VPmdj+S9viz5ytN9+QglS+fuuxZcV/3cr7yekSI+79L68ly8PriOHGTS5cF4xVFbs05xywxv3QPOl7z4Je2Nb3pT++EfekdibAMtBkBbKcQgPmztaoDQ19qGtbm9wphZu8X8aNQ+KM+GivnFROfrr/XAQFJMdU3pi4nOgbTilAK6pkwUTDwgonAmL0xAeHVjYoGFVA/5VpnylL56f/mK456yWFHxkDjOKZOAxK36VbiUpC6olE2giCylSRATWhTEUIYngWdWX3lmmGNyxO+LmAuQ1iy4Mbi2V0emzXgvVNuL+uX2SZyqW/HJNX6WbriuOOejKrPAKDjv5+u86uEZcl/7xam4jvX8fKRUE0L5TWZc5F5C+b2mPNSj0wtloK58gA2exHPj0e57ToA0XdTRhlq9FGBcWuy2/MuBbRTWhRgnhHAA1r4pPrreCPUFhQHpm8dR5TGUkmOYgDDLM/fFdXSPYkhXodIAl6PeyJilQFMCchSn6kAR5A/AiGCqHixwAdN9ZRaQpXfOaoqnbu4BsI7BufvyuhSk/H5Q56o3fmlXdWA6Ke+K//k//+c5fueSs67vete72o//+I+3f/gP/2E+56ab3TYMKJ6VlyJv/MCrjZB6SCvgtToh+RY4kfv9djxdqPQFLvfkW/x33dcv8cmzyvesQuW1EeJRzoe3ZAIo3dhAFWPlw2v5G+6pU+mN4IOS3PFAvQM/Iyxu5BW1lmPmu7EuSeMjg+VFP6UdY7iJ8bZldqZtDSWcmfbr1+EaJAM31qACiUCQBQ6hGoEwMxsS8biRjnVP3DovJjuWolQZ4tV4VnxxuJ3KlLaEUnEdpRVXkK/nlZ/0JThpAdIzYGdR5UGpjccKyBtV1s2m4l21BalrkeeCMbZ3j5a1mdgyEcbLwCeW04SM8bcJMPcBUjo8LD72+V+dVJHnyu2XXeRZxXWO5FN1FvrpnymIJ61zchCcV/4Vry9j8cm3niP3hI2SWneghIPl3P6S0WKw9sR4PYcDUTfDA78O71vP7CDCWtpLKMEIO4GtKLgLce+84KyCo9jcX3NmarLdcP11g53Fbm+vuuOV7eU335zblrCckN+h/+kJMwiRkIuZJZhiXp1jsPjiapB4FILSe16MdQ0gnosnoMpbOSVoz/qCKeH10zpXD8Dql+Oec0fl1TNBfpVOvUtxn42gN5OUrX5VvmtU9VQ/ddVeFhGoClyCeBTKc+2rjgpV3tILeFhgdV5BvPWhnqFKL5Ss+qHu9fN8ptCXxbmeV77iyLsfCsyeozpuhOTNAjJStiHZvfuK9qIXvrDdeustuY+QZad3vPIVbdcur3Q6b3StDnENvGlNmd1BsecFJxIXQFnLm268vr3gphvbtrASp8NCHDli4TJlVoDYBcynB2gxCAMpQzFBZTXSsSgbHfGqIYSICkDF2HrmWFTlKKME4zkFcqznqHr+vgBdl7LJwzVAqku/jpWulLiUTVrP3L9U1C9fnbSr6l48KB6rb3kt+OG5Z44CquvijyBf9yt/91yfjyrOueLKp6jqeL6A+vUUpK28+nHVUdz1da64/XQboYzKNY0jawigS+HaHjM8OHkiN4u2XeaLX/Sitjus6UR4nxkfTqLctJzrDNsGwBmRw1RPBziv3XdF++I7bmm333JTmOvJcHMPt9MnHm+njj8R4UCbO3WirczHeHAlLMdqWJUVIYCwGgxYjVob/DbmfDCADsaUgIVSeopRzFmv8JWGy+VZuS/iAFC/9xPEZXUxvgQHYJVXxZWXuK779xyllb+j/JFrz91D0lQbUN13rPOLTcqt+mhHn1zXPXzwusS7Th8JeNdrGIFP3uP6osN95zX2RtVe6eueMt0vqvPiKerzxPOqZz9dnzyvtKjSu1ehqF8X5LzKrnQV6jlyXbqG+nmg9elQ/5rli0RxMzrDGP6dPnG0Hd7/WDtx+Im2PHeszU6stGv2bGtf/ppXtJfedHXbMRN6ujIfIfASaVa9/YiiVwMrbTX0dDUs6fkWIfCLR5cXI/PRduP1V7U3fO1XtNtve3G4tS8Il/Zl7fbbX9bOnD7ZHrj/M23/4weaYens1LY2Ob4lOD8eYIz0Welg/rIfQQLEEEbIYXKwVUMJpoABnHrwAh0gUpYCkDSO4lGgimesZ3yJYSX0AlhfQJ6J79w9gdVw7FPFd6z08qt6ul4fRyhSDvLsUpB6IbysNqOy6CZ1zNSalfVe2SIEH06bqXUunvegXDIrrjwzS4vfVj5ZZEE2NSGGihfiOFdOXTsX8BC5V8+qbpVuPc/619Wu6mCRexWU0ZeFe9pSJI04/TKFGmZVvbSpn4dnaH2ZqkbH87dSzpxqJ08cj3HlqXbjdVe3b/mGN7Q/9s1f177ita9uL7zx2nbbzS9uTz72cHvkoQfb8fA6J6Ks0RGv5xZzJ4TbbntFuyP4HbDZmFu7shRWYn6hLUTBx48cjLHnyTY91dq2rcC7FBU5Hh2G1ytR0eCbHqAtR+5hQUNlB4FPLVCWcJ+CWQRrTIMwr5ikdzbTaqLCfS/0CRTzBIyzmNksozwE6Sihc+MljMdY4C1XrZh7uZD2lyJ2StQpOKUrRUTi4KXF+gBYFhLfgNSicYFlBUQy8UyeZKRTlIf8HZVb3o/4ZOBakKbeEdcYt4CNqtOsPEqW1cnWM+mdk7d2VJ2ULxRVnaQXKr0ZdUfXyqFvNb/gWp2qDMfih+u+flW76R/yC/DcWb8ntLQwF4breP6EybYtk+3aK/e0wweeaPOnjrfxEa8iwzDF2NMEEnxM5Cqi0NWBcd6Q5RyJxpvqlWpq2kZKJ9rBQwfb/oP72xNPHGj33Ht/e/TRJ9up0zF+HI1GTM3GUcMiSaA1d0IYCcRGGI0K+Y5tYZEQOgUiPIwrRheYMMJ9jMMsDFUnzDEbWkrnKMinmFnMqt7Rc4SRlxvhCdL2ar+jTs86Ye87gQyfa6bZDK0jmbhnwkhHWqunvCv2TtR1AbLkUUrrmqKTYZ8qDhl5RrYlQ/JyXTrQv195ImnlI71z7XEuX+1QrriuC9wFJB2TMgDOPefaKZ57la+48nHfubgCqrxQbggd2Mh3mpHOZI9z+uqNhnt4eeBAYCbCXffc2x5/Yn87PRcd2JivV7oF8Xv3XdVufvkt7bbbb0+cnHeFUP4IaBQ2trzUdmyfaa9+zW3tyquuaFMzUbnRYOTSavvox+4MN+ej7eiRxTY1eUXbsmVX9AKzbSV8Z3EiceQcFW7h1o5peDQonk1Pd99uYiAGCaqDIe4JhKSRJUShmKV+jsVIPXItucM890uo65p5WZA2a38pbylTKTy31npZlhKPKKg0xSv3BHnU/Tr3pY+VVWU1K40ySnbkCAg6S68TvGrSsdYMcNVL3H79xCmrVfnWuXqLJy1aD0AddA1tlK0O4jvSF+mcV9zihTYUeYbokXpoo/ycu0cHxan6AqIznuNcDPFOnjgWgJxvL3nhTe1Vr7w9f/Br+9Yt6S3azuT97//9dufd97Yjx6JjGw+DMhJe5PxSe9nLb21vfOOb2/e/5Qd8lXl+cFphvxqNHIsK7Nm9vX3Zl7+6XX317gTccowhgzXtrrs/09797ve240cXQwD7wuXdFiBkxcKHBc60mgNw5phztM3Mbm+217SEDGOroXpsC8sBzctui68dMch6T8vtMJW7JY7ql2AoF6vfF5jn1Qs79+xyIW3Fl+qs+u2vc3yisALrSA7iOgrFX3nQB8/wnRxK4cUrEMpPvpW/ez79KgtNRrwy65mlIVuylK7KsnCeVZavDsRklfer7nsuLlIXQT2UBZTWA1uj6r73srYooVOeW1fNfbfAgvXHG2krnbKsGgM+54ZO9M53nyyf+miv59K5xjcfe6i7Ms+EV3n0yKG2OH+m3XLzS9uXvubV7cYbrgsLOpMABrbf//0PtjvvAs4TbTTBOR5e53x76c23tDe9+bvbO97xFkjf2FcpZpLMts5umYlBawAzEp44dTIyPxaVPtWe3H+oPfLIE8EA2zJsz95gJAa5KrIawAwxxT/HpTwLPrWrr7m2fdu3fXt+9WDCwSdWxjvAamcCi819y2lLRRMWvo80GVE9lvWggo9krQ+tD6utC6UAGEgg4mKcdI6uLxfSVgrjqP3FE/dq3EfJKCCeuXa/4leQjlKbtfV5HXm4x32sDrDS05d6phP1eZ+vWsjR5JLJJiCthQ3GuX/uz/25lD8ZyhuIgERe9mryyZ6O2VcqiF4WiQPkLDM9+Mt/+S+nPtljiFfguW82PbcXFB0DNPlrq/o7+mD+z/7ZP5vlaKudEez2BwvArH2lQ9onHcIrX5j4zplVxN+lxS7ezp1+QNeWrqP5OdnJU6fb0WPHYwj4WDscwFzgDkc6GxcsBMZ279nbbrn1tvaqL7oj0mwQnONhY8dGY6wXTHj08Ufbp+6+s33yzk+1u6Mh995nvPlEVLi16Zlt0cNuiRoHoCP3cEQSmALrGf1ini/GeHNf+Nff8PXfkI30PaTvLQmTsABMb+Zcr/nv//2/z5lB9SFQazxr7xiWldB+8Rd/MVe2qDeFE7cUs6hj5OUDTkRJ8Fi7gQePyRSPKFs9cx+/XFM+cSgWZXOPhavdAgDIj/WwSqxZpZW/8gQKLx9g1LHqAP7Nv/k3abE8k04ents9wcqkX/u1X8s6ASRLSb4sGpDVh9bqw4qrH6q6AhfwqcO//Jf/Mjt48XQIdEX59EkHT8fpk3pqOx1jbdVF+fJiOe3E58Ns4FSucgRp6JeykJnWeBD5xSHUK39lL/ihbqz3nXfeFZ3Bx9tdd0UHY9x58NDanrWAabwZF23vld2Y8/bbXxHZmUY9LwFZhATcWFjM+Xbi5Fz0BDHYj/zn5kKYSzHe27ItN/tSyZWRgKB3N/kvjiPAGf/VPBqmcaqjwXopYx4zgb4YwUTg5DYRICbY10UPTFga6xmA6v2snfUZWXUopYSIUpUCyke43KiUqUCTPXvwBDgRYBnT45mxHivkuXiUy3kpMf4BVgHRsfLzHJ8FVEAHQPIpy0XpuYnkKD8yVT7ZlwtrbCq/Kh/16++Iqkwg1HkAomGZjxusD/6Zn/mZ9ku/9EvZoRcfpEeO7sm/PC11tDkZK+7a0K7cX3HVt8+LfvA8d9ALnNiN0q57QHdmPjyTuYXASvBpdaQdPX6yzYdxst2PySCbe3W772WDInl0ALmIPaJkTc9DEtrci2/MR54I6zg1vS0qsCNAGQP9rTvi3kxkGpWPTAFz2XtNlnIwWxt1zoKZeNtnqggGEIzPkvRcBAOc3A6zgMAGgJhBeEBMABREPBMLpVB1TWkwqphISRxLuJcjUZ5STMrs6LoUFuENvuIvPpMF+XguPXlYf0vZ/+f//J9peQAcMAowdSx+O5anIwAdSygYvii/3GHytwcRfQAu1q6eIXVRVnUI1QkoR/3U3RHoWTodu05c+ajaKR2dEeTpungi79Id5eJBtQnVsdrnmXM/wxCt7cAZkBoL0NmNcnwiQDq7tW3ZtqPNbtueO1YCJRxFaWHEAhTh1ua+QpHWZgbyjSoknRecihMk1ufYkGhsIlyjMYyaip53S4z1tmTlug9Ou39rKfM1ip7grG+ex7jGDEzCyGKqntyYRC9G+JTArgR6YO6UMYMJBkwUl0Aw0rmGFdOQ/MvlKiFcboQfeI1f/Ws8cyxlpajGej66Nq4EFM8AQlyyMWzgMtpBz6QdwOKvfOSLCvBlbchS/txMn515xn3kOpILkrZ0wZjPNpY6AuUDq2fiVCdTsqy2kLfJLIEHxgJzlVlA49A+yLRHJ1G7YTjXBm2UpzbaDse1MafVUsrVHnmoSwHYPWnqOv6n1rN65lwmbIUZ2KjtMG31k68YA3ZUlNFj0MajrEgQ19GuXCTQ0XnBidIdjbCsQsuB8Mh4eSUEEPnML4Rw5000YLLKRdGW5o2HQoR5tnJCn+VZ17MQXFcBLq1ZOe4HgfPxa1MnM3iUxFaVmGCcUAsWMAijMAXjSiHc5yb14xRTL2eiQKj4JKDii2vgNB4zyWYTbkMJ96TBQ94JgBpnclNZJGCStmRQR/lK65llf2RohZG5AXIkI3EFINAJ2yHxx37sx1IPfB1TVrnqbA5CHYQCpiAPXpN6mQH+1m/91px8MtFoIgk45SGNepmBNaa1Z5TNw2tHvgKdPaf++3//77ndDB7QQR0MHiivLLRQbRXyN4VgJMpZWAydS1Ufyy1j5wMfVB4wF73kDwM1GukZqWyHqJHWtj/j42chuaEJIbse2JYkiWA72UamzjuLOGrLTGa6g2I+746DcxY0j3EnspoNnxwICZzLA3gazmJ6wW1cQhB6QbvwURwMM5bwnFBtyoRxJg/koed0H6OL1B8DSiHrOKSzRKGAiRVheVhQAGJBeCz0QBxuJsCIS1YsDsUkJzPl1RGW3qSiDsa2Ol1yJF9DFRMtvCVlic9Skrm85eUeq0nG8jXjSkeAVD3JWRBPvdS3PAAeljGo/O19bBwqnrLoi3o7sqjqLr26CgwEd1g+gvobdzrSI3URP0EVATFGxo10Kydy6Fg8skw11+5QuQE2MsXAc0Qw5NzKoj17dueM+KsGP2S0sW1KIoZCMr8uzyDJBknjgQIyXma3FqmjAGbXP3TxfVYzHYNmvRhGYSIXieBYTK4NZnM7gJJgAU+PDYjGpAQEhFa5YKpeWR6Up6tLB0hCqV5vSOem6v3xlLVhPYGANePmUeBSVvx0ZK3IpDyVsmz4LA6ZiEceOlhjWWAwhDHhx/IqE/jIECAKFPIqUOvAjU91EvICMPkAPwLY2vBNhwGUZvDlTV8YG69tPJNWftWp0B/6BHzy9i624usYjI3dl7/2KpNOaZuOodoIbKn1LGI8TxroW6TINHk7bvmB3TyPgFepp5Hv3Pxce9nNL8ufJHnbW+whFGni4VO09rPByQp1wPOnImeBcczbGbq/VbdnIg1gjfV01UsCUL/RVXGkDs4x1BGTpMMYQV3E8Vz6frxSpiE9PeGXwJrYotT7ZUoOQMb8vBsyKUA49+qLB0ORKTDqlLALCFjJVTpycSw5i0M2JVfPnXsGSOJJ75l4qGZ0deKVFjh17sApvnyV41h5lx7UtSNyT3nKQtpBr1hGOlO6WcBUR/lWfaUV4makHljFAUFHepSJkoROPFd2Z2ElUQ/3uLSwcHOA841vemOA822Z/qyD+4yk2PDZzcAG8s828Kwg/MRC1qC7OhviXs4JZYj4QhQLTDUQR12Fu2VW7mFUMVTv7Jl7AkZpTAlBfUoIKBs9qItjXyBD+mwqHlF+7xRZMrznsdS4y2sQO/EJJkrMrlJeJC6FRmQgP0dBHHJG4pCtuYZKQ54FQjpBntWZlrw9AwKW2hyF2VxurmAIpoOQH8svPn1RB9YP0BNAQfIuUjflOJaLXu5qv1x5iSN/6QvM9LRA7ZlPIMEzdwSJgJRWs7DSreQWlu6erUfcGARpAqh57HR1Q+CEdqCUiE+tImm+I+gdLPGbtAku5kZlVPJs6KqyBswIKipoVDEBOccIwNN49wmTeytvQvSccF2Lh5kdc7oBfeVdVNfiDenchHcUtPhO6Sgli1SvIwDAdVkp1kS8UvgCkHvkVB1qPS8QyF9aZZIrgJBxxSVLecjLdclV/pXW8EVdgcm18qQhY50BN5hrLE11AMr2XHmOpQ/KUL7nwCyv0j1BfeRZAJZXdTbKFHch0sBGbtMTISCSmOj2dO7I8HAy0hU/+gB9Kl66IL8NubWB/a5QPnWEqHMXoifwD1BzM+mRzmzLOHLO/EYGH47qB1hMd8VdXu1+Tk5vhzCIEDATAzFB0JgSVsVTZQqDcYTg6HkpiKO8BHHdq+shfTbhj8ByGhviMeXHV24kxQQILqR7eGpsVhMl7tETcireu668ybAUG2jlLY5raZQnHnJfntIL0paKKsczaeq+8uQjbslZHFRA8NwzuiWeca440spDkG592dUW+UhfbSkeCK6FlZWa16gOZTzxsWR2Nsi7T7sfLCwEkEHFPEx4orAFOvPzZ1o35vyO9ta3vEOKjVhOBYJgVG4lxni+VYtKqniRSuU9M1Zxvb4HyMpkxDgGULst6c/+lr+0gEpoFAHg3MPM6hWLYYDrnrR6XvGkK8IoDEUdszqBuz+kcxO+Ag/wcRl9bWLSxW/QWHqH1wUqPPXaor9yhgwobPEe2OTpfhGl55b2wUSWpUclH/lXXqVXyhFPfFTydJRX1UEoQFWHgdRb/L7bi8RThjSO4lQ654LzKk9Yf45q68s0UhEM8Xx47ZUh5ETWcd59lqacBEKGou6aS7uGmQgbMiXqAOkqsbhofGALwLE2PTPdtkaDZ6Znus9hsrKDzJ9SiQqoE0K0IRtezESYL1TjNaSY1heiUJYWeUaAyL1ibp/hdT2kzya8wTe85xJa6OEdoHGm5WxWDBmHmub369/GpRRdulJeaYvfxWf3BfdKRiVv91A9q2sA8xzJxzPBeVm7KrNClVf6VPJHVZY49EAQB1W+notXaeuZ+9XBeF7lVr2q3MwvPMauyHimowhgWmMLH9u2bV0bnz+FAlNRs6eEPlY6LjwDKS9sVhvnlkaBU1G5HVtn2t7d29tVe3e2K/fsbLt2bGlbZ6dzywVubMAhjhNRRowlnEf6brq5s8AaYaxKWCwmhtVKENd6GODTIEdBXIwSRy/vWk/s2nMMEkoYRXVd4XKk9TxB/Wt8o/isil9n+57v+Z5cNIDPwForaayWAU4v+gEW3xH5FTjlVSAsZUaO8leuuPVc6MuNjCu9637dC0gVqryKW8Bzv6yo/HljrnlcntEr8StulaFcJK7gnro6F6+odLHu5WKC0HGfSEaWEax4Gm3btsy0fbt3tWuv2tOuv3pPu2bfrjY9HvyKIZ29g8aUDWGr2gL04S43PDU7HW3P3M9Do+qwEEyYX2jXXrmvfdHtt7RXv/KW9rIXX9+u3LujzU4H460IEnklGDcAZlshjHA7xuIYY9Xl6F0W7Q4fFdNwwse8YgbmYiRmuV8MdKQcGIXBJWgkHXKvGFZMc48CSVfXlxsVD/AWH/HGsc8LPMYj7wAt32MhvVf0E+zeA4rLjbUEz9GrFj/fYOymMy1gVznik0VfiQXlIM9LtjXGc89RIGNU+YnnXnXWSL6Vh7Tyr0kobqx04ounbe5X/AKhOosjfVll557Lw7HKl08d5VNluke3x30mmbt/dM98v7l75/a2e8fW3Bjv1pe9sH35l9zR9u7cEvALcAYOEormcKy6W466rQK4dbqsd3gFWcvz0PJiDNojk+uvuaa99EUvbOOB1vvu+VR77+/8Vvvg77+3PfzQ/e3wof3t9KmTyYiocwBfAQrDEL2ee/En0uYawnCRNa4aiREC5mOafIoRGEU43m/V2Ih1FY8wkXjO5eUcU4ViejH3ciJ8EPq8LIXvPycDfPUSXudoBc9//a//NcHJOxHHu07vNf06NUACpiAvfMdbvK+wEZKuFhyUTNVPvgjY1J1XVetjxXUPFVjFc98svnYI4tIbcauNjuqGF+JL59wzgQGofMvabqQtxphnoqz8dCzKsAzPvkAPPvCZ9oH3/2773fe8u33kDz/QDu5/rH3JF7+y3XDdVYmhhTMx9o0h4uQEPSaTzvoWbQycTHBYxn1Xeg/20vZlX/Yl7Ru+8evat37bH2vf9M3f0G699eYYf062hUXbz9sHaDEGxgGEkQBEmPBVId3ZAGOE3Dg3iDAIF8gwBzMAFBALaJhIAJiM2QjzMFpcQijml6IgaUuY7gniXU6kvQK+lqKVcuKdIx454m8ptplZ61Qtp6tJHHw0Q85yii9egbxkJ16VsRGSBkDkBQxkpBzU1wl1UyfPtIc+iKuTUGaBtNokTtXBfdf9Z5VeueLJo9IrR3naJqxvj/T9kPdCnWe3hE6O+ej8ZHRkh9vc/Ol23XXXtNe//qtj7P4t7Q1veH171ate2V772te0m266IePDRs7yBjYSIxGCK5kn2hA4TQBFEwKAE233Hr/w/NL2NV/9lTH++Mb2VV/55e2aa6+KWMvRe4SLs+g3CaMHGQ3QZKEDgCY4uQABzuhZMB4IARQzkHulCBhVDMVIjKq4xXDpXVdwjTzDUGkdpZX35UalVKVgAv6WkuKrgNwDxPJQWFFjTDLAO2NPX3r4rhY/xROkK95Wec+G1Ifsqn5kX+5pyU0dyB6VXojrnvPyoHTeJXtBWrqijqUjlV454tQz9ZBfXWtb5SM8HSkvWh5x8EF+C+3U6RPt2PEjAf7xdtttL2+v/yNfFeD8IwnMq67e17bv8CWMCU1eJB3n3Q2AOdg5JHLcGDhFXlzyAjh6hWNH2qkzp/LTFj2G+ydOHmvHI5yJ+0tRUC5RilTpxg4AGmKIa8E91q6bSMBUEw6WiwncHPf0hpaTcVUwrRYqcz24OWYPKY+j9PLSk2Jun0rAmC9cbqTNFKhTorMAwheWA6/xRzC+tO4VEG3TYba2+O6Vihlcs7cU12IErm4//1JkeW2ExFMH+ZG3ta/Ws5JvgZ6La6WS9bKC+qizcgBPR0JHyvIVqY/04gGtcrSDvgjSqHulkd57Xh2Q5wBfAEZ1RMXLIvpuR0oAm5gMfoaOnzhxvD3+5OPt0OGDuW52fHI8t/k5fvxYOx3uLG8U+mArF/gMDJdjt+AnnNzzf5USFWH9luejkDMJSL3CAw/e3+779L3p+jwaQt0f7s7c3Hw8j4H4zGx+o6bSuShBwQNQqo54tirZu3dfbn1hPaclYphvJQpmmpiwFwwhGQP59MivK9eHumYMzSz6Zs/ieCSt+H1F1AZCKNCuZ+zzmbS1lFTAhwJT8aW8EcoLbDo6Hx/46XyTPgCj0zRJVB9D+77Wp1Xeh8pDXkVV5kaIfKSXv47ALPEb3vCGBCS9YkF9JfNt3/Zt2SnYF8gssfLUVV3oDTDpmGt9LWB5hoxlBbqkw7GwX1l0SHxurA7flyzf9V3flZ+T8Q7wSwfU1xv3ztm+0G0LDKwDsMgASCcnxtrOHZYpjsVw4FCMPx9o9z9wfzseoL3rrjsDM4+nnk9MhgWNODYo0Dnccust7Y5X2kNodGPgnJwIP33cmG6sXX/DddGwK9oEsxxjx8mpyWj8iXbvvZ8Oc24RwZY2PTUdz0L4gUfmWVuiXdlLeB9k0Ltz1xUxdn1d+5N/8k+mO2WZmF7Q5sVecgMd4BKcr+IpjW/zzCjqZTGxmEs4GErRfInQ70GRa4zV415ORIm0uZQJEMoCULrik+esBGXBU0fKTYELxNLZEsYP59oNwYJ4QGBxkOefpbTnIfGl/6Ef+qEEHR0ACB9jq7cvjbjXwES2OgOWTSdO7gCsYwdmelu/LYrUDbjJ3a721gPrxIFaGwEdKLWJbvkahK599KMfTeusHPyRb7Wtgjz7pNm+XfYLY/asVbafALxi18780S+rrLbv2J48HQ8QM2b2sLUn1ziXfHyizQf/d0Q9Xn7zy9urv+jV+SJlQ/7HwsJy9K42bba+cDZANpp7opyZ4+qaSTVhNNmmLEaYtIGUgXRUWhEj3CaggE7TxWbpxtu111yb79JMMJgBNDNo6aDPc0wOCJik57T4Wq9SwtczUhi9t6/mbf7kOSGwAJ6JS7Ecq4cWLjcqMDpSqq7D7ayozpA1BIb6pEvnZqOtf/tv/21urPYTP/ET+SvWwk/91E/lFiVWEbFG1eGVXOpYZZ6PxJceoCiwThc4/dQDoLHoFFo5gFg7Yqgn604PpKk2OcpPqLoBLqsI/NKqv4+pfQqn09cp6fB18OIDlskw3wfrLPBJe6pN/bZWCECEZxkexJgdOWDAxtQms5gmM9kjAcTFsJo+szsdGAjdnIghxThd7d5mCEZ/3pHCDdoQODsLKOpYe+LJA+2Tn7S51ify+IkI9z/wUFRyrG2ZtfuemdTuFYqQn83Edb6olU9UxoJgDPYVOmARtl4SIzAHszSaovh2k4vFrcU8zPSMtcXA973vfe1DH/pQxvOlRLkzmFnMqwmDy5HwoTqm4odzllOH5gNorp7dA7y/5P6xZizIO9/5zgTlT//0T+d6azvk8aq4kEhe8u/z1r2NkrTq4UNrwNGxcqPlwXoXINSXvphjAEZWlPxLxhXPeT+ol05eOjoAjD6m9kqI9bcxtnxYU7pEh1hPZbGaypF35f/0xGoqPzzJiek2G94jHJw+PR+W95H28U9+qn34Ix9rH/vEJ9un7ro7xqExVgfQMGiOOeQMbDFqsOJK2AA4u0zGx2fa6bmlAOPd7T2/83th5d4fPdyHAhgfDzf0gaicz4O2RO8xJUVwnqUMUOZqIddxnteKPOu7Y7xJID2bMU5tlVjMBFwC4YboXTFcwLCafsdECsNNIWBUCinIq3rXy5HwoBTMkeLp5PDdUjzjtne84x3tbW97W/vBH/zBBKttJPGLC2iSiEvpyFXETwEBV/G1yiDXjZK6cZF1sKwmINnWhLx5TjUe5hXZ/9YH+oZcPhcjdx2J58rUrsqz3HbndU/Hj1hqlr8mknQMH/jAB9Jrk5f9c60rNlSiX6WrT0v53GICRxNts2Gotkf9FmN8eV/7vfd9sL33vb8fdf5Y4uXRRw9EXcyNmJcJLyYAOjrq/XNY01F8xc+A6/nHnEDWodtCXmZ3fCKEE+PK8fCVJyLD2bCYCcoowO8+ACIr271U1auE0OK/BsoPv2ZntyQIWcW77rorXQngMvDXkzk3waNXBVLjDsxkTfV2rKRNpjDT+NMY9d3vfneuYtHruk+BatxRgno2irNZVO0uIV/MADDV7qpDKarOjstn6KCjc+3czCyLCqDcXbLAP+M8gGBhir9AAOjyVpYjvSlQPBOJx0oZD8rb8Ia7CZysOrkrGzBZckMf+wtxe3UU6mCSR1oAB7LquPs8kIeOX5uNMXVKf/Wv/tXsmNwztjbXQX9+9md/Nl1hbZc/0GqLdqHqgFDlb3TY3Y44LGgcLSyAkakIM2G0ABYArZHnuHaeKHnAmM/kVsNj3NtuueW2dser7pDZRsAJZDIamNuoTE7Z5nndj5DmuANmLj9KgHoeJE3v6ANUH6QuhsD5+hQCuLiuGmubEke9m96M+6FHxSRjVL0pZhp36GEJUn0J1tiEImGieIgSFXMvBZUQLzbhl8A6aH//mjeCTzo7IHCkqGTuGbBSWrLRgVJWysxyua8D1PEh8cujkT++b4TfZATcXGll6BTogE6YZeRqAq8JIO6oAJT0QllesQAdnRAXOPFZO7StOg7g5ZmZ6beo30SjdgCeDl5dTTbq5HX6JqGk4bUZdmlTX37r5QmMjBBvMZ7EnTrGXx5kXnfHGh4KBVJW16dla+C84xWSnh+cuddsgk0mgyIHlct/ec70V4EFzK5yXagD8xn/Iw2mPbn/ybSCmOgIiBiml9TDYTZ3SiBwbo96sbKsKiAaq+o1MdkrF0pDcBiuHG1AGNzv9S4mFb8uBfXLrfYXcIALn/ER7/HRTDm+kweesTI1YWI8xtvRKeK/tORS8pRv8X0jQX2ASB4AJbDKAME6krN7NSakm+J3RqPrbBzdB1AdirrxAARusXK8v2XxBflx1YFfGfWs9BBP6BRgeu5+n+RXdPY8jgnMCu7jcdfO+NOFuAbIqHQ+z/NBXLslAOetL781LGcHzg1t8GXMaLzYgct7HyNYySppFBaV86u8xp5dxbrKpZ1/Srruemk5BLIwnwzUA2I4RggEzRXRMGNJ9/Sm7iFCIQjPCUd8QrW8zIQQS1mM8xxgXde9i02XsmxEoQs0RcSOb46l6PiGr8AIiBSdS8maAafn4lHmH//xH88NwMxossQFzrLSFH2jpF4sJF2QFhjJUp5cS3KXnw5B/jpfz9xjAZF70qu3/DxTT/UzNJKPNtQ4Vl70SjokPhfec/oCoECszUXnkmHeYx2B07FPT8FIUJzinz2D/DOXmxNJ0eb5ufkc477xTW9qb3nbn8joGxpzmoVKs6xuClw7CnGRlVZJx3UVVKMBIOto4btGYRgGYQImAhjGUSag5FogU/7OPScUDaz4mOyZezoTwqv+ppSu39uu64suCmnruQR7sajA2cmys1iUUii+IPfxkhWinPirszNs8C6QolJiPDa2N/wgP/fl5VmBfSN8Fk9eQESOynUETHKjH/QBWIsKTMi5Z6xdlUs/5Ed/BNfulz6x9lx48fFFZ+S5dihX+Z6Lr+3VjmeUX+j9aA7xggZQeCpWBH+YKvfiPP7LGUDl7UOQbmvMl3eWM2hjlnPgI3dWENR7x6hYlgSUKz3LmfeDCpgZX2/a9Rx+koFgMKEY65qguR6lRPWM4Amqqkt4FAZTnetdMZoAxENdo7tdy+UhreuLTerxjML9PJH24k2BkDIKeIFX5c65ZxJEHK8yzFYa0+vJWRtWDVCQ/IDoX//rf506AsTy4tnID3+VV3J6JpIXWbFWztWj6iwfZaqr+xXfuWfqSv46kPUyLTkL0otHp6T3TFDfMgb0nPsub/G0QxvEAe6no2ojK3j2FchT6SwXumc+xE5dyEuWs9PvznLafS8s51u/P59vEJwUO2NHjB4w8xwB4yAEQPN6raLiRLqeO5zvPOM5ZqkYUJZAVAeD3PPMtVDKgUpIejZxnYtLYJhdylH5icdVcS3OxaZLBc4+VfnFFwFPjc24c4IFCSZOWEo8wys6IC6LY+xvTGp8ynIar+E90jnivbjKUs75qOSoDGldK5PsyZVMK6+qLxJXOp1CzcaTebURoOTjuvKXR+XV1x95uadMYFWGzlxcz+SN1renf63U9C57UVYH4u5uZYy8sExP3qqaecQ1qzsf+rnm1r61+33ODYETJTj7oFwHzm4jrwBmhkFlsoSKB5h1DpyAF2fReIzB/GKGKvWZgtGOde6Z3q2uCQbDBQ2vawJwXcIu4V9s6oSBHxeflIsPCB+0H5/NeJqVNENppRbrxUoaQiDPuXeCCSKABM5yC/ETn8mizskDPZu2SiN+pS2QAZh78q82qLtzukKWQFTpXVfHIG7f6nrmvII04uJHlSM+nZLefVRlFlUd64iy/DhGsji637W9YvgpzO5icF/8uNfdDiysWc4C5xsDnG/LuB0CnpHkLAwsX35hsu4YIZp7Ng4rCYhlLfPe4DqCSqmghmOSUJVWUcxxRMXQYn4FVMeusZ2Ai7FI/n03uc/oy4XwTdsR/gj46R5Amuyx8MNqLXG9VrHq6td//dfzvaKPrr37q3eQxpnmCCiuvEoGBQL3HDdK6iEPdSIf6auTrno7Aq148i6dUGZ1EEhacSsfwbM6L6r8lFN1lRdLXOVUncTt16NPZ/Ps8AEDXZCn0aUj/tRxcL5mpNad9+MEbQCcSKX0C12wpkDwq2LLkY9zs0654ECcgYvbrQji5nYWNWd8HcM/t4QPEzGomKz3wizX7lfj67wYV24LtwTDPO/HLyURp8rA6BIaWs/oEsL6+0XP9KzydBTEK4XpU8VDFbevWJtN+IBfOihtL97VPWVzC7mnXlXUj/j4MWNra62lBVLPWFLxdX7GcBSZnFgb99eDpI7FszqvZ3VfHiUv9SIrR/mpc6WpTrfKcl+nK734SHzPyi31TNpqf+UlFB/k65m40lY7qvw+SYfkI4jX5emhwV+kDd3uJod4h7ASwTHurQUYESfihgbIMeMLZ7eS3RA4o9Co6MSE3xucjMsuM782trhA2Jijt+RaRFjWE2qIeBgaYbB8r879SrY8CULj6oiJmITpGl4MJTzPEAZ5hqmYW8xG4tcEk+Cc8hjsy6cEgqSXT6V13RdOkbJLUO67LnLtWV+5nLtf46OK43k9UxdxtVUH434/382kfrl4qC7K1R7AtJj8H//jf9z+7t/9uxmso2UhubLSmigCxuoIK6/ivTy1tc8Hz52LUzIsmRb/iw/iyUM69UKuxRMqT/nIw9xByVEeynWs9J6VPlVb5YGkcV11kGeVoX3SmlAUR9qqnyBP95VVgK7jaliolaWo48hEmxqfzlVzuW9t4MGvi/lt2+XAgxDca0t5jPxHbRoQ6Z0DNcNlQnUA0I1tKi3zZFL49JFudtaSvZk2NW13vdE2d2a+HT92oi0v6VGC0VGpcDwiN0wbpAvzvfYxadwTNFQZxXRkYoGwSwDFIMzBCPVBGOW6nmuG/NwXx7OK5znyXHzloQKocoRkdOQjiFeWvD+Z5J5z5Oi5fATn7lV6144Ccl31FJyrizriQynlZlKVr6ziHV7iL+sneGbWVtv6/HJfm8WVVhs9V8fijUCxWdbiZ6XDN+fKl177alyHij8lq8rPtft9XkpHN+q+ePIrMDrXCTvHU0d1cb/qJFQ5SNulL92T3jP3tFN8aatc94o/7muv+4vzCzFaC+se9V6KZ4vLwaOA3NbtO9rO6Nh82zwXeR47fqydOtltrSLuBHnAQVRrMep880tf1t70Hd/RvncwIXTWRDwjRVErXk8stSt2bW033XRdu+GGq9uO7Wa7rLzwMpfrEUKIksajzA6IFC16w8FYEzCBNNqVwtJAFdVAAtFYx2IuKqCJK56ACKiEJ8hHoDTi1nP3PCckeblX56gEoIy6X2Woh/TuVd3qmaP7gvtVPqr6VPyqg2tHwX3lEnbV2flmUpWh/OKFe9VW94DKu0Ln7hdfkDZX3aVzrRPpt8mxgCCgulfAKD7xZFwXLwUAEV9A4vXz6fPKeb8ddV8+qOTlniAvZeFrdYL9PNVHfupQRsK1Z1UPeUsHsJ65X+1yLTiPXAOYoeP0f8La2jBqNig4czws4ELbt3tbu/VlL8rdKrdvDW9jIvRuJOS9ajgWwVhzJHSDenUqtjFwsnwT0f7du7a166+7qu3YNt0W5k+2Qwcfb4cPPRG9wdEQxlw0vCsIEIEQqAuU3cA3zqMa+UOhfvglmKBH1HgKWi6eeyWAUgBMRpjhnmvnJQxx5ePcc8rhuphcghUKhJ4LSH7iIPGFEqhn6qcM+YonlBAR4VWdhaqXozLdc13PpfeM8PXMnlVdNpOqHEf1qDLwQLvUXx0oZykgUkeEB0ge5HKu9stTHv37jqjPf/GcV6gy1qereriueHhUVOnE85xslOO67qmPgNQZSSdUm5WhvLpWv4rrWr6lZ+5XndxzdC1NvrcPQPqJEduPBMejDtFBLZxuRw/vb4cPPNbOnDzSZqdG2guuv6rtDRxNhyEbCayMDDb14mGGpmQIbkdlA7xZk2egYFeMIxfb9ORYu+nGa9tLXnRjIH65HT74ZDt+9HDbMjMVFnRLVORMO33qeB6BtANiV0hnRUMAKhFpfTFev3+vcY4lBC6GxgsIsymI5xSk4mOco3ueUTbn1fsh+ekVEcWSF0H0lbXiImMwQpBOnlVmkWdVl0ovrjjO3VdvxxJmpRev6l4K67p64QqbScUfZSvTtXoJRaWY4mibONrgXsXTabrnOWtT9/tyQtVmaeWLn9pY/JGP/AtE4hvjIW0Xzz1leF71kEfxxrFkWPWQZ7Wxz29lykcaZa/nNd1wpBvKlF6QX+VZ+dUz1/KsOAJLNzUdbn5U8czcmWiTbT5PhkEbadtiCDhhV74TR9qxQ0+2l77ohnZVWM8p/cZK1C2Mls0oRwLM/i0NhnzovGPO8Ui5MHcirOVU++IvflX72q/9mrZ9+9YY6EYvs4TJS+3DH/5Y+53ffV975GEfTGv0tvzSO210FoyBFDV6iQBp8DpujK0JXRU0uHpmL8S5WoQChI7ilAAcEeZ7hjBZHKGA67n85VuCUQ6lMb7wTF7illK4L55OQm/tWAISzzNx3Fd2KY98+z2t5+L1BSqe9JRCuRTTM/n2AbCZJO9SLOULyq42qmvxyuog5QuupfGKhTy0jUy87/QBgrrKo9peQNE2ceVhHGsyybV2OnpHKr7VNwK3mmzUxf2qm7j0j+wsqUPuK1e98N1klfjK0Qb8dlSWemkDUidplEXG8hGQfIRKpy7KcE1PSlfUVZrqnMhLntLk/EnghNU8c+pkO3P6RJscH22v+eIvaq//6q8Mo3ZDuLEmQG2+PdXe/du/3T74Bx9qjz/5ZODB5Gjo6Nxie8nLXt6+443f2d721rdn3TawtjYaNzU2MMPL7QVR0C233txe/OIXtl07d7Rjx462j3z4I+2uu+5ux44eixyY/QBCLl7A6EgHnCwwEx64sp3DJPDGhZfa1XtqLCGVcmB8Nj4CIWGOc3EwDSMJ1DNp1Ncz6ZwjzwhKOuSZNPIXt3ppigCMhNLvkUsYSPmlvOpaQpSXIJ6jZ/Kre+Iro0DpWtmIElb+n09Srro6KrPaSfG867SHju8oPbc8T1t9W+tbSxup+b7TInj78GiLOEAhnnbV73XKE68BxydaiAyKLxY+kFvJVXlWKVls7wMInwa6lrd0Pk/zzakOQhxHnYgyra8WR7mu5VeyVq9OfzuPTDx18vmZz+C0w3vekqG47tGBsvgWZVgY4Fx6bZOfNOJXG8L85R5ArNzSonHmqTZ3+mTgY1t4mi9oL37hje0lL7ypvfDG69v8mdPtvnvuag8+9GA7cTz4FzyBlcXgz+69+9rLb72t2+Ar/m0AnIEmfnRYyZHoITBIn3MsetH9B/a3A/sPtHvuua/df/+D0Sjb4E8Hsyz9ikZHzFyBH+gETn41RuXnZasd8AgMUzCM4ORPcQlJb4UhmOELCQIgZMKtuBhICVz7QgGjKb906l+KIw0GK4+SuacMwhBXr0ppUSmxYDlbbSqlLJaA8Arg8qslcNITpOC8AKgdlsRpr7I8V652y5OSyEt8wt9M0oZUoCDtQuqsHniCD0Dop+a11SIEOqBeb33rW/M7TnxSR6uH8FgdxbFQHH/xX3plAYzndk+0PpeltP5We63ZtWsiwEnr/SrZ2iOq4tMDywjFV2989f2l73YFeagbfrHiAOdbUN+aIt97Im0U1EVcbfftpxVRvh/Fe8fSNzKtn6IgH5bRyinXDAjrTebqK1/5uVbHfMUY93ynbKf3/L1OWNm1s+0OAxax2/zpUzHsO9H2By8+/rGPtQcffDis5Xy4w7NtdHwyvNCVdsWefe1lL7+13f6KVwbeNwTOAFYAc3U53LYQ5pX79qaSHwghHD50OM7ngsmPt4cfejRAsRhx/JrwljTV3XrcQa8defvAOpUv7lvA4KaeyYeujnrE6oEBCONZLoKyZ6r6uMZQOyMAyitf+coUGPBSLoJXP2DDZHHExWxCUkb9EA9F8ImROtlQyjHrF4Tp0vjhHsIHfmkpgfy5eCy+ullhY9tO55TOChoCVF/5U3AKh7fqz1qxBoRP8QEfWOprjM0ifE/5hdJUu4ooJF7hvd0E8MPaUsMabcN/25UAMIW3ppY10x48BQz31ZfMbF9Jia0gUhYe468P5bWbVSQHHQG+eo+qI5A/2SpPPeUhP4AHCB0tMJIvPspbuZYSAlRteakDFd/nYaW3FeiBo7J5AGSj/soAfs/J37UOQPvIWt70SJvIBsmbHiH1TR4rL6wf0S2HHJcZslBu4Lxi5/bAT3T+Rw61Y0cOh1U9E5bz3ujEDiYgJ6fC4q+GR7a4HODc226+5bbQ6TvamHyzlHOQQjPEufW1k2ERhYlBGBuzKIAFDOGvGAeG7z42lRscjY3GeCSuA/vd83ypqqiIJ9hdIRqmcb5Mt1cp5dcrESiF0VsCBaF4RrB6Vj0eQegBuWP2etG7AbLxESWpL92BByMxWZCvfKRDLJo8y2oQUrmg0gGbr/MByZcZyiBg+VCYykMduIQsAGFTfAAmYHX57u/+7iy3rIH7lEA+FJHC6GCABU/WU90rmWyUpBPKilRQB51BuYx4DhTvec97UhFrVz5WUUfzK7/yK7lqyE6HLKM2qrdOhvJSfG1TNzws5XVUPrnin44UX/BMpwQE6iMf+VqNZFWSOnjO+/DRs+WDthBhhd/73ve2n/u5n8sjjwWo8U6nIT7wAHy/fKTNnpFN/RaM9rpHx8TVTgBnYbny6m0nQh2TdpVnRUe01bU4S4vG3cbyhjrmaWLYsBJDsOUYXsW5e+Fkt/m56CTiOD3lZzO3JlbEsXulBT0WLViYMMZbDRpVeRXv01MUIM4tKog+Ixo9k4VGkREmcj+UUyeND40jp9u2rTsz2LgoC0qAGmwDJ8Uws9e5tHimHAzWSK7P7/7u76ZwfuM3fiN7QIJjUYER8/S+gCWNr/alEX7zN3+z/YN/8A/aj/7oj6aQCUs6RHH0sKwxqwfohP33//7fb3/v7/29FDLhsGJlvSiQ8vAFf5Qlja0iKSPFocDyLGvK2lA2ddUeeVAY9XWUD6WRr6D3twPcL/7iL6ZFkkZ7dQzIOf5UfOfuVTgXKaMf1J9SUSBKSamQa21lKXRi2oz3P/IjP5J8B1oAxDf89IySWk1kpwr5iANkpfTVsaknUCsfD9wDPjxQrvYar+IbV1+9xHWuI/uBH/iB7BjszoBH4joCJj6UzJ27Ry6sPVCVVVMHsikw4Rc9UB9105m+7W1vy90G1d/yRJ0TGWqjdotnpZRdOeRZsiMfectTvd3z5iG0udP50O+J8ZkEIKwsLoQslskreB7nx46eDkGZzTZJxqpH5zlqsrK3Md6AntZyniVKwUW1E9vx9rGP3xkN+J32v/7X/2m/+qu/3n7rt6K3vfvTwWSvIIBPAQCoQrLvgNkdu+vcmzMYiJmYASCE/f3f//3pDmk0twPj9Lasni0rKBRwsXJmDEv4jpirlyUkgiAY+WOqdJhNSZzLG8gImYArX9bPBIixB+UBGvVkXexGbmc6SsQF4qoBI8vLHdRBsDLqBqzKt4D8Z37mZ7KHJkTlqA+XjkLZWgV4gd19gtd2pNz+sYAmD0G8CkXaLfRBLIjviB/i45ny1FF8vNAB4aPyeAiGDtJQXO1zX1zpxSseu0+ZneOxsii5uuIPRQZ0fAJm/NEp6Dy1XV20u9+2Ksd9dZaP9ruv3oLnPCPyFshKWuVVWnlWfR2rvjojnY72sfjyk79rHpF6CjptZaujTkT58kclT/lKb17FslRbYhrW8S6PHj0RQ8Q727sTL7+R4b3v/UAMGR8Mnp8OZE2kZbXxV/c9KIycNYzQcn6KhH47cC7M8oGDR0O59reHH3miPfJoKPeTB9up0/NtZnZbVNyL4g6AQN0VdLawOtdITBec10bCvhHUeGO4IqBhKfVi/397dxqrWXLWCT4yb968udaSWZm12i7b5arKylppoIdWN6Jb6tHM8GHaLpu2sfHKJrxgAQJZCJAQAokdsyNssFmEyh/4gMSHWZh2N900jI1XMHbZtbh215ZVud0tM+f5xXn/eU+9vpX3TfpSWePuJzPuOSdOxBNPPPFsESfOeQmJgSXMhCbWEtMxFkMtXGAaZhoIA+QecA54C1ZcPe2FDkolzCY4Bg2om4EwqDzIRz/60S6APHnmygZVMn/kPbVNYCgxy6++9rTDEOkDGnx5UDnt8caDJR6SgQdwAddJQH7ujSFl3NMeXPohyccH+Y7uOXfPUR/wnBFyH5/11T3KJzzFr/BSvvvm0uqJQCS8ND4Ul3KaelgAkhhE/RXhEH7CrazvyYqaeCtjiUfmp8bSNVA2SkZpKJU+uDaW4R1+SyCKrQxcxkM0wGiim3wxRvmZfTSihbcX3qJDn+EN/zIGwEscW1xW3lzpii/u7d69t4eoR5451h565In2QOnMQ48+2e657+H25NPH2uqp4nkpsDJFXuGuKM1HqOti8phzFuUcFKyabTbrrqwUcYmNtxWTHGv+uWtXxdBFlBVa6TlKejYNgEkRnCgb62YRCsMNLCZSRoOBKRSXdzSoBkdZjDV45prme75ritEGP5YRGDRlDQov4Ut/5nwWccydCBAhNLew0KC+PLjhcO2DUBTTXMUiB7oIIwXlMdHLkqMNzhgNfSQcQB39IwjmNYTBIGsLP5TX1yjNWMHWS+Fj0jREgBxT3nkSY4MvPCVFseCSOTxFpDCiBPSY6ws39Vk/KCS64TEuFEpkYh4tAZGBMvDjjZ9y8OYL4yZ6MS54gQaREb76fi3FUJ5CGgM8o2iUJtFMeGB8lEVPvCW8EjoZQDiMhzKMpbZECr7m5xoeBpt3V0dU48vwQmo8YXzhgVsCMWag89fzwooIB0NQCrrD3vOah5dnbBVRbp3f2eYX9rSTy2VMKqzdWorpR6UtBnlxxOKoETRpzPncT/zET/TV2gwuYjFpvFpbrOipLrq+namifnyl/whLEXIKcZNHJ+LuATXQSglYPxLQSnVkHU6dHjYICG0whcdhrXk+TBEmAoprUCwW8CwGk9CwsM4Jkro8GKtH4AiAuRNGscwUgdLJIwgWYAgbL8kTWCDw7qLBImQEh7FIXUot9Dbf4uUpEbosRrCu5sm+p4pugsgzCmm1TzDQpzxrbS7lPmUIHQSCcUAf+vF9WuH6OEzyptP0PZBzggMIk3M0ySfw+iF0E7Y7ElCLcEJPxgEvbEYxJuaDjJ+ylIGhwjd8gpOB0ldjJE9fTVmMMaWl5ObYvqynj3AwlIwouhjAfPWPYaAE+coi/MowgAxo5pzoxyttUDy8ZSiMiXHVLpoclddvBl85MsXQy9MGWvSf7Ft8siiFBnXJgzKutTetmJJ8m2xO9w/TDtFIH5dKfguF47Iy6+XrLXVdmtn30K0WXf1TseUur7jy8nbzLYfbHbff3DVoS3W8cA+WFbAa5klrO4Tsnt9e7tp8UgixUghN/KvOXKGoxlaWhUlZ/OGtOmoqWeDvoJTlvPvRnJPKRvkpp0HHCANCsCkBr8QrYiDlwDyeFqOFwQSechMeA2iw5FNEgx/BoIQGH264eM6s0HlsxMJjfPigTBjOw1JoAwSHeyw6w6B9+NFLyCgzry+MQ4cBh4NySjwC4TC4WdxCB4HlMQhMBj40dA6O6AIR1lyPj0lAGWUldOQaLgpEcEUcHpnwmHigLhoI56//+q+3P/3TP21vetOb+iYFfXM/q6q8D1wA7cYHTh5MO8YgY+PcPWPCmwLyZQxiOLTvGq2Oro0pZcVLCseoSOhwTxk0KC9pg4c3NvC7L+ExmcJ/fVeHIVUn/OGd3etyX9f6EWPjHJ3aVMc1GpRz7PSvUM7B+NloM1dtuHav+6caFh62K2P/N+TZC+BLlDfceEN7zZ2v6WsvfbyLsKr7/MrZP1PSV2hrzrJNmWJaKSeFK+XvjfkgLndqdbZsdD+vJisBiomMQTFdFy8Kat5ZA4XRGKotoNOYoYNo6kTWOatpYDEHUBh0qydfGUyDT74UxsMfZsMDB+VwzooTFgIgaTuDpb6yroE2QGjh8bSDFuBcHjzaIpDqu3ZPHpz6lJALTsKDbvdcS8qPIfnnguk6AfQTrODNtTZFKxbceEZRiL6JnoTxZIDHICyvfvWre1lGR5TBa+Jb+M9zOcILv3ZcA/3TNk+FV9p1T92MR8YKb/A+fZEnyaM84YMEh3sZczwFFIoBhSv3KLe2lVfOPWMNb8ZaWffSB+2hjxJrTxn3gHtrdcthrTAYpJ68mt8bW0YnuoD3E8fU+0amGFhRkR1Mx9r111/XXvOaV7c3v+Wt3dvOFNZCzD1DcqYrWjG/630lBHWqBgI65FTZkcfM0QNbq1tLS8NjA4NnoCUCjPjQgwnxghjmfhjj6DrCTZAMdOpHWAwKxgL56hgsAqV/hEYba/1dE2iDE5qCzzV8aR/OtIsOeXAFh3x4XMtXPsKQcAmkz8qDXDtK43x0Tt8fn0/nqauOhA70ohPPeRN04IfowCIVL8976jP+EGThPbkQfrpGd/ia/kv6qN8EHY+06TyKoqy83JPko1M91/CiE7iGM7x2DdQJpD118NqYG2N9y0que+rqk7raUA+4l0UndIZHyjgCeVJoDJ0U08sg8xVJ8oIdeMg6eL/TuXDW1PKUXXJ2ug9qVRrE01qJtxZxabv5phu6sVRn6OUG0Bss5N5X84vW3RhUzTOFlJJu6eFtnbmmhFInzTmFlEoApSYMqVP4anAxSsJYllQK88NwzHE+ZopzHimWW0rYBDLY6krOgfvqwRHcju5n8OEGGZjgNMDylEm5KHSulQ398DpHi3wpypn2CX5wpN5Y6NKWPIKBZ+gggITIeZRkul4A/ghW8p1rLzTjiXvoEVWYd1p1RiNl9Q0hc0gC7FGTEFfZ0JN+ScEbXqVfyoUP8tCrnHzlnAM43VMfyJenDedpJ32SL6U9AKcUvgF1tZt76oAxndpJeXlkKu24Dl2hf6CxaCjSt80VT7vsl2EpOacrq5VWHEtPhlTjSzmLljNFqjLDnvPCWXXnttIZOMqY1t8NoWjoE9fl6tDyclmguq6uFLGqVwvVyum+DKwwouXX/a7Bk1Sh8fC806BVZwufgScUgGJIYYwBdI6JERyQI6ZEIFJXOINh8jFPXkIX+AxOcBIseAm40NYijTLuAbSxvmN8GWjnILSiwbljBAxeYLDRAS+cztGegZUHn3rpj+uk4IYnQiGBlHWETxnthC4gXxuhHSiPPnUpokcf3/u939ve/e539xD2LW95S/u+7/u+9va3v73Pn3keCzqiCyvc8ll3ghua4B73QXv6Ks812mI8E0WYr7s37lf6gGaGV3245AVX+pB2AByiAOUyXiBjr6y8tAeCWz4jbFErdCbkBvqhXGRIG5Ky8O20P9aU7kyF46fXNiOYEva1mImenEF6lZfUc0R+D31LR9QZdMV1156NQfc9YN2xUIpUlYZJL4HicQphnfdjIe8f+erEsUqIZfUMjnyNK1fN9jrDs0ADhRlRVBCmSQQJQzMQjq7lq2sgMZfwYCTARGm1GBiFSALqYnDaibCCtGWuAVIGPpBz9GvftTrO5eWeFOFwREfygWPqawOtwHkEDF71JAbFYofthjZL+FVnP5Xu2soxoSJQyoZmKTwC+oweeXhudVb9PP5JCGgV2YYQ2w6zqBMcAK3hn3oZI+25Tj5QV1JHGXiUy/gZO/nwyUefPijvPlz65uhaWQl+ST1l4XEM/4FzSXnH0ETW4ALwao9xd19ZeegA8KJLO2kXhJ6VlaJ9qWRytXh9igMg78V/O+RKzv06X+9bnaurLXvSV6ve8K0h41wycLrKNyE0/CVjs8w5eUUN+npBnVUjNL6YvUJoqtH65zc8EcNr0vmurGeUMw/RwCDU1FbDzs/irw5mINDR34SpcmGSMiDMDK25dlQuzHcdXBgboRpwD4oAnGcgtSU5l5TJuQTkhaYxuC8fwJnycCs7Lh98yc89eepO0+S+VWC/oWmDOEXi6Tx/o5BWs+2isnHDoyR99TghRg8uwgAIm0RQeBle015hK7WiBO/x+v0TK5vapqCeG3t04TERJUUHI+Gxko3riUzQG6WndM7hkPQJXcoor4w6GSt9DN/GacwfNIPIDLzyMs7ytekeWUq703lpCx3uqScv+N1L23BLIHS4lzI5twlh+Ope0TZX7dmmWoq44uteBXP6Ol/3SizQsa1i4L5/Fs5Kfi7wdJXdd+n+duMNh9rt/+zrNVRaMgNYEvZWt5i4bH01sNQnwaUW/VspHqssLXoHzpvd1cEumxhrTop58mQWMVXWb6WEUelkrzG59ux0zBgMCEMCnSkTIQbqhqFjGOeN8chPHjzKoCngXJKfsmDcHsi14/gc3pyPIeWm80HqaTOJYlI8ikmRPM/1GCePlSTnnu0px5tSYI9u0nfHtOmcgGiHksFPQD0/tPHb3NIDeHtgbfywY8iLCQwAPlG80Br8gbQDN2GHV5KnHH46z7ilrnoB5xIckrLB41q9JJByAH7n8CafYUJLlDS4x7LjnBEH8pQJDkbFfedp173QDpxTQIs9PkJAvn1cwNspZUba/Nbiy+mVtnj82dLORRO7tq3y5koX6BN9QUr1vK7WeDGDcuoMJCWopzRWCrlta9u1c3u7eM/u/okSCkoxOzEa7FgHxVRfw0OeS7iGY7yljk8zH4Mc5SnjPAzNvQx8ksGBMwMgz8AYIHlhunzgXBqXB465Tj3J9TilrKT8uE7wgvG9QOqMBz71Yhjco3y8lWeivBuFscmC5+LReEDPYG2gEO14XmyzgGfHQkH9T1gGJ15oK/zWpjI8rTmX57VWaW0isKPHtVDaXNMiUcJ/wg7UTT+dAwI97jvQtr5pV7/S1/DBdfKm7zlqT/60zIR/8rSvHeUiK/KkeEngPp7knnJoDh3AORwSSL6yY+g0lUJuqXI241g0lSf6oye+gLBz+1zbtVDH+eLbXOHxKLJ0aa6c3bYq5zNA/Wca0FzzVJt0wIbKiZRTqyXgJ4/3tGvHfLvq8gPtJVdd0S7bf0nbYZdQKeTC9rJuwl6NUEgWoM7rT1fM3qkq5x8rY3cRhmI2wIwwZ+jcmnXDwAyIa+cGIZA604xznTqpl8GQ4IgyZyBSx+BF+YM/OCWQfEkdENrGx+Ac43KuPfnTdeU7osGKKY8oDOPR3v/+97df/MVf7K9w2W/s4b8NDLYVemvGRgvhKGXmUSOY2nMOb4SUYpuna58RECbzuOZeDIGNH5TUfaG09yYt4rgOvwCcAP3h53rz35TPXJNCAPQoE16B0CrPOTzqOcqHT3JfCl+jvM7BmE6QdgD60s64Hnok19pTJvfRl3SWBvrmT80fybb2tlfoumNhWynn1ranHNlVB/e1G191bbt07862tRTz9Mpi96rb5ixo1vyzFNxXEeZqrFZsXCj6NlROAAGlvPSSPe26l7+0veLaa/qHvXzk6/Of+7v2pS9+vh199kgPdSlylLKzh05iOJ5P0mqVWVwcFhCATmcgwuQxjAcPM8ZWO4wCBCITfQOJobGYzrXhPEx1L/cziJL6WfkD8lIPuB9atT2m2XXKO07XCSiPnnG/gfr6QSjU9egCjbykjdo8p505lObP/uzPel37XZV17Z1Lz/aEvkJW/Y4QoofCO8pTznNNzwPheM973tNfo7PYpF1bCu+6666+rRA+O63saMJbygvgQztFQzc63M/YxiMxLtoMH9VBu3Kuc442ybWy+q6sfljAyio7PkVxlIVDWcbDMcqkbFZexzxwDy6LftoROagDb8Y05fUBTvmhM+2677M8xwu/0V0txTp2/GjN0R9rjz36cHv4gXvbk195uM2dWWnXXnNFu+by/e2i3YVvayl65Q1TRWNfSbt4U0cwg3KWAJaysQD7L9nbLt67qx195qn28IP3tyNPPdH27tnZrjh4Wduz20ouoj1oLjILv7lob6cnAjxYBEmnMDKM1lEJk5OShzmYZTBcYybAcPmuJcwNQw2Iehgp3/0IJjzygLaVIVDqOgfKSeqhBWhbexEECagjTd93TN+0514gedoc35OPPvXQjwZ58OEVetzTFzt2Ioz663GQa7jQo1xwhhbgvnIUhpLb80pBPTbxiERobLFIHRsOzEWFzXgUPmoz+ByNBRzajTLIR7+y+qJu+IqGCPi4/46SurnnmLJo4O3HxkFCqzLy1c24hcfB61qZKKtj5Aid2mCYjQGalR3TBze8rjPu/U7lC0kd3RNFXnLxnrZ710JFnEfbg/d9sd3z+b9vL7v68vaSK2vcdlXUUOGs70EvLEw+1Vq4fB1hrkJhOjPDam0RU0q3uzznNVf74NGrKuzZW1b5ohrMa9qNNwyvVx058kwx7UR3mlafdKCrYqEd5ptlKQtPx7fFAA0DhUEYoUNo0Fl5vUblScphmgRCK3AeRmUggPZBlA6OTlPhUC5MzjUcuQb6DkKPpFwfjAldElAn7YHkp+x6kHx0jBM82nKfsAhNPebgBYH9peZ+Vma9LMyTeQZpQcd+UvNNXo63s2fYM1zKkr6lf7yc/tgVxCsrRxCNBRkw77TqC3hYKUbD0buzZITHwSu06i8+E2q4M77adN+1/ED6mHpodC7B6Tjmrbz0QXn9cq4NZYFr4D5aM2bj8XEuad895Si4c7TDoZ4yztGYsvKUzfg52ivbt+rVdT7uVc23l15zVTt0/SsrnH1le/nLXtKuqangda98eTtexuUp/D5RhmRrOYDSl+WVU+2Sffv7Z0q+7o5buz+bSTmtNC1s29IOHthX85Jb2s2HD7Vbbrm5+RXeq6++qjf0pS/d0448/UwhHYj31grCM9+sLlRHB+X0zHR4/rP2SUnznFj95GFKr1t5rjM4mGRgGAXXkvtClDBXCiPD5DAXnnjsDJ62I7Appw4w0PDC5aje+B586HGOVvXH7cnPPfmOoWPcRym43Sd0rimmVVpzSY9OeDZvy3izhXLYD23u6VUtCzc2eNvNQ4HginClbTjR44iH6FDH2xqUnGLCx7ChgyehwLbvUWKhMOVXhteB31yVUYBTHrwJt+HBV+U8jrGyjJeZ7wJeGw6rw17RktCLB0JsBorx4dEd89IBoyECgC9vNaFX3fAyfZbcZ9C0BZdHRQwg2tHjHlnULrq1yyDCox1jqq0xFPbS+Lmad1aZ48eq/aNlJVbbtS+9sn3TP/+G9s3/8pvaN33917Ubrr+uXbR3d3voweGtmKNlDCkmBT25vNL2X3aw3XTLre32226ZXTlr9lptDY9ObM699dZbqhOvKObsbk8++VT7xCc/1e75kh0kfsi0wp4efpVAdLcJeSUhbaUoZ/GrOr/cGUzgbLq2KGFQMUCIhpFoMNgGD5PcwzjXmIqBFM3CiQUNAmwwKDhlI9SUVsgFjzx4DD6AT5toIATqZRDwRJ6BdN9Rm6GRwBkotBIq5/LhMJiEkWJl47R8dfRJHjrko1d+DEM8HXrRLREa/CCABEp9fbdy6/UtZX1XCW6PQSinlVY0BT+c7rvmJeGw2KQeRfLc0qt6lFMZCqwOg4R2CmzDu1fJvPmjffeUgQP/0eGe8bFBQh95YHXx3sqzRzPGTDv6pl8Wm3yJwhtDQmsJXnS670sU5ryeyToaD30RduOhaILBIgcWxSha+uC+/hsP9UQcHksxZJ4Xq2Oc0OkFAAoJKPnb3va2Pr7osP+YbADjC9DoA1/Wg6qh0pPl/lhxefF4f5px+ND17dabb2rXl/f0s/KLiyf7c+T7vvxAO164tu/Y1ZYrlF1cXm0HLr+y3XyLbyId7vPNGcPaCkUqPjan3HvR3gqFnm5fuPsL7R8+/w/FnEfalx94qKzuQ901+9SfD+d2i1DesfzBsExc6HWk25nuNX0KcqkzyRsPmEQADQ7ls3OFZzCIBvu9731vZz5LSShsNSNcmC7ft2fg4D0oKBwG47u+67s6c+Fg8Qm+D1r55AhFkLwW9q53vas/aOcdDOzQ9+G1Irg9P/RIwSqo8mgQThJGzyC1QxB5H8KhHf3RN481PKZQXj3ty7/zzjv7vlUCit6AtgmD9gmBMaEUlIcAScbIh668JUKw7HXVxoc+9KGusAQJDcYVjrGQUjT9pugUxUfR9I1CKEOp8YpwR7nx0lg41+cIO1rRTukoOGUhfIyY18yEzfqIHsbtHe94Rw/JtYNP7ilLDhhMi1AWthhVfUI7L60N7eOdvgjZbc6nQAyM194oFv66R4nQpz4ac5QHHD27VR69DA5aGFn52ic3voSAx5ki4DXeoR8veirv4y0SG3JWlhe7gnqBy9OMnTu2t6effLzdd8+X2gM1jjzmpz/z2fbYV54oV7elv+NZatPnmvsP1BTm0E3tlptvKQdW+tIp3RCEQeURa7B18kgpCI957FhNyotI1nPOrodi2jbWtk8yhbJi8o6gd2bYiJBl8iKmOk8BWUYrkHaneCygLOGEl0VkhTFLKCMkYukMNCHlcSXh2E/91E+1D3zgA53hBIXwsdYYSNDhJVSOwhiWnhUlLFZCtW0AMF/72RVDQFl5P4/3W7/1Wx0fJY3FZVDgQ6dQiVIQdN6ApUcrwaCEaGL51VFWfcYAT7QT4UE3YcQDdSkL+j7ykY+03/iN32i/93u/118KVl4bjJJyPJQ8dTvPq9/o1SdHZeCGN/edJ0LwpcDv//7v70dGjiLjhfAZ/a7hD19jyISC2sBf18qNDY42KJZ8vHQ0bvoc46Eunusr5VLGWLq2KOU1NgaOMokM8IPyU3yGSXntJKEzRkk/4WI8PYJiABg7tMBL+dyHl6IaJ4rpWa8VcvQkYtLn9FM7QB/m521xHU99ujutsqfa0dKVJ+zdLbm3yYaDogN9r3rV7S9lV6I7glUwk3LaL7tlzoDvbfPb7X+dK60vq17J8x3vc/rUgkYTQyNqstO3/lGMamrS6KDIw1yGp3LEDAplwCldNlqzppQozFCGoqpjUCiEfAy38miHCyXP+4aENIOPaY7yncPrawSMhPqstnZYT4JJceBWH1A6QmmQDLajco7mdwaEt9RmvA+hNqDKq88QUEqCrgyBAOom4QE6HCmM8JBn4OUoNc/tuSOPJ0/EgCcMgr2wPLJz7fFyQPv6HmGNIumbIyHXB22iUaTgo9JCTZ6JYuETZUqCS3ngCBcF0abrJO2pC48yvAe+MszGXXl8wFsGz1svjDDehUeMZhat0MoIGUe0i/KiuOv1z7n2JAYjmy3gFYmhx5xaPfnwG0NyIN84ohFuQHbgUh7+vmmg+jnPgVHO+YX+WiSPOvx4rj1BW9tyechFf3y8wC8e1PSO/tANi6TwcWl16DCb5+yKta15p/rpI0fbY48/2R55tELACmnv//KDZRGeKtq2lOLuKOW0AGPQCFnVreOglUnVaOFDCOZgLKYCisdTYgqmxdMQRiEQq0qwCSKGGSzMwHAWkXXDeGGQXTMGxX2DRGgGjz0oimMUjYUVvirDUxJscyiKayCU165QGy1oEwKh3+IMJeC5DZhQTFlfWGAsWGdCBof+USqCmvmLUFib6qIz9KGVYKtjvmXuI7z2Rog3SCRvjqCTgYCDsCtLsSisvmsDPn10jDJqB8gzFmhk2HgKvBSlCL29oZIvIeTbvPijD3CiG048wStrCNrliQm4fhBqyoZ/6ugXeimi+Z320aOcOsZkLPwSnO5rA79zhIuBN95o0B+gXf0MjvAgfDD2knZiRJRj7Mmfc2NkjqqvkVd06qP21RnGyzoKz7elR47u+QqfaR5duf/Bhys90h565PH25YcebcdOLJVaVITZ9+Ca1w99LYRccFdKmjKDclaDpXA1ta6Gnmof/8Sn20f/8q/a//3/fLT9X3/xH9p//E//ud13/4N9rrl378UTz7mtGhraGjAMStnj3DpnhTDPwgZGCGmFaxY2hIcEzJHAGChCR8hZdsA78a6ECAMNKA+L6ZSbArDSBAJDMdpAEVTtGgDnCWcwhgDyDhRLuEUI4SFEhMAgoptVNdfzkSrtCVEpB2FW1qKWPO0qGy+iLMXVNrp4RNdCJ3MuwDigkxASRoNMmAgRI6WP+BKhlPRdGUKivmuGRp5+R6D1EW5lBoEaVrIl+LQh2rjrrrv6vJWSoh+dPBnD8EM/9EP916/N99EewQa8Dzx4Zw2AAdUuA4sG/U4ID7SPRgqrb+jgDe2C+tEf/dH+TSahMuOkHxlHbUaBta0/8l3DE17rb/oIwtvxfQm+8BpfjHuMP9lgoI0nvpMZ3jp1AVz6PW+SWHTIXdju6xe72vETi+3vPveF9tH/9Fft//yL/9j+w1/+1/axT3y2ffnhr7RjJyuc9YZW95jlzMqDnrJRvnAIa+GZ6a0U3s8y8VLFx36ht7/X6SvXdVxaXu0N7Nq9t8rvqLL03TxnmHPCOnTGkcZO4uuyGgTCvIw3MnCAVTKYPuCFGSwrgTfnQFvmnbaWGUAWmkAIUdW1MEExDQSBwWgKZ5BN9M0VCYUFEBN9OIQuPJABZgQ8mhDm2r9KuXgh4VQ+38JIoN1qnxBQeWWVYWUpG/rhE4YSGvMk3lRbvLt7jBNeU3RWn9AZaAaHESF0+I8f+uweD4EGb5CYH1mAgUuf0PXBD36wKxa8jBthxP+xcMPjHO/whwfTT/UoiChFiE8GEtJF6dGjf+gQLegL0AZDK5Jg1LIO4HtD+oL32rT9EG8s0LnGL7jwyJipg1d4QyYoN3rQTw6MpQjKfJOBRhflojyMozHAB4ZF3yUKBfAR/RKekS1eVxSkHuPs5zf0iZEwLsYX4AF5pMDoBOiXKJXXKL2ltaXaM/ekoBaJzCttx+tqW6Hu088ebUu+NVTOjhPz9UphrR9CwovDxbc77ri9499QOc/OH0vh+usw5ovVqO//bGPZszLbFdLqbFmBuioae73uNUtfB/QVn3eVrfCqlNSjFAOHwQbcABFMH8wiyO5hKGtLEA2GgcAkCzg8J6ZhFsUkZAaIB1A+4RkchJdw6RPBIKDKEQThMUF1T4hNGAyQdllvA59wmWAYILQSFBbZDhsrh5nHuA9PFIBwEEDtUUIKReiU9eiCESEwaIxSJuRCgzFR3n39wwM0ijTwQiQhPGYgeHUKhY8EzrgSUDjV5yGcp288VxQnPIYTX/WZslBU40GIGReyYdEEf/UNnfqiXbxFG15ZsGLsjA98lAY+ioM2NOIFBdGuxRl1KQ5+uKct9/QBr9XBS3WMawwNmvEfrxgYfBKSMhK8P8U2/saG0YILDfDoE37Ah05jSS70LfjQQk6i8NGXfl5HPyM/1+eO4XelyrdryPyy60jNNc/0dRmfxayQVoRJOSqtlMKSqVvKeRgPSGf6wNewoMOLlnpNfomXovmcQiazy0tW5oqQrdu7p+2NdtfJZtRJHctx97pRXrcJIa9AiQwKBghzDQiFowCECnMwjkUliAbRYLjHYhsAncN89QkOoRF+wQP00aAQIKGogSFQBsV1HoUYDMIGN+VCA8ggwsGqa5dhIbTyQy/B0AaFEs7J106UEF3aYpC0RUgC6AfaNi7aInzwijCEWQSNkfChLfSJFtDPSPzyL//y2XC4C04Jizada9e5vqGXMfPlA7uKGI0y1F0w0aN+FDtKoC39lkfA9c+YAHiVZziUVYZyyzfGcBhbY6yO+8q6T7GUAe6hH6hDsfEA4IP62tEHdd3HM32DzzkDh7+ZBmgLUGxjjnfagF+CVxtwGE/9h18/4GPEKGpo06589UD/RTA60jWKjpSk1z17ZG2E95kfZW3PMyfVJpr6RwuqvnSy8B8uWX3da1/X3vAdb+x4Z1POLQZKIzatLw2KdsbS/Gpf3Jkvy7B4svIrhu5fRyhC++pTb1YHJorZvyVEqbXl3vDyaQQwzMEI9GSQCAEGKYcpuWeQwiR9SILTfQmjlZOnHqFzbpDDXKCc+wYY89RxRIvyETxJG+pqWwLwJs99dQmJfHidU1KCCJRRNv0ILc6VT1/SFsGgGObfwkbzOvxAHyFUz5hRztCqLtqdg+CTp23GxXyS0uMxZefZIvjww6VO+il/nNwHwSmhN/2gdI5w4rE29QXu4JWMu/GHJ/fwRl343IMDXrx1DfR/fK0unqurbXjhl6dsjKs6DIyjcsrDb3y0mbbRgxY0JF9boVGeH24vbey6QCHPFEt8zIvq9f22pZxWZVdWhy89WDwqDa4BqX7Vub3riydPtFvKy3/ba1/bvu2NpZyF43nDWoOkQzxjfwxSCldDWwRhlIGBf4i1ETvUrzQYqW5NOsaujJRy4nFr3olAxTzjITiMgM7rcL9XnQ5TJR4R4zASTSDWVrsYCMYeUlk4KYVyUSy0wp9jBEld9TL4zjMwaNEuWgB8ztWVr6xBUz6CkHLKyJcHF9w56jdhcU+7aTt8ACkHhIPGRVImi168BIEX7tmgnj6B0Ai0C6/+SISTRxd6qoteim7uoxyFBeGbiMAczLxSP91Hh/vGQxltOeKHNowb2uBjENUzJvoVvoYnErrV1Wd1kgfkO4cDT/VNW9p3jgbePTzEWzSKwkQGruGDx7my2gi/4M19eDNu6aN8eUC50G5bqq8b9PySb66I8JeEdB1x7v68955rXkqPRJMeJ/pCgt6tVBu8/E03He7rIUXQ2u9zhgHCOvMFAoBAxJvUas/u+bqsU4JZgttfLGUfCMHg0bht18MbKDp9qhxlHSudqfPuQWlmeVaPXICOqpvOSgBN8jHEMSBf2Qyce46YnPs5Kpdr4DzX6qWugUkemMYNch7BcC4pm2vtTePAR8dA8Lif8rkPN1qCA155BBoeikNJ4n14ItdCSHN1i1zqEu70XV3HcbvwUk73hMy+F+RxiZ06QmdzNQJp7qW8JER/5zvf2Z+lCvGF7nBQstAfSDuOkSMgL3SgwTVIXvDk3jhvXFYiJ+6N2wHjcsrgQxROnvvyUy95jikzzp9uB+QanQR+tfShYtsu2v2re3XNp20Z3GolnreKYAOFrWues+tJJV51fynnjRXa3nb7MOccOLYBDMTaC+t7oMf6sajqr8VIfRW2yMorYkPUWnmU8exckxJTHgo6MC8dHTMJjBkwLhNQbpphqQtSb70UUG+MM8KQREHGeUB952OhAskbw3p568GYJuW1O63gBMsWQI+YfviHf7j9+I//eN/FIyTlNeGw2GEhwaYE83K4KB488METxQcUm6cUJtslJUymfJTd/NUKtW2JecGaB0QH72eKQSHh1o4U/uYaaDP50jS4L/1jYD184/aDNzSM2xnfe76UPoD12noO1O3+okcN2ekeKZYSVnS5fcEjMZsf0LXUlk56jLRaCuqVMsaEHJPdqlBt+JKCn58/r5etlfQcxrErRnm8IdRFdFmx8oLz22qCbVnYEnHlDUemZEh+q9BPNaz9XMPGgClhbFJgmmHj63OVH+cFpvOm642T/kvr4cv5enmzQPAzPI4UiQJ5TGQ3UH4Y2AqrR0J5vJJy8j2vNSc1FYigxoOiJYlyUjobCmz9o+RWey0q2Zsr3LWYxqN6DAUHSH/QKAFKn/zw5UIDOpLG/c69QM7HeSmX44ZwppTPR/DYvckH7uStLte0bKUMl4/jtfLIdKaXKboqOXKiw9cqi59bLKiWYe66NaNyDp+QFzfbwufbo9u7ZtszqAMeovZvdNZxQBnlnSjm2VR5STMqaGDMXJDr5GUg1oPp/HHZjerLi0Impex65cc0BtbLWw/gjpeL9TcHzJscVrSFr1ZUKZL5pcczHlGYN6pP0YSdPCLFXZ0oTvrhCDeFppy8pDasYPrUyW/+5m+23/3d3+2LS+a4PKi5rXIALim8AHDF04zzLxSMx2c6Pd/96fxczwLFDhEqt1nSP5mu1fXy4kpbqURx+293zk2eZHSFrGTbaynv6dUan9IJirnN1r5in5Y35KJC9IzrRauFHoORH21RwmD5Bmf/KbOzaCee03k13BXz7Ielnyvgz5fgjZAGkjedr3wEQwqOnE/nb5TWg+e7t1699fI2gpTn1cwphY68l3kgRbIB+8Mf/nD/htDP/dzP9d06+UXvX/mVX+k/OmShQ4hqV4tHNUJb4wVvpgIUFi94W/NKdTy39NDd0QYPuOxRVlfYyxujAd/hjNLDAzIWaedCATqSpq+TB8LrMUyXG5c/F9AJ+2lFj/PlwPzwV0+lkP2zmeS9cPVHJ4WyWu7HPsujpJzf5Njz3Ks0cHYD8IDVGBw76vdFnu4rTgs1/9hbg7W35iDuV08KeSlMR04JoS6iehOTa49XenpuqHGuBDLgES4wvicRmljwcf0ocvKVXU9Rx3lgPRzwT7cxCz5pFoCX4MNrjmduZx7IA/KWPuBlmyNPaVXdgozFO6vr9vF6U8UuH88T1fXoZUxvYPqct7YoZIeMehQWDj/pboujBSfeW4hLoeFEn6O+GRd9hSu8uhCg/TEN02OVe/LH5dZLqTsb1PgWS/3a3uKJpfKYdgq1tquizN2Vtpd+UMzlxaXykuXUbNPzokh5Pcq8UJGoTfOUeGh7wEpzNgRK53cHLfhctHdPO3DZ/hpES9Zb2onjx0tph48jVX/7A1gd7wSPFbOOFHVYoTWQa8x8vhTB3iiN6wRyD+RemD19D4zzHK3aReiSHxhfj9tMO+vlzQpwZ44YAUEDLxqPxLPmsYAyFFo5912rG0MmP8ec65s6eSgvfLUn2YYEe2h5XWUoP29qZdbGB89DzXMpKPzah9MRXulCgvbHYyY5l5fkOmm9PCl1pVnBEFM0n+jZVh6TF1xZWi6FXCwlbO3SMnove+lL2u7i3Xy1qcIZkWfxb9CMSugthe0rugVf9SglzznP7q2t/P6DoOVvd+/e0a684kA/eqn06SNPloV9qkKw4cE6xevPRf0727GiupQ6K7l9ZarybN/bCMKgsRCM80HyIiDrMTr3Qa6BvKRxOecZtOQljSF547rr5YFxu+eCtK2e9oWm5o88mlCXV7My65GKlVX3He32EXp6DOK+8NSclAKqg38Abm14JkiRKT1ctgDynuaWytq5RCk9H7RCqw1zXoaDXJjzfv7zw86o8Hncx1n7u9kwPWbokKff4/wxzaF1fJzOOyfUEPfn/2SmivtJwOUlm+R9suRY3TzdLtqzqx08cFl/ukGX/FbQqdIrtICVikb37d/Xbjp0U7v19pur4VmV8/RqWYUtbd++i9vBg/vLcp9sTzzxWHvqya/U+VKPq6s71eHBEsHcO6gFlFdyZr2IchZ7zgrLuSA08cpS6oSxhCspnUwdxwyEetPt5V7qgVyrqw3ncKubdpynXNK47rid8f0IzblAu2nbkXczBhSQZ7Nww3PljRbJqq1knmkll3LZ6mhfa15cj7I7HwOeUlLteCBPiSkiT2pvsO2GHuB7lokOZeCAyxsbFqGmlTNtTLf1QkLGK2MR+tCdccz4ShnT6aM007hNUlfM1eFrCP0rlKcrqqnzimPb9u0+TbOnR55D/vDhuWGfwJa2XMq5vyvnoXbbHbd2hDMpZ6lB27F9rl18iU9Zbm9PPFmK+dTjVfp0f6Z2yaWX9LrEUOlh8UiSgUF156znrFpFkL2HYCg3tI0ZzsMQ5/J0AkNTNmk8CNMpzHU/iq1OBiU4gOtAzlM3+F1Plwu+XIMxXpD8WQYZjPGg25Y38z+PM3g2HpIn9XjFTpIcKS/lEqZaabUhgdcUgoZ+4OiaEjpXxlhb9c1OGnuTbT5wj0Im/I0X5sHNgcmKEFvfJDTDKY158EKBdsnKeLykXDtmTFN+nO88kDqJNM4FlHJh+3xXuqXF46Vo9uXa832gIh7vt3rEWNOOEgFTQh+RPnHyRF+7oSs+Jm2s+w6hwzed3YSwpQhYo6jAwoK9td54sBDRtxhtWW07F+a61/zGb/z6Njdv185KIS3C5ubbpz75mRpcg1kWdm5HWYh9pdjb22pNelkGDQ17cU+1bfO2O3kgPsylPF8jKKwzIRRmmd+4ZsEJglBKqEYw7I9UzoKEzjAOBBDoinBMGSuLnvXBZwuXIyZ7FMErCOUkg0Lo4MuDdnTJd4RDSCkffnlZTXUNp/CPEqWs9gmuOhnY8xFWgqGudkKTNyxsRDDvs32ON0UDA6p/tt9RGHujKRuPpk3CRWCnlQfPleE5lUG70BbfKCJ82hUq54VyvHPP2yO8KoHSfnAAuIH2NgvgxBM4EwVoG5AJY6WPUUy8IUPukQf0GhcyFL4yRBa69Fd942cBTRnt4I3HS2RDm/rpCD8+OspzzgvOGd6S9WPHnu0LpzYZ3H5bGdFKl122r99D88WF/2Mf/3iN0T01bsebl65NPU8urrTrr7+x3Xnn69qb3/7W3rdhv9M6kEGs4axOL5GYyr2kveQlV7Xrb7iu7dm7u62sLrdHH/1KH8jlFa8ZHW87d/BMKyWNCK+BmnjMvlBUOAydnfo1fL1jhE2YZo5kHoNB3qnDVNbfNkIK+La3va0rGOGzIgnUtXiBwQTEYBAgZZwTLJ7GPX1xz6tPlMfjAe/zYbA2fFPGgGBgrKh6Qkf7SYWUEUDGwWMN9MOBdnjz+MI9g2/AGRYJvo0Avgh1hEAiTGhKXhQtyi+5R5HdUz6KQ2Aj0FLqos09c0kbEYTE+qgOzyl6gt8zU/lAv23vhIfQStpxjT7tSKFnswA+dMEZPqYf8tDgSLGE+HZOMT6pI5JgsMiL8SKvHJApgo0bjJzx86V7BhtfyIj+eR/Vwpjr8M8xfQba2Nq1kwf2Sc2Tbcn56eWSh/3ttttuaVdcfrA/1Xi45Pqee++usj5wVwbUpoNtXrbQJ3pSsld4/W7KzObNotDx8mbPHHm6v97CWiyXMBBgK1I27g4T3AorecsivnhXDXLbQ+r7EkpZdSyMFqphGC+oswSZQrB8lBEzhHReWvYw3J5P3lZZjHSPQJj/eIVMOWGeAfMeIuunDu9qLqaM+xQugyo0JKBjAXB0TSB5CXlCR20RUHlCQAJsg4Bv/ASHNikIA4H+DOJGkAEf0yCsRB9jYrEHDQTPPcIJtIOPPKtPiRDCCJlyY+UE6hFItOO1F809S8Unwm0jg0+UUEyPV5RXVxv45iVzfFc/Y6afgbSzWaD9KGP6oU94rf3QwIgw7GgzBiIk5bKgZj5OhiivvuIjYyofv5TTjt1RjBfD7ksV+g3PmOfTtIgOxbc+JFC5xXte1Gt1R/rRoqkf+6K4J0/44nxdl77Y5iea7L8ej4WOkzZmUk5MQLR9tffff1/77Gc+3f7243/bPvPpz7Qv33//YFUIAUWEvBM9hLPaOZt6awSQdxo+xwEv/DpLmAi1QZePGbwiphEm7WAiplEsnkIdoZYN35RRXRaUtWMdvXwsPPZs0NcUfOGAd6akXi6WzwgQQu0ZaLRIQjlzMVvarHxSRn3M2LMAADujSURBVAshd911V79W15HC2FrHAMhDh1DTdQRoFjDQyjrmmmBQOPgpqf4xMnm+yeL3yKX4xsgp63kk4SOw+hSIMCUJ64Ss+KucBSTRiikFpWXEGCIvhPMg2jIu6MAvfFYv8gGiLP9UgG5gfCIjwFhRToaJ50evLy6g2T1joTz+UV4GVf+DD6/QLerxezO+hECGRF+ii66ABelnjsAH6zoWNNV5f9OkblPARx97pN39hX9on/jbj5WM/nXpy33t6aeeLLld6p50mDqW4tc/Sk1Jt0y2CK21cA44U3PHmr20HQu7yvFVPH60XP6TT7dnnn62PKbFoh01IfbRpSH5YJEafatSHXv/exquAYIwzDGMdqR0EkbJMxciDJRPUsanNTAVQ1k/wiUkyXdSeVFhpbIJUXhAAuzaSqZdNqwr4ZdHwMcDDzc6CCpclI0gCH1ZVbjkU0RzTrQaTAspDIlrZeDMwG4E2lVW28DAmQcKOYX25k7eufy1X/u19vM///N9d9BP//RP991Cv//7v98ND77xsLyfDQxojrLAjx79pVCiFREKY4Vnv/3bv93e97739W18jJf+E1K/aKYNn+RkEIyJegynvuqnslGUzQY0ww/0AchLiixRNgaDnBgvYSvPKLpjgNHHsJnGMD5WuPEVbn1QDn4ypJ8MM8Wk0OpqK3IauZVnDcUXQ8i8ow/d7dq1o8bPK43eCV4sWXmqpmqPlkNZLmX22za72sKOndWhuf6pn2X7cE9X32o6OEjhTMrpkUX9PbOt7d19Sbt4775+3LmwpzxlzaWM+xnPd6rB7btKgSvW7y9cC6XU5Q10YKKYlef7QUV1ZwKmgCgRQYpiCOkwkXJ6xkZQvXnBohsIjFKOssBFcTBLmBdLCG8GVFkDoB3hr6/UacMHrWxVMwCEFo6UpyASXAbcPYIArzYs1KDLYBFYXt05gQfnI7DolNTRFsNjPi5aIFD2vNoFxCvw2JTVVxjMedHP4Jhf6Z/Qn6CKLtAegcIzEIV1jSfBIwrxlQmGRv+1ixY8JtiUWN/xGD5l8MS5hH+EeTNhUIDnRgC5Tn/QxFCgAd+APgtZRR0Ulcww0oyz9QchuqgHDvXwCw4GWf8YNzIFd0B/x8aoJ+JSSlZcqOO28pwLbXs5sv4pksrzAYIdO3eXMbu4n7vnuLx8uvjqsYuok8zWNK7qWCCCcibPac/gtqp87Ohi++Ld97ZPfuIz7W/++uPtr//rxyq8/VR7+KHHuqLu2rW3BsY80Xa+Ql2pf1eoFLN/+xbxde15qJ0QOolZGGO+RFmEZRhjQQiTeUnMIixCOfMBTLYhWz3Cx3vZCyr8pDCsnTIEJSFXvJGjtswRo1TaEeoQ6jDdIBEy12AcGhFmXoPlNSdBG+VQ3twNbYQ/gxhlnwUibGhQL4IDlwUKQkVg0CfMTmKc8BJtqUc4cw5CB3zo0l+Cp2+EF68ZFTz24TPTAtGFtvAtHhNPo/DGKooKf5RmMyGGxVEC475ok4xYB2A8zKF9RY9B5zFFCOrhIbr12xTHkUIaf3iMHx6Yb9stRXl5TzzXHhzT/ZOHlL6vvBRzoRQvenD06MmKyO5vn/r0Z0tPPlnThk+1j1d6+OHH2uKS9z2FvzVfn1vox8Frrq3Rnn3OGZh+zjlXFmFbJa+9rCytlGCcKBfto7yPtycqtD1y5Gh10iqhVUmKWfOcKGbXfcwcBMVkGVBMoQDBwBCKRCgwUxhC2Mx9AOslxOIRKCdBIQyEMI8ZKKeQjoW3KEOxWXwDJmyhePojdEWHFTpzMvWDz6Bpx33CCm8U0TU6DLK24DGoPDjPZk7mg2MWHXg5SsQTGVCDHkXZCCLcKYsu7Qrb0UBR4MtjAfedo0s5RkEIjAbt2xeLFgIKImDo0Xc4KRv+ULwswOEb7wkHpdeG6MU8LV82tLIuhGco8Ar/pLSx2TDGqQ0Qo4MeSfs8fPrDgMqnXHihf8rol7UBPMNvMs/A8qJkHv/II3myLmHMKTLeJ4UetHA8fRNeyb43t+bL+9kfYB0Gn5898mzNM58q4/lMe+LxJ9vxY4vVbo2DCHOrR3TlqMp7XrrvYP+Vsdtvu6nwz6KcxYCtQtLVClFXh8ZOnlwqxcKMCllXh5B1e1fMis2rIe+1Ucxhk/sgmGMBxduhU2e6IhpgTAQEECMxBOMwM69IYaCyaMAsSojxLCYhomhoJljuKUdwWEwKZY6IDoPGywjTDIC2tatsFExSVt3QjlYrgASeFyXc5puUM4sy6EIT3KDzsAYzAnUuUAYt2lPPNYFitITLDA1lYhAIoJDNgo7EylNMYb9+erOEAKKJ10P/eBzwFn73KLooQsIDoS0ZYKyUs8jCm+TtGN5EaIgX6IXPODmmHznfLAjNQB/AmKfu6yu5dd/YGH8GxBRAnzgD48xwG0NjJUogL+6rT77Ikr6Zu5JF1/AbkxxjiIbGyTmPV4pb53bM9bdRtg4KurJsO99yX5+xMd68VFjbaiqYL1b6Evyl+w+0Gw/d0u64/VDhq9vVwHOkJpsQeCod7FaAlp8WXtUgnC4rdaoEtiJUy8CIXVmpgZm46NNVjtK67pvc+7NO3qAYu4V1HZQwQkKhMH3sqSRCSXAwAZOFHuhxjYmA0LsHMAwe99R1j+AoDw/QVWW0m7YivLwPr2CBaHyPtxYqschoUNYAagPI58Hkq6NNiku5CTdc7k2xeV1QJuXQLaHLb6H4ujvlhAv9QFn4tRmllmeF2i+NoV15+WMjQUjxAe/1iVf0kw+e05rHWlwSpjNUyvmRpm/91m/t3ojx/pM/+ZMe9jJC+IAeKUILv7Y2E9CNFnj1x7nkXNvy9RUkwnDPGDo3RvqrLGMEKF2X8apHjoI/MumediNPkT39VB5+cmuOySn5wruPdXlgYcF1m6cXJf+nVpfb6dVh7WOga67/cJHyPK756MmKSq971fXt3736zvbWt76ux5tdORGgIqCcmG+HkA55SfT0qbpXjdstRMmquX4cNhl0ND3lhWpufghlYaSULJ5VJYsQdV5l3AfaBmkfU+TpeCDXyjgf18l5YFx3XA6M64LxNYYbBEeQewbBgIwFwblj2h+f5xoeCgNczwLwSxQ+SuiaAvGc5lLCcUpqIcs9g82jE0hewKMeIbZoIjSjSTnJeQQWjRFE83RhMcUSBYhS5BNQc2vtEk4RjDwRgzYZJHKCT/ChOfzZbAhv14NxPjpzrQ7AB3QBfQcpJ6UcyHlwqJsyoeG5ZTit+lvlhu2uJceTZ/3ja3Vcg7y9Vdh6Pb+4Z777mjtf297y5m/vdTZUzr64w/3WRNWzy66YW1mHiaKdhVKIUs6+6AN1V9DqACWmmGeVU6eGsr3cCwj6KW0W4Fn4thmAtigEBUoeJaeg5uOUiFemnPEUPIBQlpImxEcXq04A0+8oTzwbfLwhxTKN0K72UycCbeXXOXxWp4W5wkWGQDgoUkCjeiDC/LUA59MPZSkbxcuHCPp3a62xlNjl2X+dDOd1VEOeZ6KHSjlfe+dr2pvf/JaOb809nQM0isaunGdKOTsJ8uvPxCIM5fx1nlR5w6Gg1xhOzx7/B4whStQHeXIuEXoejkIwnh6uC1s9LJf8AJH3LimL+ROFoiDx3M6BfAlOyi9spWhepLYYQrnNxSkvRaTAQnjhq2vzWRscrIRS7CivdgYZGTx92vvvCfS9Q/G2p4Ihb9CFUtnh2O9N9KdSh8pa04icFS8nZ+cEu+29f0YRVeiuWmDdGx7QxX0nDyRn3ODa+QsPEaDNSpsNlIE3FCpSINfmRxZ/hLUWbCwG8Z4USxguZUXafTt37BSy2hhvBg+FibJTKMquLXUom0dCFBRe5ZXRR15RGc8K/bKZRSeKCTePCx9lBjxz2vrvDWL0wPDCdEUP2NB5zktOUlfMQUGfA3VZUlUnazoyQ1hroFhIk9maS80TzGqwrZarnjzDqzlkX/zpc87CU9drDQlnEVXpbChcVPd559DmCwmd3k2EzVRSgi0JS62KCmXN9eyrzSJGFIAwUAr9MU7yXSffOFpRtSilbkJV9CpjldoKr5/4M5f1+MRCoB1BQlzlGQK7jeyx5TXRYz6srEUjmyHMcxkInjX0xBB8LcCs47tmBIf5rEeFpzy2KICjb2stee98qYQ74RFlZSxtuPHbqr5GATZ8n3PtUYgH+qVQpWinT5cQ9PDW3HNQsv6RomrL9XMtQGX22HZ0fM79Fxb0ZTPTZgKl4ZEIOq9E2HlMA8Yj2ihg/6gVZcmjFM/q5PGe5o/ynHuUIwzOiiTcEpp5TO0QJorlOXNwaVvIS6H9hoqH8dqWT6E9I7RTieJ7HAE3OSGclBL+rxXFBLOOMR4Afe+8tnUOH0rmKaZ95/1nGCbeU7mxBhgP4+eL7wwhmFE5yzMWGotBvopw+lSFMULcatBn5qOQPUo+6xGTRkr5IlDOFzMYAwrDE469otCS17IwQ7HMC42PxR+eUeLBJAtD8m349jyPRY7yjJXTtXsUjiEgGJRcG0JkGzV4TUpLcODyPVtzXfKR0BtO+J2jGeT6awFmVU7lwg8y3pXRR6Mrn+bUjVIZUaT/4c0abp+ZPXBZlPPWnjfDoxQrsBquJgu5n1TYarW2Guc0h3oUskIZH472+cvJtRVb5Z8b1kKUMv8DpgE/pXginskc02tavsBOeWwC8P4pz6UMZXPsFnuSKKiVVIoXwQGUH06KRMHc45G9fWHrpFAWPuWVo/AU3QP5fP2AUvO4AJ7Q7JxiJsT9WgD9mgWUw3fzS+svw2NHOsOLUkw6UFJf44S3pn/DiMDveb9HKcLa17Y3v+VN/c4MnymhZIWmIz/Vts+XwCzYpkQRbRBY7N+wHUKaQSGjmBrtz0KR0Y89a/JnaO+FhgjSZqXNBINGqLNYQ5GslhoT4annkMJNmwvMDykLj+a5pB0tjl6X8oySd4UPHjjhkiIcxpYwUV7PK423fMrvUQ1PrZ4dMjY12HSADgqbhSA44EfvNH7pawHOZ4yVpS/dcZUz8j0hiWMSYfqUid8U6voAqEUdlPZlkMsS1t4+eM4Z3BevWlpcJRfmt7W9e3a1iy/a23buWOjh7dFnn2nPPnOkv4CNEPYg6SwRXyMwLXCbLYAGl8CLWOC2vQxQFo9IJI87KBXP6lmn+eJ4MYZSuaY0UXDgCHfwUjCKpIx24f2DP/iD9od/+IfdMwe8z0nZ0y5vrY5zCaAlyinva8Vrng/ou1+0Hn5tbNi84nMlx489206tLLcdde/ii3a3eR8eKEdFeYc0wHAcVDVq038CMEJmkMae0yB0j1ilbUXau3dXhT0vrevT7cjT3pB4vK/enTh2opR1R9WvwTlV8XYJgUb6XLS3Kha3C79sRKXujeu+QTWf0b5B1T7BNA9yrsOOEoHKufIS+giCBQx4QI7wJTTkfRwleQHn8MgPHZJzKXM/bbrWV3iVBylrICL4wZl6+pDyof/5UoB3glddiqbNKAcFNT7GyaqpMuak2sc37brGm9AmBEVXNja41h6l96KALwPYBWSHivmmvbwexWjbYxRhtYUpCxXmouqgRftwxsumz9oG476tl/AF3WiMrMGBVtfKOJenPQlNymnXfbwOBC/AF4AH8uDIWIS3jrw+HHiW7ZfKuy9pP3i1r100ANfu5whOdZ6fbIsnjxe+E6UbR/uHvLaXcu679JJ2ww3X96+GnDju9cjTbaHG2ve2VmrOeekl+3poe8fk63tnfzw3BIznnISkrzCVh9xZLvnAZfva7j0727NHn2lPPvV4O3b8WHVgW38J2z7BxZMerxCWvaWEFAuDxNz2iRZztmlRpwjxoJDa0FmMwSjXGIgWEOYbxDAChLmdxjpPXh6YR1nkOWZQDZJ2HCmfPPcdCbd6EkBDBkMiMAbR1jUCpb5rZdSXBwg/HPqE3vB2I1AWLerDCfTRuWeLltoZCIoJN0XybJKSqWd+KMw134zXTdtwo19yrq82zFuRNd9MX9HNG0v6hH/wUkRtAOXyg0dowQd4gTFSLmOyEWhXHW05Vxc+vEw+mtBszIA8YBxFD9rCp/F91wAvTQV4fDjcc8wYA9faCg+UCf3uAf2T7/6YZvlwodsUzydIyPqO0pedO7a35cUTffon0vTpS2N1vBTz2HFf4FvpL1oXt/pbKdffcKi9+tV31pzz9V1PZlLOLdXYrppnXn7wsnbpPpuhy1uVNTCP9Db3yZPL7e677ynFeLYI9lPtl5YisnylGKWcJsk2zFPOvsuod3pQPN+sQbBBJlie73nfkvDwEpjqwbiVQ8zn0c2vMMVChueA7hsMTFJHKGaAvcGRd/kAwfaIwbwsb3dgsIUTeN0PH9BmYAw+pdAWnBJhtUEcjfDzOB4xyHetvFAQTko0HuxzgTYlZR31Vz+tmNrFQ2F8vMyc0zY6efqBRoAem/R9AE0ZEYP6URgGBm5C7Z7dQd6h9baJfGW1qd9olpyHJwCftWMe6uUI7alr3JTRVur/Y0FdCsX48OBoh5uBwHdzZEpnTDzmIaciCzKEHkAmRADGmHyp457VbHw0ZujOWBsnsmGunsdS8szj1QX4A9JH8iYv/FH+6LNH+gel9+ze2a59ydXlLS8ePiTt0WOV8TMmR48eb0eePVZOjpIutS1z20s/thZNN7X//d9Rzm/r7Tznl60lHXzuglAVKgXj9HbtXGh31GT10KEberrhhld1Bn2lf4Hv3mLQ0cLhuyg7S6lZpiJqGNPKr6v6gxGYb7Mv5gipLHSwlJQEI/2MHYFzTeAx+Lu/+7t7OGWACB4Bs6vF2xJ2xBjMhF4YbMAInx0tQjFCbEDVo4Q8hlDO4Bosg4A2jCeAkmvP/uyO8dkP5dDlKwrwE3A4PTQ2WPLQqCwaPeKAp/cXAzYA5fAkbVMUAmaVVhsEldIDNPntTEJIQNBBqHhDIIIgVPD0cSzcaIQTfnkWf/DNNVoZQjwnpK7xkaEj0KIF97yK59xXExhC/KT02gHoh1tbGwGeoAvPI39ooWj64fmuMdJHRpghR4vkOS++uC/0jiFmuMkSOSBbxt4jInW1xfNRPBs7jJV3cikqPpMtPLQ5g+zAiTa8MNbhJTrTT3na019DvFLnJyqi9DHpa666sn3D19/Rvu6O29shunL1VX2K4FcSHnvsK2XkjvWvhszPm8Z4n5Ohv6ndfvvhrjcbKqfnNGfKc55erbnFrh3VqX9blvZfd+Kvu+4VfWC8N/j5z3+xW4T5bQslKLvKS+ZTFcOgEc1BQGruUwJysgYVEHQWMg/NhYmvf/3re1jGGxkoA0AJKR+rbQcLIclX4HyU6Y//+I+7QNr7SaiUicJhPmVJGMYzew3Le34E2CDpR7yhfvOQBouxUBbzeYuPfOQjffAYJeGjRwzqS/INLjwWV6JsAG83gpSPgUATw/XGN76xK6aoRj+07UsO6PSSuYRXeMaQ8bRWd0UIFI7ixoNSTu3IY+nRCq+9uY5WZW0w4KG9E8o72glk/657Fovg1B5+w0vBE9LDPYzzbMqpvxQGdHmra3RRLjJGKbzwjG7jRlGUs+XQziV0GkfzXhGA8Tb+DCSF1j+PnYT/IhoGlJzBw/CaLpAlkSKeMXj4zgDhERyMEIOABm1rYzy28vXB45PVlaUy/sd6OHv1VVe0b/6X/6J9yzf/q5Lzb2y33nJzN+6f+/vPVZR4b/VzqRRyX9eVk4vLdb6/HbrpcLv1tsNd0WeMPYbV18Vi2sf+378pZvyX9lf/5S/bf67B/PjHPtb33c776lgR15eRC/NzRXGSJ7OSeaqOI9Qgsr6E0blBNjiSPMphkLyqRIDksaqEIsxi9VhGQklwKBUrn2/cUjgex6MHz+wo5Ac/+MF+j2fGbLjghhfj0SEffvShn+ALrw2wgdQOQfBhLEdWkYIYaOUpOKAUs4D+G+TQQ9EZFp6DAH74wx/uRoxFJxi+FqFtO3bc8+Evr4tpDy08BFz6Ap9+oYnwhe+EH+34QCCdE0SGjdFzVE6bPBGP7d1PhohSikLwIbwDys8C6SeDjDZ9h4ds6INERrRNDtDKIChP2RhGHzzzyREvAxhfRjLekgx4MYBym6ox9HCh76677upGTRlGjBHSb9GEPGPoRQLtag/PktA15qn7eOEcX+mK8T9+/Gj7+7/7bMntX5Rh+z9Khv+q3XfPl/oqrq2wO2pOigfoscOu/3zg/Nr3l2ZTzkJAseZ9rf3UanukBOTuu79QFuW+3tAqwS7virjtNRFmQWr2pFqHs4pa19SWAnsoa2B1JkIchQQI1kFMppyEETMIHUWkIL1T1UjCOYIMHyYbSIxUTp66gABQdELOK/G8PglpAENPZ3C1rb4+aRvzlTX4PBch5jmVRfe4fNoyiPJjYTcCZdWXArlGG+XRJgNEOFh/1xRIpCMq4AUi4BF6eNGJV6FHvmv5gBGiZIwOuhPe8dD23wqrfeGQd+KB8CPKBUfaGePcCJSL16TYUW59ixygFU5KqTxl4e3wmpHFgxgI406WKJj+kwHj7JjQVBtoR7d2YgzRH6VjzLVHmeGbHj/XoQud6jkPnu0L26v9HW17teUTmE888Xi7/757y1veXXiHnzHhzEoJ2tKinVaDvFX1rqR12mEm5VTYnBbCSy+x+LLSni3CeVLPdiwOWTjasWOhK0PvDMXsrQ04QD8tXH4bAlLKhRkYSRh4Pt4JQzCNx8icEGACS0pJWEADhMmEVpjFO6o7tnTOdZzwhdGYyAMKi4VDwngDYfDD6DHznWtHeMObGDz9jMU099UG5XD0RQFCxIvCiY7zgQwyYSKAlF8I5osFeEE50WARhgfBD7zDK8YLDXiLh87RH2UEznOtX+mj0JmBy0elKaX5f+bcFqH02zyUp0UXPNpwjFLi9SygnrLoVDe4Qg/6jAu+M0DukRPjyDiSAf0WIcjXd0rlXuQHb/DMvNRY46lkTMiddrStrfAHX+Gj5Lmnbef4BRJhkZfw0DXadi74uoIQfVhptm7DgS2Shyrve7XqF8rupFzTH/ht45vo5mzKqZHeQCklLV88eaJ7zKOV/D6n5zm7du1sF5Xi7CjCtlXYqoFxqor+9E4O25sG60OxCDEmivfNJXSUFSQs8q3imjuYb/EUmMp7OrKYFMZ80NyCUFosMCCER4qHxUhMEfYQPuGwe/J4XoLX6StGhfGSgSaQ5lxCSOEUxTQHZkzMcwmr+yy0RSj30iZcs8AwOIMlNqiEiMHRNuHiuXxky8IHurVhy53v9VockfQNvUIzPNQ2PjvqW0BbgJDiFUHHe/Pb7/zO7+ye0qKZOZfoBQ50iDDMu00P0KC+fsKP9uCcBdTBc/WkKEJkQz94RWMIQjMeM8b6z8AyhuaoFJWhNafUf8plRdt95ShddlKFx3DCr50kcpHFQpGIvCgoOkMj+p1L8Mgjk2SDDijrJWr6sVhz0P4LCSf8DEYZzepH/xjYRMn7RHDkyMAMq7WlSOaRRYAJ7JNPPd2+8viT7cGH/ObD/e2L99zXl4S9UmbVadv2hfKMRRhGd2WEXLvF2IlsrBiIU6d7RyibAcIITMQYW8YIOsKFkGJ/O1cIBoFlESk074EhcKAbUGhCKZwRorlm8c0r9AlOCzwGitdmIa32srgUwaDBmQFglSkDb8VIGEh11AUMAS9pThP69IE1RSPjQYjxchbQrrLGYuzVGCP98CU+RwJAGK028qiUUpIvbDeHygKb+voFN7yOBB9v1CfAPKSfMhDq65MxAYQTPYwPnO9///v7wpF+UUL34MLPCKnjrKAsPGhUN3Rm3IwNGvXNuJIFxth44zuZMRfmNa0g+zVu44w+4+R1OJGNiEtdi13kBcSbkhOGx9H4MtQMFfm0EEYe5eNJeBl6AR74VWvK5YdxF0oHPDLh1J599mj78gMP9uRrlffe90C79/4H2onFlbatHNmWufl29NiJtlL6cNXVV7Vbb7u13Xz4xq4rMz3n3HqmrP/kw1x+12GwGJMNvZVXYXIRCkfd6x/SrRCg8s4OUVfK4YrCeuetf7qhOkfIhYYYnXmMQaAsFAlTCalQBVNcSwRCfWEEHAYDw1hL5SiJfH2Am/VTBmROMgZ1KSKhICzaFFIZSG3BBadBUgZtaAUEE83KwMt4xBqrC/B2I9AfOAmMo/bkETyr2uaA5nuURzvKEAxltCcKschh7KxWaz8KpGzGWHm8gIs3ppyUGC8JPc8iEVh8UUY9iy8iB542tI69B0PiesybcwGcod+YRTHl47G5JZlI/9BMgfBFOeMq3Md/9xkQ48AYGnfjiVf6Rn4YGkbW2AJG1z3jZvpgrIydOurqS54YhC7gPP0eMoqnq3W//tmaVyNZqcLTrWXgK2jq39uqPLwk99o/XXX6Rp1G2VtbXFrpj1Fec+fr2hvf9IauM7NtQqj2ttC2MVTmNPuHH2OZdKD/XR/yGhrAGO0TIsm5vEAYshHMWg5oI32OQFAIHs8R4+Wjw4ASBkDo5BMWSX1lNxPQYhAdAYGXzAWFWr4QKNRHWzwE+hx5ajQ6d4+nd08eSL/RToB5I/NKHlMeoeGVrHLnU6Q81w/+4A92vlj5/MAHPtCN4zSEN9L58CVCnhQIjowrHqBPXupoCy2MCsXSV0ZLuSggGaaA+iuph1b9HeOHSxuAwVDGUZ2NwE+UnOkfwYNLH0SJ1Z+ziup68LLaHMoMffSvzmqquNhuvOHGmprc2d74HW/uejQDB6uyDkA6TuUlo2Rd0Shl72jS8wPGYAZCwwSQAQjjCOlmQmdGJQOkDcdcGwSWl0AnBOY1DXjoSQLqSJsJaMELvMEH+AkWZfSML4tjaMAr9Hm8RGnMAz1G4W2EcsJTCqXcmM7wHm8deRL9dg7gFy4L+bRrLhovjT5t81Ku4QgtzqXwc1ZQF03qBQec8hggBicRSNpkxClklIcxUkYfJLgk54lgoqzyc4RPO2kfPvjVy7RpFihJKIT4U6m8Zfc7Exr6RU8WQckzw1LJsac1XTkT1elKreRMoJFxQ+tcTxoa0qTO8wCmJBkICYwZFSbOAudTFmgXqKdtAwIIQITBMV5dGWWdo8/xfGmcFeAkJI7oEd5ZKHv729/ejxSHwpqL86bOhXrx8DydxZGs2oanwZ3+SurZQGKzAS9JUYWJHu6/613vau9+97u7VxXiKa8tnir8CB78oGRRDHn/WFA/OBhuiTLmKD99wKe0DZShhOory2vKU94xfMUPeUB9Cbg/bm/mfpQYUMqa//Xzft2P+oJXQ/g6bGcdlHJQvaFw1xmnBV3RJzDDgtCgfFG8AQakaymH+jO5PBcMbQ0DbEAj7Bn0XEtr5Z8/nQ+kfAY5g+Ncf+Unje9HyKWUn3nwzgPwIzzhsSwAWVnmxaxS8uzmR7xidrzIN980BzN/dM8DeSEqwZ3ulwQ/j2Neac+pOSbchNKc3LyL16Tk5nRwwEWBleGRGA8QPsAZ/DEI5wJjAe94DMNfID/4JNfuo8Mx8gLchwvvHN0bw7iNjF3ytCel7XG7oWUjsB0VuiH5U9cWUidyfjbCjM6k8AT06bIDdggdarfd6mfni8aNlLMjrDQo5wCO6yWNjdpbB6pUp20gOEwBaT/5IIzaLIAvQoPx4wFMO+O2k8CYPjDO3yyIcFAu4RqvaZ5ptdE98z2r1rYhUiqekwcFQlPJYxzKxBNSOosZEbLpvrsWHVgsgY+C5pGVZ4sEJnM63oQHtShl5Vgd7Yky3IcfXvxIO7PCNG8dQ2+MlRTc7kmMROq4HkPKpHyO+p2+A+dpe7qONCt0Ms6mwjXK2HLGcaKY/SsgoM7XivRNPJddNijnrRX5VK1e49wAXx2sN1HQHNfScD/n5wSEdNDx4SyMAWFIrnNvo3S+kAGIh8qApX0ArzK5N06BlN0sINwEjmJSGjTwjBSD0RSCUh5K5/dZzDN5P49SPE7w3G88t0J/5vDp21jQE/pplxeEy+ok5b/rrrv6Fkc/OWiV1i4qisiTas/mhzw+CV7H8HVWSH2ApvAYTUnhuSOHIU9Z9VLHESQfKKePY+88bg8Eh6Rc0hjnxlA4txSPe3Ie/OqPwtj+IfXxUf6ELqlOq/bkXy8xC0yU4GzqWZP03Ly1bq8DvfUUGkpiQphvYCUQhs0Cs5bTjgED2uEZIlQgghs6xvcyqKHrfOibFeBDI7ooKcWiMBSVwHhuJ/GsFCW/uE0APbvlYYW2ysIRRR0LuD7ol3vO3dNWxkG46nGEENdc1E8reqkgn820mm9+C0cEX73w53xB3fX4GP6GrvQhyb2MH0ie4xiSP51SDs3GOrTnXsrNAoNI178oZz/3NwDPekm9NafmCFdg47C2E1odOUvwWtm167o9OU+7Ds8PrNvkrFcaAIOCF4zvbQaE6RGkpLRpsF0DRwOvjvMobOrLzwBvFsAb3BZf0MM7WeAx56QMEmUyNrwcmswPhbjmiM7hsIPHOPLC5q4B9MMfwVbfNYW3Uqs9oax2KKpFJvNMK8PZ2KEO+aCkDIey8oKfIqFhIwgtjuFrEnw5B8qN70vjNpOmyymzXrkYaZCy653PBDzl1qI3aqaNiSIMIW2OBf1Y5dTpt4Y6K8Jac85DFdbWnLN6MptyVo/rnqTcemkgZQzT12PI5DhMC8CTwQqTnG8WZKDgjcV3jLC7J8/ApV2CN03PeLA3E4JPiOncirE2KY1tdHbMeAlAaEkxbVGjOGj0jNZ98z9KZROCMjyvPsGZfgtl05Y8j1+sylqltdnBdj04KCNPbReOvbUe51gtNhd2L4+a4ATxYrMq5xjQg86kQPBog0FxPR4j5+nLWJ6Sn3vKy1MfnY7Tbboe0526G0L3koPXPOv6HCeouh7mvP+VMbnoN870Oed+c85STgtCXTl9fW/cCQsDtn1ZHCC08n3rBAK7g54ty+mtkoWFYVnbftsdFgQ6JTrc0RRUzkgZ0oZrR8yOQmCWc+0ZANbYOfzAuTAuecpLGBp88p0Hn+sMaK6VBxkIKaAeSL6U8iDX47qbnQKULW3zfHlMoj+UzyIPA2rRR3gqDJXi/fTV3FQZyqle6HZPytZH80d7cu3R9RyVkjtKdud4C8W7tBTUYxqJh7ZopA10hd6MM7zjMT9XCkQpHJPAuNx0ncC4Dn7gkXKRE4AHqYtW13grD72RI/kg8jAGedqAH97QSMm2+HDXtsyFi6bTZUTqfGixeNHL1tGw9rdQio7+sS/rOPWv8hjdmw7f1A7fdLjya5zyacwA5cR4c450aOjUoGx79viJbnOTE/3Le46Uyf2eEOqgSiW5oOOZCBwobL0DCYnSWQoYQaJYkmvlMD7XYShQVz56eYUxwKl8YK0/Xw3T96bPcz1dbrMArUn6gW4ezKooD8n7CStFNRaHbHEUzvKqVm3xyCoqj2kBJ8qLL3CGX/DCxSvaEG6uqj5PrT1KLjzOs1QKC7dxTphrv6koK14eTsm5ti4EaB+d2tdv/SUnkQ/H8TklU0a/Uta5e3C5Jo8Z6/AwOIFypUldnqtgL0NPfOgLb06WU1leHPRjRzk0b3b52J1reuRxy0o5uMVq13ZCynnLLbe1ciVfvSDUkU8xl25vOVNK0VbbVVccaBft2dlOrSy240ePtJWlk+34sWfa0snjbXW5OllMGSwDq5ABq2a6yRgU1CtjddaZpC2dzaAq74gJziVWPvmhzTEDIMElwaUs5mEOkAeUezEDutGKTn3TB4plv6eBMx8E7psXUhwez97XbP52j3JS4HG0ATceh1fOhafCVGEthbPbKL9Y5lkq/B6fWB32MrO3fiwQWb21iwp/42kydgD+CwWRo9BAAfXTHB4vKC/jA8IXZfATz3OuPDAGkRu4pelzesnT+fIkpfR6mB/MpRsnjh9tJ088206vLpZybm0HLru4XbR3ZympsmUIqpzNdXOlH0TbNsCSAi18tefMnHPNc5YweJF6SwnEnl3tYE1aKaFXX7ybtmvXjv4+2lBu8H463QetGqSEbg7HaqDyvE5jzy4GYgYBYMUxEQNZb+CehIEYGkEAynlYTnB5GQwkjBFuuB1Di/OxAL0YAa36BfCAFddHX8fzmyXmfR6XCF2FnOYndg2Za0aBKZtNCRTKnJAw6r++j4FimVtmHmkq4zmqxyieceKpDRBwWa31Sp49tz5TIrKivDEewS/Jk/TlhQbt45m2KQ6Z0TdGxio2XjhaXCMPogyKaKuicvrkjRT3GULKagrhCKKQ475pE675hflStFP9s5enlK+8/LL1/LatbeeO+RqjPe3KKw5Wffz3xY8ThXu57u0suZwr2g7UdOLGdvttt3d9eY5yasjAjMNaslx+qO3ZOd8O7Lt0eI+zwtkz5Zr37N7VLi1BOVjK5QsJSxXDsxzbSsC2eTuFxnaZ4Pb7of+hxDoMvwUOX4Czs8VXBsx1MCy7XoRXtpIRIsy0EAHsHX3HO97R50SUe3yPYLF8FJuwYygGgrPW7kUIaGRUYogYEsrofU391y9Ka/VV/21cpwg8pRDWfUYugibfvAoYWwCnhP88ppVgR6u7Hs3woO4xCh7PMNTy4YrSoRNvo5R4StmjrJQg/H4hAS34p3/GH8+8n+r1L3wkC46iDWW8QkYZ7cAy9wY+KuZFfFMFssfIwanf6uijdiTXXZ4qiQYpJ68pchTCHjy4vx3Yv6/t3b2jFJUS+wj70/1IMeBQx5cql5ZXyuBeXIb2xhrbO7qqnHUjaXD6fChUYWp5z9MrJ9vendvbda94afuGr7u9/fNv+Gft8KEb+pesl71U6qtjZQl8xKtI6bF3/5VfhMgpt2+eaeB00tHLyiw+Y+BdO3mYx5pROt4h8yKM5SFYNu8fmosRHsLKq/AEBgAOFtQcyhyJQGNw+vRiBrRTKEpCwOzG4cGszP7sz/5se9/73td3Cek7hbDZ/UMf+lD7pV/6pfYzP/MzXZH0G//wS78D+g+/I2HDqyhbQtQol0T4lDFWzscb4Nczchfa8KGdZ9R/tIrEzMt/9Vd/tRt6c2iGnwOyh5gjEHXoq5ewyaJV7j//8z/vYbtrBk/fz+pD9XEsR+nzqVWK5kMES+3pp54u4/iVkveVds3Vl7ebD1/fbrv1xnbohmvbK15+ddu1c670wAvXft7EeY1J6Ub5ygpvy5l0jBPl1FhSBu8sOC9lW12qMLbmmf/if/r69u3//rXtrW9+Y/v3r3tN+zff8q/axXso54nynCeqoZrPTKzCgCe4Bu85oF4bXBbYOWG0KqlO3rekbBjEK/KklJU1w6xYM8yWDAyLj/4AvPKVi+V7sQOa9QG9hEZ4RUkJD0W0CSA7hZQjTLyesNS7nPLxgfdVDz/1OwnEMGpLUkZeIGMnDy71XDN4QB33Usc99OK1c4p+IUDbDBt5cLS/2FwZXaYCZMa0jaHL1/iinIw8pcwH0vL1B0m99HXMy/Cuv8tc/3zm0jrL8EmS4+U959tNh65r//O//Zb2hte/pr35O17f/tf/5d+0Ky/fV8q4VHPSE1WnxsR4V1i7MF/RSOFYEuyUnjxHWjU0nYYbp/qHchdPHGtXXXF5u+7l17aXX/vS9pKrr2xXXH6wq51PzusAlcsScuoPP8ugqSpZN3Sq/nQBUQdzWDWWjGfEQB7PKiEmWkEWtinDG2AYZWbVMD0TfLjSpjYwkOUfM/PFDmiU8MRxbHBcE3yCp5+5L89RopD4gxeuM47Biw+uwyt5DCTeCgPt5TW9YBQBQee5vUdqX61piHJCYbyFg/DCSwngC70vNKBFn7NOQUYsjKEvBoNXNf3hAPLM2LySzHEOFJfsqY+P47WOMR/H0OW7VGn7vIhj+GU+4WrrU78dpSOXVbTHU7+i9Oaacjyiu+XuyCgnfvkyCByS869SzgAi1qDOK4bWEO/40AP3t8986hPt43/z1+3Tn/pke+DL93WPqQwj0L+cYCJcNSktNTXZzdcPhpXbweJgGsIIgEm7+Q+hsSiBsZSTkCinvFDNHEFIQokx0fM9zOJReZlY797hSYLT8f8PgHaJcBAoK9WUkYU3FzI3YsTwQb8ZK3zBK5/zkAin55v4A8IDeCNc8lwDi0sU0hzeT8t7Ads8jfFjHD0Hfec739ne85739I97e33NnBe/jU3GB6Cb0l4I0C8Rl34LaRkVz2VFEyIPhtwUirGnpJ7dKm9eaTHRugd+ui8i0b9EcRQ1ELnKOLlHzn1IfX5u8mpalfNpzEcfeah98e7PtU9/+uOlLx9rDz50f+U/U3d9z6p0xXPH8ryUeXnJSu/pruzgrHJqKOm5wNvNtV17L2lXXP2y9sTTR9sX732gfen+B9rDjz7enj5ytO3cfVHb6nubVc73g/pPbxejJAyjrP0jYYNeDh2qFGYKWX1D1rzpJ3/yJ9sf/dEf9Q562I1BvEiYgXk+cmXeKYyLIrP8vAYhlOAOQwkPkPdiBvQSbNYfsOjm4hJhoxS/8Au/0H7gB36g91dZu3q+53u+p733ve9tP/IjP9K9Gj5ZqTXfwl/8HivjGOS5T0EpnJVhHpIBxC/5DAG8hJ0S86I8DmBAjBXa0Y33Y0F+oUE/KZox1x98YdTIC14wdjbYWOCK5zcfxSu7oywgWeMQGUTu9CsypG8SnuGP+8NTCgprbu5bWuVBdyy0+e072onF1fbQI0+0z33+3vaZv/9ie/zJZ0tNdrb5hd2Ncz12/GT/MSN89unZHqH2z2VWWz/2Yz/Wf2UsiXu3WiuM1BkmwOf6WlmFvZde1l75qkPtymuubZfsu7ztKKU8vWVbe+Sxx9uDDz9Wirm97b34kr76NH5lpuOuTpQoJKd3SgdZfQrIUpkjYIROs2q8oaX73/md3+n35MPFMmKoFTXCAo/75l15nCIpi6nuG4jU3wiUC/M3I50PKN8tbx0JOn5Y0DLfphAsuTm4xTMftJLPiBE+8yQGiqHz1ooQLbwIbgkP8J8XoeRCN0LLGNjk4Chpx3XyeGMeh7HQNvxoQy98cIdv2kh750qbyeckOLWfDQW8PyNCRnw5kSKKCsgRWTdnt8AmQhGR8bD6xfirA88Yb3iZo40Ec313kD7X/brVH41cdrC98rob2jUveXm77PJr2kUXH2zbFva0Rx97upT0aDteilterZR1W1sq+i66eG+77lWvaDffclPxtPhSg1/tDYOlI55leablS3LCTfdOnbL4srXt27+/rx56fGLA1dHpvAeoE6zNRuCL7ybRmMEqExDGgIIyCPAIca28YZqXhrWnLGFEJ7oIJYZhtrAFDvfQEPqAsklh6rmgM3yGcrNC2t4I9IWgp38Mi35QIo9NsnpobsRo4ZNQDF8oGGEThfgCOoHLvlphbkC/8AXvKbpwGf+1uRGoix6Cm+eo8MDPiKTM+PhCgjb1N7JMlsiLkD8Gnay4RwkZf/nZI8z4kal4WPmM/Sxjp7vpMl4YmwMHD7bD5UAc/W7nwOMt7R9Kzr9cobM2+9cti6d2CL2yjIgnFW94w7f3ueuWUq5yasPzNYpmNdAOEErK1fJ2A3H21s73Z5qe6WTDgXMd8P1aRM3SEd/rRKSBJYysvc64xhh4IlBo0il5BHOsdOhzTxl1UyYWTjkeM/3r9Na9jcAgb6ZwaXcWvugbfuBFaEC7uviSxQl95c30m7HkGfBQXhbP4IBPXbx0DN/wAD/wDr4YhI0g/cBjCqqONhhDtIz5tpn8Ox9AH5oiM/qc/gK0Zk6OZ/KVUydGRh31HZXZuC8T3laxbYUH+D0gY7a/DCD+2qJnoUcbpmF0pvO8cKPPN21Fkd9ayvntpZzo6coZxcRw7/B5b8/vcPCcA2GD91RO53x31mYDQPg14DudNXTDKtWGgKBhfsVCIRJeybl84RNGOaeE6HMvQuY6ghWh0fEIiiTPtc6r43pW2GzhmqXttKnf+tV5W5CxgSPKkH4aE/Uk1zFwkjKBlAXy4dYOJZafts4F+K8OgUWLNvHWuXx40Z2yLzSgQ39ixAE6uuJMILySj97IhTznMWr44ThbP0rua77JYel/NwZ1bjQ5L7uG8F8baOvt9d1Dg1xurah0aWm5pibXViT0v7U3vP4Nve2tIc4RgyXnvcnK72AQqrAK8rji+eoYZeiCX4ScgqdC1VkgQgQfb8AIOMLFogHCZS4aKx2mudZuhBeDo5Tqh37nymCu9oC8FzPgraQvBpLS6ItrPJIoRhTA3Mi5/kl4I4wTrgIGTp/dG/NEG/iCf3gMr/yNEvzaDL8jwADu8FdbUYKN0mYCWtAHL3nRf313TZ7CO30PvRJ+RPb1ET8cY8w2hi39d1GiHxIdAXQDzPsx3V07S40nEVJN7dL/4WlGGYfyrBaD+q+ULa8MypmEmFiKMF1D3QJUJwwGJXWuk32AqtHeQTiq7CwAj/pcOyXVtnYlA69NAK8OpD3lYumVCwMlZdzH4DBfHUfgXu9L4ZslbTas18Z0CoRu/SBc+ud++ocH8hkt48SwZVVbWfnKuw6/co33QH33YsxCw7kSgEvd8BmgtcvGhGZlLgQY3/QFPRSSjMgPz5yjUxl8SkSiXEJYZeXP3I/OmufyyZFH7E6txpMy8pSeUoDwqfOw2qe1zrU9GJWltjUdcmPM8DQClIGgN+5amtTp761pcHJvFujEVhp3vuOqNsKg0COB3kaBMp2eAmU6E+oeISV8jvJSzj1tpT+9DxukfwpYr53nSwG0S8lLX/RTHt4kz1F/jWWEEC/Cg/F94J4E5I/bf74EB6FXz7k8dQM5n673fGmzQftkKgqaPjonK7mH9pQf0+I6/ElfZ4KuHvVnCk+PJOVP8rSvLedynXdaJnloXK7w1s/SP8dz9hs1qFKEvjd4FjQ8JBbALSuuErdsV0R2AW2YEFdJG7G4vTOV57oTXyl5IB0hiBgeejMAyuZ+73CBPPWinMG1ESh7IQDd6Rtacw3kAfyJEQLpl/v6m5BT/nT/XYdPYxzquz9LAo5w5DoQPOH/RjBd/78VpunKeEcmxvn4JT98oDjkCSgnb9Z+BPpOoYkOaFnzUnFu0vaQ3FPWwihHNSj3oE8rK6vDestqKWeV68QijkuVnMtL59Z29QznBGRQqkEhPRpxrozGN0oYE+bAAxAvxTiAtBOmYlgYjbYImnP10K6uPGXVUwaM+/NiBfSiPUoUcB6rL+mHslGu5MsTnmVVN3kSCH73nAfXrIC3piFj+QgtYEzbhQDtkhf9A+hFk2tKmHx5UuQJpE9wOLqWZgd8HpSz68TWGIQhapmbW/v9UXtY6Yu2ldNeQJuU08JqV06EyiTgkvNpRpus5v6Aa21AUr/vCZwBEIZQzIlSOR9PwjvhladjQ+fWfhLOUfhrniW00z6PYTASBqNb/rTCvpgBv6f5HojQpU/4JOmbe3jnno0DeOQ8vIMvOMd8l9zPPH+jBNRdb2zSDnoctbVR2mzQZ32P/KIFryRy4Vq74Zf+e9aYuTuZAvLhkDcL6G/4qV54xRO65g21PVwPjmmgb9AbeapQZMfFxUFmtxw5cqQ/SrFKaneQB/5+xMb2Jo2Mwx8I0zBwLoXRszJ8PDjBYXDlaQOM7+c87bueLu96vbrBfaEhNG0E6H0+gCN9Cj7HnI/5k7zAOF+aLksYNoJx/fUAvsDzlZmGcZ1zQcZ2I0ifcg6macl1eADISGTo+eqdC8b9GNebznetjcgvoNT4b4eXHW+2EdpwsuWpp546q5x2ntgCZ/eJHSBCmECIdhx3IHA+HZkV0tZmwTTN/61wPvhm4c9m45sVzqfdWb3JZsJmj9uFAmM2VkrH8FM0QjkPH765v2ztvCtn3LudC7bB2UZHOe2nTEgwuN5zKGclj1JmYaQyQ7lzl51VOdfwnRtmLTcrwDULfeejSLPQt5mKCWbFp9yFikJmoVGZzebN+cG523bXLrvwEK2UUohto41tlN448obW5V7FFNbykGJ1ymgzs32ykk9d8Kh2LyRmHnbfT4R8LEjV0PCsc2NhHZR7NqWbVTlnKQdmEf5Z4XzanVVoZqVvs4VwVqW7UMr54qbPWGw8HoaMp/Rkwygba9v99pZi2jzi8zLDK4Cv6J+b6Z6TZ6SgVomEtvnFqewBpIxlkwbP2BVwUM5pQVovbz0YFJxQn7vsrAII1yxKstkCPWt/wYtZOeGaFd+FUs5Z4cIp5/j4/EA5eUtAZo23D3xdfMnFPZT1dtG1L3tZf0Nly5NPPnmGV8xqk1373hSX+vOWSUhrZemsYk6O0zCrsFLOodwsZWcrM0s58E+hoBvBrMI/az/OR5k2Ey5Uu+cDF4a+tDnbGGfFvH8xpIyJcwuvth5S0Jd4jW/PrralQtk+58zyvNDWa0dC2qwi9TC20mZ5zio5KXfusrPje3HD+QjMrP19sSvJZsKsfb2wPNH2Bu3X2NKdIbQtpSwPOt83IsxVzS1t1+5d7cBlB9qVV13Zdu5caP8fSv63E4vduX8AAAAASUVORK5CYII=;" parent="1" vertex="1">
          <mxGeometry x="460" y="-270" width="231" height="376" as="geometry" />
        </mxCell>
        <mxCell id="PtL3wAgKAEpK9odxt3dh-6" value="" style="endArrow=none;html=1;rounded=0;strokeWidth=5;strokeColor=#ff0000;entryX=0.986;entryY=0.959;entryDx=0;entryDy=0;entryPerimeter=0;exitX=0.976;exitY=0.876;exitDx=0;exitDy=0;exitPerimeter=0;" parent="1" source="PtL3wAgKAEpK9odxt3dh-7" target="PtL3wAgKAEpK9odxt3dh-5" edge="1">
          <mxGeometry width="50" height="50" relative="1" as="geometry">
            <mxPoint x="940" y="60" as="sourcePoint" />
            <mxPoint x="530" y="100" as="targetPoint" />
            <Array as="points">
              <mxPoint x="760" y="501" />
              <mxPoint x="760" y="91" />
            </Array>
          </mxGeometry>
        </mxCell>
        <mxCell id="PtL3wAgKAEpK9odxt3dh-7" value="" style="shape=image;verticalLabelPosition=bottom;labelBackgroundColor=default;verticalAlign=top;aspect=fixed;imageAspect=0;image=data:image/png,iVBORw0KGgoAAAANSUhEUgAAALMAAAFYCAYAAAAY4M0GAAAAAXNSR0IArs4c6QAAAARnQU1BAACxjwv8YQUAAAAJcEhZcwAADsMAAA7DAcdvqGQAAKjBSURBVHhe7Z0HfBRl+scf0klCCQm99w6KFAEFESvWQxFR7Hrq2Xs57+5/6lnPXrF7drArKKKoiAgISEfpLRAgJKSRkMb//b47bzK7mdnMphEwPz8jO7MluzO/ed6nP/U6deq0X+pQh0MA9YqLi8sls3qNzPjuO5n5zXRZvGiRbNq8UYoKC61n61CHqkFUVLS079hBhgwZJiefepoMHjTQesYbyiXzV9OmyaOPPCxbNm2wjlQv6tWrJ4mJTWW/+q8OtRPFhcWSvme3tVd96NW7j/z9X/d6JrUrmfft2ye333qLTPvyc+tIzaB+bKwMHDhYli1eZh2pQ23DMceNkk8//tDaq3789epr5Lbb77D23OFIZoh8xaUXyy9zfraO+COmfn3p1+8wadW6tYSFhUlmxh75Y/WaKpHedWSu/agsmVsr3vTs1VsaNmqsVdhtycmyfPky2ZuTbb2iLMaefY48/Oh/rT1nOJL5huuudZTIg4cMlQsvu1yOHz1akzgQmzZvlvffe1fe+d8bkrt3r3U0NNSRufajImSOjomR886/QM49b6J06tTROloKSP3TrJ/k1ZdfdBWiN9xyu1x77bXWXlmUIfPUqVPlxmuvtvZ8iG/QQO594GE57dRTrSPBsX37Nrn1pptk/rxfrCPeUVEyD+xZT0YOjLD2ykdGTpS8Nz1PcnKKrCM+xMWFy4QTY6RRXL51xB18xlez90ryTn95cNThETKgd0NrLzj2ZO2Xd7/KlMJ8/+/Rulk9OeuEBGvPHZH1sqxHoYPvP/m7IrWy5llHvCFUMh82YLA88fRT0kZJZC/ATvvH3XdIRkaGdcSH8PBw+eSLadKzZ0/riD/8yMzdcdyxo/zUhSaJSfLGu+9Lz27drCPewGfdcdutId/BFSEzBPzh8fXWngdExOt/ps1vKv+aVKwfGzxyTT0ZNThXJCzaOqIQFmU9UKhX33qgEBYjPy+OkRsf2mwd8JHw02fURQtvYB2xEGZ7n8RY//rw1se/y9Nvp1l7Pnz0SKK069TM2rOhyEbe/bYbrjiAkPvVbwDF9tfssx4oFObof1ZsSpKL7y2zOAdFKGQec+rp8sRTTzuu5MGwfsMGuXDCObJjxw7riA9HjzhGXnvzf9aeP/z+Au43O5Fxlbz6xpshExnw5dFxUE2qG43j/AkZFBaRQfvmZS9is0T1P49EBm2b+Ehh0CwpNiQig05tSr+TQbNG1U9k0LXlTutR1YNrXxEig04dO8rLb7yl1RM7fpr1g2zYuNHa84ffX8GPbMf1N90sffr0tfZCBz/isSef1NK2JrFsZXPXLT8/OPEjY0q/667d0bLij8LS7fcsve3a6X1Znr+sUOYvySrZFq8q1Nu+vLKkdsPm9Tt9n7Oyfsm2en1O6baxyH/bFOXbtsSXbCvW1S/dlDRmW7Y0Tm542uGmcUFEVLj1qHxwzbn2FSGyQc8ePeSW2+609krxzddfWY/84admnDj6WFm/fq1+3LRpc/n+p9kSHW2TUhUEfuqXXnjO2guOiqgZemm/r/RuHX9vB1mf7Lx03nJBpJx7TIp+7LTEvvNAnHRrq6xqJZHf/1rksbcKrGdKcfnYOLnynDh19qJk86ZcOev2Up/r4b3i5KV72/l2lEQ+5oIlZfRy8OSd7WT44DbqUZ78PD/VT1UBMyd1lgaJvlXh7v+ulxlzbZK1hhFdP0Jatm4vUZHhkp2VKT169ZaPP5xsPesMr+608oC6OuroYbJt2zbriMhxx58gL7z0irVXCr/bhsiewV/OPrtKiAwmnD/RelSLEKHI6Aa7auEGRWSQ0Kix/rcM/FQLN3iQ8HbV4gABImdlZ0nqrl0SFRMnTZKSrGfcUVXXHMl+1rjx1p4PdmLb4Udme4j66JHHWI8qD6zYTp26WHu1AMGIXBXwRGQPOMBEbpDQUBol+m7W3Sk7JS01XbYnb5Lw8Ahp1aqVPu4ErrVXz4UXHDNqpPXIh4w96dYjf7gqNL179bIeVQ16VPHnVTvsxp4bAg29MvCuF9c2tGrTQlq2aCHNmzXT6kVktM/tuS+3ULIy9kjjxgmSlOSsb1f1te7eo7f1KDhcydygQXkXKjQ0buyyHB9A2I09P9QkkYstz4Mb7F6LGkJsw3itTmxYv15v+QVF0rpt+xIDcO/evbJz5y5p2NDZl96kCS6hqgPqbmxcWY9PICpuaoaIwsKyhtQBhd39VuU4eImMWtGmdSvZv79YCvYV6i15yyb9XMtWLfW/IDV1Z4mzIBDVca0LC8r/TFcyE8WrSmzftt16VM2w+ZFd4YXIlh/5z4aM3Xu0xyI6KlJ7MQCE3rlzh9SvH6vVj/KQuqtqfdfp6emSn1++N8eVzIsXL7EeVQ2WLl1sPapGeCGyF9QmIgcGRKoBqBVNkhK0wQe2bU2R3Ny92othdOW9mdmyPSVFsnLKz7lZtGiR9ahq8Ntib9xxJfPX06ZajyqPufPmKQt0j7VXTQiVyB7cbwX7y9GLw+pLvXrV4xlp0GBXjRAZSdusWXNp0KixNvjad+6odWOzkrZq07ZEV85Kz9RbeUjbnSrzf11g7VUe0z1y0ZXMM6Z/VWWqxpuvvmw9qiUIQuSYCEsqW35kJ8TGKjXlEPAjox9j6G3dvFE2rdsgW5O3qZszTOvGJD6hK7PfqAIG3RuvvGQ9qhxSd++WqR5z6l3JXKAU7vvvvdfaqzhmzZol3874xto7SBCEyN5R+wMiDRvES35eTknGHqpEevpurRujXqAr41fOSAu9qmTGN1/ra19Z3Pd//5J9ed5WKFcyg2++niavv/aatRc6iNTceest1l4NwWtAxIv7rVy46dZVoB6YZCHzbxUCiYx+TJAsMtr/POzN9iXIR0b7fht+5cD0VK/g2m9NTrb2Qsd7770XUqVTUDKDB+//d4UITWbTxPMmyK5d/il81YqqJHJNBUSCud+qgcjoyAkJiTpMvEdJYrwWGH8GMbGx2q+MlK4suPYXTBjvmuUWDBD53/+429rzhnLJvH//fnngvv+Ta66+SnbuSrWOBsfkyZNl7Omn1FgRrEZVhqjLJbJHVMKPvGtXPd8DexpnJYE0RkdGF8YFB2HJt0hq2lQ6dOksbTu00Ubg7t3K+KwibN2yWf5y6hhNTpKGygM6MpVO/7z7DikqCm1FKJfMBqgco44aqhPuv5s5U/v+DPiSq37/XSZNmqST+/9+x62SnXXgE2SCIiym1NirDpRHZBvys7ZYj0rRtOn+KiUyaBCnpK7SkdGFDci3wPDj+N68fNm0cb0nj0UoyMnJ1uSEG5NeeE5WrVrlR+wsxRX067/fdYccozhW0SJqz2QGOK5J/bvqsotl8ID+0q93Dzmif1/p0bWTnH7yCfLfh/4jmzass159gFAbAiIhENnV/VbFRDZAMjsB3zLJROjI1QVW6v8+8rCcPuZEzRm4079PLxnQr7dcdtFEmfz+e56NPSeEROZAULSamZkh+z0sHzWCag1RVwO8+JHtFSKVBDoySUN2HRnVAz+zCY7UFOAM3AlWkR0qKkXmWoVQiVye+62q/MgucFItyqACRCbAgZHnFHYO1JHZjI5sVz0OVhw6ZDYIMbGeqhH7ppPtQyTy9ROb6I33n3WSLY/Xox+5T9fIMt+johKZgEd4RIQiqLOxbteRSbgnK66qdeQDhWonc5u27XSvBP6tdoQYoqYs6crz2vltDZo2sp71hvikCLngzOZ64/0nDrPq5LwGRPbnamPvyr9kl25n2IIUtuLT8oBUJuCxO22P1n1JFCLvwg5UjIJ9eSU68qEgkQ3KJTMJ2JSLX3fjLXLH3ffIDTfdovepESwP1IF9P2u23PefB/S/7FcbvEhkO5zcb34SOUb27nWWjjsybf0snIw9G5H3uWQu5hbWK/Uje6iiLg+oFXENGmgfMTowKkT7Dp10OqdROSA3KkbTpuWXPdUkevXqLedNvFBuveMuue2uezRPaCkQWJldHvwKWrt29Jee/JExp50ucfENJDY2ViIifYQpLMjXaYIfTZksK1cs18ecsGbDZhl7xmmybOkS6duvv3z82Rdl/kYgKlzQ+oRlwNSrL+Nvy3ItaG3YKEYevLGt9GxV1mi1Jw2tTM6Vu57c4tgghT4d/7mutfTrGGkd8Ud6hi+p6rOfi+V/nzmX+HRqXU/+eZlIsybOn2Hw66pC+fdr+6W4wPn3AKQvpEV9QOpSWFG0f7+O5sXGx+tqkfXr1ulIHgZfnjLcKyORy+ubMfzoEdI2YCXesmWz/PyTf3ibJpknn3Ka4kY/zTHavlGSBSPz83IlZdtW+d+br5dJUqO91w+zyzYYciVz8+Zq6bzkcmnUqJHe6GoUFeUjc36+InNOjqSlpcsLTz1WplGHAWSmMjszI0ORqJFQrVutZLYie8HIfKiB0DRkRSJvXFvWLYpa0bBxE8fnKoryyMx1d0LgtYf01JomJDTRfefq14+RSCUwi4uLlJqUJxlZWbJ29R/y4nNP6+CdgRuZXdWM4UePVBIoThOZHNatW7bou5stNTVVmiQkSJMmCTJq9PHWO8ri4gsnyvgJ52s1g3/ZrzZUSa7FwQeTTI/Lza4f42ojnRMikyxU04C49i0QtNoaMnS4WkUaKakcL7t27pDNmzbJurVrtFFaqAgNvzp17S4dO3a23hUcrmTu0KmzVi2QyLryIDpa1/GxFBD9i42Nl3hF9r79D7feURYsK2NPO1mHJ1csWypv/O9t65lqxJ+kQgT911SCmGR6u78YNWLPnnSd3lmdgRAnzP75Z3n97fe0bcX29HMv6i6fdsCrGMWpuLhYzbPMzEzNLzbC2NQZxiuSx6vnW7ehv0j5cCVzZES41pGNasHd00j9oQYNSosYeQ5yo/sEAiX+ky+mygKlLjz1zLNy8pgxWuWoVvxJiIxBh3GnNyV9IbBTMj1Su6IZb5XBP+7yNX/hurO1bddWrvubfzPOyIgoiVT8iVAbPAoPq6f5xWY4Fx4eqVacCGngUjgbCFcyByZ5cKcQQ+dfAxK3i4oK/fQZA/RjWntxRyKZgdeuRhXCn4TI6MCkbaLusRxzDSCw12T6vof1lVsU2R58/DF5/d13y2wvvPaKfv66m2+w3hE62nfoIO3atdePN2/ZqkPYJBzZUVDoH64vUqYb/GLDJrMjXxm1XuBqANLcecjQYdJUGRfbU3Zo69IgKqa+9OzRUy1jaTJ71ix57eUXrWdKgXI/dNhwba22a+tbJlh+Lpk4QT92Q4UNwKeb+nbqRcndT+yS1MyaDc+G769YP+pAHNYzVrq13CszFkY5tuQisy0nO0cvy82aNdXETlZEMRIY1aOoaL+rRMZ4u/qa66SekoQdFekCsXt3mm4lu3dvtlxy/oXWUX94MQDLM/zRmXHFtWzVWhor+4sb044WLVtJUlKiss92y+OPPihr/vjDeqaC3gxUhaYtWmpjDx3ZDnS03am75JEH7pOtW7daR51BwOQoRe4Tx5xSvWS2h6g9+JGdESAFyvEjV1U3To1C/zyFm17sLLN/8wU/ALovKgYRvjC1BBfsy9X9KyAuXg1cceW53GoLmQG+5JOUsEtUpE1s0kT9Ltv1U8jISJeVK1bIfx9+wC//J2RvBu42/Mi439KUwYcU5gey8Xj3rp3y2iuvlktkwBLz/rtvl0vkSuEQIzIY0qdeGf04JzdPR/mKiwq04QeR8WLgnqtEw80qRaAXy6iZgZj904/y67xftB85Vd1EWVkZWkjm5GTpotgN69bKqy+96DmRLWjQBBDpGzX6WOnV73BpoIzAPPXHVqm7Zea3010b2FUGFZbMNPgGhwiRwd2vd5PVu1ppNQIjm65CNGfBx5+Y0FhfeAC5dRsADzkWEL8pUcCkJtIksaxuXVhYJOvWrdc3y5aNzoKqPMkcKpgqddSIkdK5S1dtFO7atUsWzp8nP/4w0zElNGQ140ChUmS2iHzTf9bIhuSat+KrAr06RUm/rsXy44JC2ZHb2lU/hpSN1bavsFgy09MqFdELFVVN5lBx6JP5+R7Wnsi4GzfLxq3e8xpqKyqrH1cXaiuZa4mWVQdA3gQENpE8kulru35cm1B3SmoJIDGJ8pQ1kTSEP5lk+t3pezShccmx8Rz6cU1H9Q4GHHpk9pRYf+CAZDUROgOOmRayJARBYFI1kdTkHJMNR48LCk4PpWT6qsahReZaTmRIjGTFmDNA/+UYMDowBCYfhhni+JiR0IdiMn1Vo9oMQBzn9EqYO+fnkErHQzEAh40YLmPPGqcft0kqdaUlp8XK/tKfVasQHhmhdOAiZdSFS1GBj5jR9WMkQhl6eXl5JccIapCcTngad2h1/55nn3nGc5roQe/NiIyM1BeAC0EfuvJAqRQRv6OGD9f7hLLp5kjwJBhCIfP4C86XY0aNkjWrV1tHDg6ER0bpHha5ubl6TjkgOT0yPEwyMjNLcl3wLYdFRCqC2/zV1YB+AwbIs489KgvmLbSOBEd1kJnfSi4zNzGNxYM1gKkwmXFoH33MsZKQ0FgilfQAxMtnz/pBV5CUBypMrrjyap01B8qT/pD5oWviJHDgpBnZYG/csiHmn7pUff68eepE1GwuRkURroRCcVGxrgapH1tf0nbvloL8fHURwyXRmuK0OzVVSeKa8ZMXqJXg+JNOkqzVT0qroqUS1qhUVbOPyTDnfVVKony7tHWVkZnBqSNGjpS+hx0h0dGRmmOFipIb1q6R72bMcGzvViEyM2/tiEGDJb5BQ4mJjZfoSJ/hsq+gSPL2ZsuPM7917fBJDutRRx+tLxqZcz/Pnq0HfAeWzgQCMj91Q6yM6rdRKZnxvrZbtBEIi5LNyQ2lXXt1sgmOhCXIutzTZPXmYlm6bKk0bBhaIeqBAP3dEhISdFYY2WHk7pJwQ364ug5lnq8JpO9OlWNGHyf7Nz4kwzv+VHLOd6U31IW2Ep6gWBJVcs7nL9klU35uE5TMXsumzHD4Fq3baI7Vj4mWCHWzK7EseeoccF7efet/ZRoLhUzmTl26ybhzzpGGCYk60Ygk6girY2ThvlzJydmrczbeeOVFv4wmA5KzUSu+mvpFmYHewWDUjJxdy+XZ2yKlaeI+mTY7XB55u54eDtmhTZy8/s/OEp8Uf1CRmZsaKSTC6a6n9OAcyc3bp8kLDKHJIycdksc1AUPmiO1PyOB2c9WNVKynti5YtV/CIuvJteMTdOV5dlqk3PzkOvltZU65aobXsikS948YOFBxLEkSGqqVKi5O5y8XQmZlP2QplWvbtmR5/JGH1fcqTQcIOWhy5JFHaj2uUaOGypLeLIt/+00WzJ2jt3Vr1yqpQm1gQxl17HHWO/yRpQg8W92JDRTJvps1R//AUKqzqeF74v16euQvBZ1myimRvQdeUzdPcbrUz5mvj9V2xCl1goTz9PQ02a3UCogcUz9O5yGYnn2UqIGCwqIaI3IZKIk86etumsiAItpn3knTRH596hZNZK+AuPYtENhgFLIikakmWblqpSxc8Kv88ssv8uv8+Zo/pIa2aNFSunTxNkPSlcyt1TJBFQmlUegwHTp0kD59+yqJ3UXylYIeraQ0z5Ec4gR05KzMDLnvQVIB03XmVKjjZ9dtUUvNXqVjBlQmr9mq9GOvfSlqASKVREZ1MCTN2ZurJQ3njwqLzIw96matBeF3pc6t3+x/XrFFl6zfI8vWeDdCPZVNxTXUN3h9xTEKWVG34BdbYmKi4lyxxCthykrduk1b613B4UrmcGVZ4y7CwgR4MviD4cpQMeA5pItT2dRX06bpkqn+6u6jZGbpktAH9Bw1sLF07tBUtwewY8QR6jsF62tcy4Blzrm0A4GAukFVck2qFW6IilLqTngjnXZqB35uWiocPcB7+zMvZVPhSp0KC4+QMItj6p728UttpcDDoYxCxTEvcCVzbm6evitJOQTknJLjjPVtwHPofU5lU9dfc5XOa71o4nk6nxkp/Y+/e2seHaMMgwvPSJC/jW8k4VH15bHb++kB6yQUcfy68Url8NJ08AABw8anI/t6Yuzbl6eMu3CtbhhEqYtk9MBYJZlqBcJi5NxTm+tzzLnmnD9+e0dp0HifXHBqhG4bxvHywPUmdx31YuBhfeWf6roHlk2V6MCKO/CIGx5+seFXNyCXGd3ZC1wNQJaH4SNHSYtmTfUSmGf5QwFVtW3atpf0tFSZ/tVU3Yo0ECwtxh2HlA7FNffKff1kcK/cEgtaQ+nIWrVAIkPkogzZljtWluweWKsMQCdDD7UCIqMn+477oKvc6RWhXm9055qGMQBjd78hh3XZVu45X7EmTN6Yc4xnb0avPn2lb98+8pfTTtH7Bqzm1998m64XxAgmh9kOKk+YALtDHX/4P/f7Na4P2ZtBlexfr75W2rZpI43UH6O/gR3Z2Zmyfds2eei++yR9T9kBLhh83JUYgLTmQkqX55YDkPnCsX2kecOyFzeyXoCe3OZmaaR+sBcyd+3WXRutVYm96iZf/cfv2mgDSGKq141nAsMmOiZWsnOydZI5zyORWclY0XiNKa2viCsOEiSoi06pPqDYOD0tLaQbw5B5zo9fS/Pw2dbRUgSe86WKzAXxw0L2ZjgJsf6HD5SzzzlHkpo209cGO8ygqKhAl13NV8bgpOeeto76UCE/M7V7Ey+6WFuU8XEkyPiWzcL8AtmRmiovPf+sa3Nxr+6ZQBjXnNcIIAPrvZD5pJNPdqx5qywYLzdNrTwEPThHSF48FqxerZQgaKOMl44d2svCRYtk+TLfbzrt9NP1TWj0Q8g8R1nxVFyXByR8v/6HSbdu3dTNESVp6RiPvkqVOPX3kxKbaLfWylWrZKUyulgVgsGQ+a3XXz0gEUCk+JjT/6KEQLzEKWMQPzM3eZ662fn+r7z0gu4DbkeFyAzwaBx++ADp3KWb7l+APrN2zRr59dd56rH7ifLqOA/EwUZmsGr1avnhu+9KVIxu3btJzx49tAeDGsms7BzZuGF9icTu1LmzLhhu0aKFImesJuUPP/4YlMwYSP0OO1yGDB4smzZvluXLl0thYaH06t1bmiUlaRJg5+CXJULbtWsXad2qlR4oumzpUutTyuJAkxlwLvoffoQWnhh7Gelp2mGwatVKx/q/CpO5pnEwkhm8/fbbJVG90ccdr6NZEJnqEAiWq6SlqWdDMjdVBITsy1es0H77YGoGgZTjTzxJB6++VTdNyvbt6obpLqOPPVY/z+CkP5S6c/RRR+l91I333ntXmjZrIceNPlZSUnbouXylV7oUtYHMoeKgIvPxR3WSvRkp1pGyKKrn0xGPGDFB2rXv6InM+Crj40u7fDoBN5AhBGDo0HZFnAhcRpZrjTZlJMt379bVz902+cOPdMW6CUk3a4Ye2FhJm7Zq6U+U6d98UyJ5+S60lW2rnkPd2KdIPfP7H/T7A8HnnTzmFC3Bw5R4Rj//7tsZygboJgOPOEK/BvK+9b835bLLryj5Tt9+N1PWrP5DqyUYYQQinGDI/I56f3G6exDKnPOdqXula7/gBmB146Ai8zu31JO+vawEE5OfEaGsbJojhje0LO76si53XJWGs9FzL7n0UmtPFMG+lz8UoQOB6+3c8eNLDC8wefKUkm71gTkWicrAoYmOkb4TJ07UKokdP/44S1auXGHtlWLo0KHSvn17TfgWajkG3GQ0rzQ3HurGyy+/LOeee25JeHzBwoVqRdgu7dq1lc2bt0jyVuexE4bMJbkZIMg5X7wqQt75Pq5WkrlWJuf/sLGlLFupLpztpL7/tcgzH4TLz7+pr6yT8GvWN8tSzwZQF9xSFCE6+Qa9+/eXI5TkPOaYY6Rv7166C5TBh1OmaLXEvjkRmUhYv379ZMaMGbpK2wBXKTeMgfku9pUCGdW1S2c5TH2P0087Va8QwRCpbmQNdc5XbEqSu19oJJM+ilI3YFM/Ik/+ovxMyQOFWknm3za1kUufipFp89WJVES++v5CeeytAt24+8aHNsv02VjvNRc0QYo2bJSgNyQfRMrP98/p9oWnY7VHo7tSARrFx0unTp200cy/zZuWVpfgs4foZ5xxhtbliQI6YcCAAZrkeEdm/fiDzP91gfZ6LFJS167/Z2RmWW7BUmmfviddEpNK/yYqTblQRF62NE4uuX+/bg32ysc5cvm966W4IEzmL8mSv/5jvmPLsNqCaiMzrrl7H3hYB18qije/3C+rN0WVJL4YfPR1shI9uTWSaITOicQjSYgNItOzOhB0SY1W0pc8FLBu7TqtZph/7UBat2nTRhYt+k3WrFkjJ55wfBm1A5WHm2DZsuUyaPBg6aoMPgiK223MKadIq1a+UiuwceNG7QmwY9eOHdLMNu7Bkx9brYLvzWskVtBXg4SvBb/nywfTs/2O10ZUG5kJXbdt107H5iE2iSdUn4SCJkpVc52iWkOJRjpJyOpCSWYbrjVSWgsK/SUz4wtwvZkASjAYIiN1yUaE7IFuTHzU6el7dOYihh4VOycef7wcO2qUtFE6owGVKiTx9FfqhEFKyvYS3dmA5pflAh3ZBdGSZj2qvfBE5npKGtEcOqFxov6X/fJgessx04RwNheD3mNeQS7tJed0kXadmsnxR5YmuXD88nFKKhVVfYUyyVV24N1AH4XQRhpDZAgdiJzsrJLjuNs6K30V15wpXiUsa0BpFMs+0hifM35mjtmBvrxz106t97qBvzf9mxnSuVPnEuMQLFHSvFPX0mxGCJ+eulOvMm7QiUbK2LtqbLy6aUuTfcjPGNw3oszxqgb+eT1ypHFj7QSoCIJ6M4ifH3X0SBl05FBt2BCKBQRO5syeLbNnz3J0aoPKVJrcdnFrGdmvniayMfZ+nr9VUnbslEE946RdGyUV9+fKtpxTqzQ3g4t94UUXW3s+D8PatavVb2ikSE0net+gGPTTM878i3a5GRg/Mzjs8MOlsbow0dExyvL2qQOfffFlieuNc4KuzPsh2iIlnZHQdlDbiKHXTJG0nZLSgSBw8sucObrlsPE3A3zO30z/WntMDDj/6NkDlIT/6Sf/kLXxZthzM8hf/vl332qkR8GxCirhsWtnnnw8K1LWZg4O6s0IJWCGcDzhxJO1q5Gbmkw6kJKSIjPU71ivzn8gQnbNQeQz/nKW9OjVSxoow6eButBhFpmLCwoka2+uLFk4X6Z88L5j1lxlKk10opGSBqVeC3ViaWRonVTdmLAwS7btm1BlZCa0DDH+cuaZ1hHR0bPfFi0qybGA0ACVYsTIEX7S0E5mwKSuAQMO19J5oSKS/TlDdoxDkxG2bMVKPz/zMaNHS6a6eSAhXhTUDf4u4fKsrEwdEDnssMNKel8DJPWHH34oQ448UtorFc/g/fffly5KUuOr/uGHH6yjPviRubv6juWc8xXr6pebaOQ1lYFrdv6FF2ufe7x6TLQ5kgJedZ737cvXq92U998tU2saMplJAjn5lDFK92qi58v5wq6+5b6gIF9LlD1KR3zvnXdl8aKyhhiS+ZGHfGrFm++8r086PXvL654PmYkApm1zH8lmcOwpF+gEooqSmRBxu46dpFfPnjqhyu7uMuB3rt+0Sdb8sVon0VNoujc3T04//TRp2bLUCLOTmQgfem3q7t1KmvkIaicrUhO1whAZQ2/u3Hl+7rmhw4bpfzds2KC9GoUFhVrAxMbGSFJS0zL50fiap331tT7PkNxg7dq18sP3M+WCCy+S3xYv1jenHYbMb7/xumxbv8A66o6dGeFK8h5dLpkDiet07JxzJ0iPnr2kUUKiUmF8s024YUkJpQMAKxPn71HFI/uM7ZD9zPhKSVzBbZSspMvSJUt1WQvbH3/8oUOrPDdy5NHWO/xR2UqT5J37y93yPRhbbmjRsqWcM/5cOfnEE7UUcyIyIOLXUy2B+GpHjDxGJxQhAUkuev2110o2pIjBli1bZNWqVSVEdgJeDqQkW6C3A2TsyZDmSt9Gj+T7de7cSZG+o076CiQyhufHn34mnTq29yMyN+Kcn2dLd0UYfgcZdW6AQE7nOHDz0oTGS6UJUrij0vVZcSDxqpUrtaoFv4hW8puIoJIK2rVbaVPMYHAlM6IfPTnWMhowaPqrE4UkBHQ557nW1uyKQFRFpUl14YiBg7Q6EWjxlwekHlG2Du3bKwIWaH+x2UrXt/KBVOZ8ooqgcjgZgOiYSP59QZK5WAlmzZolc5TuPFrp2MyQsWPmzJlqyS6WwYMG6X1yRGoCXipNYmPj9O+mbAoexURHaX6xkQrge028XqmbN/ftlwdXMgNEfoTSYdzAc0gJp7IpU2ky6uhhJZUm1ToH0COOPvoodXEHWnv+QOJCEFxbbjnB/F5WHbwQbujTu7fWhw0CgyY/fP+9VjHQqbsqXRYVIzDczPfAmGuopNPnynj8Ze5cWazUBMLUSHOOLVu+XHr37iOnnHKKJCY2sd7pAyTH/3yMMg6RyuuVuhIY6Kku2CtN2EjMD6w0CasXVlI2FYxj5MQErkRucCVzZmaWVsSN0bNNqRpMy9y8uXRAIpM0KadyMgANSM43CLRw3XBC39/ltRvy/LY3/lmvZHvuX1311tfmW/WC3opkgdILMAFg+owZ2tLfun277FMXPTl5q87N+Gn27BJd2I7jjztO51y4IZga0dmqNsY4RBXBfef0WSy5+Jh37UzRS/Dq1Wu0BOvbt59We4YNHVqGxKgWX02fLitWrNBqkYkULvg1uD48rOsGT+f8+on+f88JDN4xQE3CuxEIuv5jfyBA4BgTZuEXm/EaARrmpKeVLf5wgqsB6BuecqoW+dwdfKhBWHiY0mcSJC01VSZ/8J588/U065lSVKZsqiTRyORmWE1gAhuShNI3A/1r/PjxZXRjJB13PjkMToAc8+bN06Hh3r16Wkd9QHpPnjxZXxA7MAABhI5S5BugVAn8wUb6GgOQNNBd6hzyb6ABaMBnkTdOfsYpp5ZO7nICedULlb5JhyQksiEyYXBuDCeUSTQy5xwQRAk454tXFZabaISxxzVndSYySaWR03W//Kq/KX2+jyQlJkhRgP0DD8gS5Pz8+5679TAog5ANwHlzf1FSeLNkZvmsSJa7JolJeqPXAdM/165bo+dOOAHyUjY1asRR+jEqRnlENnjix0Fy9ZMdZFdWS03k7+eGyei/hcugc3fKX/+drv2goeIwJeECifyd0ik7dujoSmTAEj1ixAi1+ohe5u1A58Y/GggvakSwcLcd33/3rQ5dY7Bu2rTROloKvBgYVzSpnKX+LjV1551/fgmR+c5uRLZDJxopItME5qYn42XwxTFyzF+L5aPpSpdXRN6X31JueWSD/PUebykE6MkINKpi3DD9q68kO3OPZGVn65ueGSuGYxAZl+7Mb6b7ETkYXMlM4sw7/3tdli/5Tacb7txJZXaq3nj8q5JWzz/9VEnCuRMwALkrAaOG3fyPTiAfwzSB+fsr4ZKZ4fs7NCL512vqx4XQBIZgCB4JO0ijhMiBy7Qb+vTuKXuVhKRMyo7Dbd4Dg0C1JNC4CwXZOXvls88+k51Kj6fsCrWFQZGQdOrUqfLqq6/qlaOj0ssvuOACnRaqPRdq1eB5mqp4hpLIr8/ooMe1cfPSeOfhN/K08Hjpg99k1tzt+rgXXDzxPGmgVAwMwEkvvmAd9QdFqm+9/pr6d1MJxyiS3p26U+eWfP7Jx/LZJx9Zry4fnvKZuVMo8aEpB7pOyvYUx4Z2dlRF2VSn1vXkvmti5fy7/Ruk0KJrymMJsi1jkGPQhAgdU5PM8t9PSd7hlt8WIM1QL44cMsQ64gNJ7hhV6GyMWujZs6cmhgGfN1Utn6edeqp1xAeCEnaD0Z5IZNSMKVOmlJAc4xFdGXUAT4jZd9LNywPq07DhwyVa/WZ0fdxvG5ThRzWKFxg1Q7fn6rJabno8UpPZjvtv7qaTu0xHo/IqTVAtAg2+YECNxXOTmNRMaOGbk5OhVrJkP9+yHSGrGXYgjVeuWC7z5/2iozHlERlAWvIz7Ft5RA6EaQITmBMQrAkMqoSelG+1u8K9CLHs+GPdOmmvlkE78BxQakTEjYoQJBoEtI9X5rOxIRj8aAc3uh3lJRJRQk8K6JHKgIP47dq29ct3DgXceNOUBP7kk0/1v3xvr0S2I4rcDGWXDOjtP6c6PCpMhnUvCqkJTChEBkwF4D1LflugA3D0LnQjcjB4IvOBAMlFpgnMk3cfoaUxpOb4dROUzhzQBMbow0hPhiMSPYLIqEG+qulSbFd3fdMA7wFRskDXFZKSqmo7IO727f7+Wnqi2YFaESyRKNB1V2ugjL3zxjTUTWA415zzx25uU9IEhnNfnclGlUWtJPNVZ+TJAzc11UTGgj6sZ4RMebKd/PBaS3ngRqVOWA1JDIhUEnaHvABSUuULiTmG2mEHqpLdd4nHggR4J2zd4m+48ZnGKDaIru8vVTEAGzZqqL0Wx4wcqROJnAxA47pjc6r/q3HUi9Ln/LqLesoPbw3R53z44UpVs5rAPHBNnjx3i7/npjahVpJ51m/FMn1erEyfUyTTZ6fqbdqMP2TazG0y7Xv1+Mds3eZ27lb/MCeNCA1xkci+6g9/qewEUj39e5yVgrCrHVjZgV4RtRxYD3xAok+ZPFnna7z7zjtlMuJqI75d3sLTOZ+5xLkqpjbAkwFYk7AbgOXBtBpYsXKltGtHiHmfXtLJKjMqAwbSSSed5Be6/nnOHO2FsBekEhwxTVrsOPHEk3ROhMH69RuUobVP98UwwJi0Vz+brDg77IlGVJFg+NUGGAPwUGg1UGt15lDgi1Lul2IiScrYokWWKT5lVC8VG3bgqSAf2I6h9KO28lAMaAlgJzIgLGxPrwR79jinuAarAaxD1aNayUwNIL5lwpv8G0qzcTcwaqxDl876XzsoGIipH6uXeKpDyOhDHcAg3LCxtOkeoHk1HgvjugPo0L7GhqUI7LOB+61ASWW7RAcpAb5nnf2lpDUoLyhSh6qDJzJTLkVBJcN2+Be/sxdMmDBB1wJeedXV+l+vKaDR0VHax+y09e9aX1q1aqHzLJpTkmQlOdGIUO1oiYw0htCmknrDurXat2zHEUcMKFN1EQwQnxZaR9maxACCKIH+YdSMcePGaRKTHYfqk2fVEdZW4N91Ot/2De9GYK/sqgD2ClFOsgjhWPuOncvYKl4QVGdGfz3t9DN03ilSz3gAIMaqFctk6hdfiGna5wSkMeFscprJomK/PL3cLzcDmFwBe0OSSN9nkJuxbQ/l8cvUCQnT/tvCgnwdNYPEJLnwXSHb4QMGlAmSkLNA72TTTMXeyAV0V3oxBaR4O76ZMUP69/ev7ABfffWVzk6zg3wKEn0IhPTp00e35qqtRmCZ3Axgz4kJV7p/iE1gQgmYtW3fUU497XQteCAwxEZwEG2d/cP38tMs/8oYEHKlCRb+xAsv1s1DGqglm6U1xqo0yVOEoZ0rPdJef3mSNrycwF3W0DKEli9dIuPPm+ip0uSKs1rJMR22q/fnlJzUj2bWl21p9WXIYUkyuL9P/4TMG3ZEyaaN67WejCRECho3m933zOPA6hBAKiUqCqVG8+bO9XPRMfKC+rtf58+TYcOPKjNbY/PWrfqGPpjhFwFs9a0mMk1gZi+PlUZx+XLuKcpwjkgsIfJP89fI5pzDyk00ckKgIIOUEyZeqFVCagFpe8botKLiIu2NylJC6ftvvioz0SxkA3DwkUP1SCsmAXHHxETH6OmibLFqPykpSbp066FIMNR6hz+4Oz/+7Audk8H2/U9zZEVAtYEbaAJz2dMx8v0ipc4oiUyI9f2fWst7X2fJP55L1eO7DNBh6ea/Ly9XEZmbrV6Jew4Ss5nHX3093S/sDMjNgMBEzwJ9zespOfrhB90WNkr9fjuQ1rPUc4cULCJf+qDoBjCPvVUg425VAsUi8pX/96tuxOMFENe+OeHEMafpShM8TlHR0Vq9DFdqIgIJwzmxSYKMOu5EXbHtBa5k7tPvMO23bdggTjcVX6/0zvVr18jq1at14xJSQBs3jJdhATqkwb3/eUjX/PFDyJ5795239TGvIKFl8kwl/ZIbytwVvsWjddv20rBxE3llijK46OquwB0NUC0oz8Kz4VYxzt3+xeef6dq8UGHyugFEJoknUFc+6KFWwXe+ifIbiMR0L7oZvfXFljKDktzgpWyKQJevkFWt+koir1uzVts2cGylUtEQOqiJDRo1lO7d/VNv3eBK5sbqQ4iiUdYCaErSpVt37c/1wTfbOal5K2U8lK00Qbc0KgWpfP99+MGgubjBUJhfpMhdLFGR4VJUaKk0RVklWXPoyoAGLOQqBGvEgpT97NNPyrjmvIK8jI8//ljP3jjkgI7sglCawHgpm2K1J4mLqaxRMdH62sIvNiQ1oJN+bIzSAmxuzWBwJTONXiib8pW3O0M/7/oJPt3JvoUCZVzLxDPaljSBIX96a/I2rVfZm8CQCIR6YULZXkBABbWCYIeZplUeKE4g7fKjjz7UN8yhBp1opIy9i0+PkMjo0mtumsBwPCLKW17GmFNPkxuvuUp7sHAAAKfkI4qDsWWCcYxCEK9wNQCpAujWvYfuav7777/rdEVm1jHmC4k9aNAQPdeEbLqH7r/XelcpKpMC6t8Exhe5I7y6c2eq73gXtTrkb5VtmcNlSdogWfPH7xKtSG7041CAfu2lNs7r66oTBHW69eipM/4aKaMJ3TIQGMHcbNu2b5ffV60qVxUyBqC9CUye0sKm/LRDmjVLkuMHRSrCZWjhQROY97+P82QAwiX+hcxOlSZc51tvv1Oatmipo6ULFyzQJWGAlRXHQ4cOnSQtdZe89OLzOmPTIGQDcMH8BVrHZPI+eb1Uzfbp19/3b5++Uqh0SKTiTz86G0Hjzz1PT2hlu0LdGLTm6u1Qf+eE7p0T/YgM6KxzwWmxvm5GBTvVbej74ejM9C6uCJGBV4IeaCIz7PG88ydq9yIeGbxLuEoDN47js6V2kEQnmi56huV+i2maIBeM7aDPuSEyTWCaJmTKsf29rUomQAaRA/VlwJwSvGGUhOE+HThokOYXG27UFq3b6oSwzOwsWbmy/B4qwFUyowePn3C+DBg0WJooYy+uQbzSYXxLOb7ZnKxsmT9/rrw86QVHg4u7EsPvSaX8o3+/PGmS1p8C79BAcMcOH36UpCb/Lh16DJaMbfMlXZ3LBCtjMiPDl1/cqFGsHHXS5dK0WXNZunRJuTWABzNoOG7vhxEqzMwVJxjJTBOYXVtXWkd9CNvvPxgH7NgTJoOGjggqmSEyATJ6pWRk7NFuWaeuVgTjLrvqKp3/jcdCT6yNQEgxXjpbp82+88Zruq2bHSH7mQEO7NHHnygjR40WpgHRQBDgBvth5nfyxeef6sRqJ5iCVpa50085WR9zK2y0AzKbRCPC1gYYCCA7K1O2bfWNiAhlpokB0TnyiUme792nt/bM2AMa5SUJUUVN83A79qgLFUpQpLy/YUenzp3lxBNOsPYqDrdEqgOdaASh/zJunG4DZ1YbBsFTLP3RlCk6YT8QFSKzAQEUHNuU5uTnF0pmZob6t/xkGfRmc1fiZmEJcdOZKZ0hAahZizbSrVtn+f47X6EsCe5F+/fL3uxsiY2P168hrwIPR6hkJlvtbHXiIPKRRw7RecaBJU2GaCQHOVVOVwWZvVZnYxxR1xeYCxIMVMxsS96qZ7GcfLJPiACW8jfffKOMunSgyWyAEGuorjUCNEepIKQkuLlYQ9aZ7aDvFxWy9JdITd3picgA4prlhX+DGX+tlI4UHhktO1O26n18yiAtNV0ydu/RbaHClepDfwWIXBmYNrPNlYoCMG4NICWBEgwppyQhpCfkZVujngfofqHCS3V2y1atyyUyN+HyFat0rwzahH304RTH0ikkXntlUNVWoEPj7oRjuhdLBWwgT5K5uoHPkcbk1H6hO/3nxp7SJn6Nfm6nFd+IS/KFkgts6ZOZja/S0ZVQ1AzSOul5TFYbeRNUOjsNr6E2D+kM7O1oeT+d7kk6ooqEMnm62X/x+ef6eS9AMrM60IrA/m+gZMZ4MxOlDAjY0MuOBjJsgd4KVrIWykBs2bJlmT4f9L/jRrXDSOZ1s++RNo2co3tRDUrrJddvzZalKf2rXDKHgkqpGVUFiJqtLr6Tno2awXHyOe67MFl6t96o3jBISkqkIq32sRVsAmNAZha6cnRUlPaCrFi+wo9E4845RzIzMpXUXaM+s6Fs2Zrsp8uaVrXMFjElUejgVJV4BXqwl+psOhIFEpLCgqVLSlu80pS8tTKgWrZoKS1aNA8qyQkU4V+3w5DZrwkMiGqizjHnOsHvnHtpAlPdqJSaURWArDTORp1wAkQ2oenHPu8jN73YWbIy1H54Qz18/Mzrd8ngCTvlpodSKtQEBqAzQ0SMPiQh/7LPcQPm8dEeAKKiTw8cMEBLOwN85fh3eX79+vW6yQud8kMBxKWZOP56PBXcNIFEBmFWgYEdjRo2KCk8AFTVMGOa6he30i+DqEj34IRpAgPufrmVDL6onm68M31+Y4vI9XUTGPIzaitqjMxGGjeI8/lB3RAeEa2TTFZuaSCTECKFO+Sax8J0O1XyNejp8OKXOTo3o6IDetCV0ZuNzmwHUphuRLoINXmbkgKt/II/kA6DEYONJfuLzz4LOb0TIufvI9e5i3RWUpmbBvXFC/DxX3rZ5XpID75n3KWkoFJE+8brr+lQO5HKwIQqr5g0tZ2eKMUwHhrv/POZNVp4THr7D90Exmt+xoFAtZLZVJiQdII3Y9rXM2T7thSdpIRLJhDZiiiZmXt0bJ6EonmLUvS0KTrr2MHxigzoYUmnOxDeGMC/7NvLmPBm4PeEYEhoSG1XQ1AJGHmGREf3xTtiest5BVNZ0XuNVMcA5JhX4OWgdIs8bL4DbXaR8AlNkrQRhQH46SefWK8OAUq1+H2Dv3EPeX/+PU8Wlp3tWetQrWSmwgTHeZZaBt94+119LH3PbiEBvmWrFiVqhQEEz9ubLTt3pMhGZeV3bVPo2ASG425NYIIBdQKpuFp9NlKVpHnTkdMAtxwEo6oaoy5Q6qIi8DzGFzo3iAkhLwTwXlyDDeJ9yzqfQ1ZiRYAE3rRpkzZkGe1mEDhsqDzo3AylI/fo6J9sxEAkmsAc4a3f9wFFub+YJJ7DBgzWqXy07T9z7Nl634yEKA80Gacb5JbNpR4DpAeJ1y2VumE+hxwQCA6YZ3HU4RFy1yVtdB+HR27tJK2b1ROS88xxbRiGCHRUfLpnnHaqXtYx7jDe7DozJIfAbkWnzD1BaiO9MRQxBFE1QgFuPaQxPmZuHm6QOI8GrDLYtSFHEASjk9ZgSGI8MujetCI75bTT/AYNeYYy9i4/u6lO7ILElEjde11XaZAYJVeeE6ePkwBW1UCI0XV27NnnaI6dcNIY6dTJX8h4QVBvBrrtWePG6449JKebxBYuBI3uprz3tvYLusEeNAGoHaSCAgzC9u06SHhkuOTuzZX6sfUV4TfrMLoe0NMr1zI8rPwMpSMX5edKeNheH5GLMmRb7tiQBvRgyKEifP/Dj9q9hgGH+w0p7LViGuITrYKEEBtAxkCXVzCUF5gxYEhPYMPHQG9GO6Vu4D9u366Nn6HqBOoVP/3U/8Yz3gx7opH9nGsU7i455xjj5Q3oCSXJbPCQoTLy2NHaC4Ngi1DGbaGiZFFBvqxcvkw+UX+HHCE7QnbNoQJcctlfdZtRXGr0brOTmfZXqAN0AjU6aCBM1A84/RC+fPuOHdQXL1JL7xb1uft0JIisuU5tLBdRAPKzSiV8qw4nyfrCo0KKAEJEJK+J5BH4cPIzmzo+oo124JobOdK/eTZGYSiuOYNAf7MXMgf26CCbj8lTtA1r0bKFtFL/EiBxQjAyr1/0nnRsUtpI3g77OV+9Pbbc0WnYSU4IFJa9eveR0844U60ACToJP65+fS3kWH1YnfHULPp1vu5TaEfIZEbU09iPSuz8Av8QKKSA4BlKX/v6q2ky7cuyAQPuTsqlDLjg111zdRlSEzAhwmi8HfbcjPJQkXA2v2muWpbdJLF5jZGaROgCSRYoAY2/OFS4BWYMnMgMyFbckpysbsKtsk39a3frMUErIamZtG3TWvcCsSMYmasynA2ZA4kbeIwV+Nrrb5RmLVpKI7XyZ2Vl+7kcExS/qBhPU3bAk48+5KcBhOxn7qkkUHRsvL5wGBmk6hFi5MJtT0lRxxvpedGDhvifMAOvZVN8rlMQpbrB78IDUBFAHvtWESIDVBPUCyciBwNLcveuXXXlONKdjQALnpZIpQ7yWb+v9M+Aq0l4KZuiAFmP5FMcQiLzneEXG3wjstpISetYpRF07OxNf3Ylc0xMtJZSpoIDdYPu7faeGTxHAlJ1l01VFSDdzp271EXvonU6fLzor3bwGkiGVEbNCJTKEAaJaqQz7bu8+ogNeD0E5G/TLZTATGXAdyFSSHbdpZdcIuecM14JmYrdqFUByqYYLx2sbAoVEx85qivFrEhl+MVGKiggHbQ+WoDimBe4kpmyKTiKqAfFRUW6sQpl4AY8x2vcBvSwtNg3rwjWBMZsNCSJcoiQBQM3J/qp2UCgNwNyohebXAuIawdV6ngyMCQhEf7iYcNCIw6vx70HkckNx5/N33QC+qMd7JMB57SZ16JHYxCGAq9NYLy0tDUlUkhjZqc7TZsqJioDFIHCmK2oKKT5pTY74CG/zQtcdeaJF14i/ZTkoLk2Qyzpk2GA6KdsigDHb8ogeerxR61nShGKRWsHOrNjExiHhiTrcseFnJtRHpCYALKRDYdf2m4IQjqih7jXuBF2Md5MLYd0/fQKjEsigLyPJCUCJrj4Ao1NdGYm49pnZwd6M+ygaQ0NISd/8L6ur+O32HM10Jk///wLvxukTG4GCDznYWp1tvXO8JKbgfAixnD/Aw9qFdN4sQyQzHfc/XddXEFvlcDJscxmoWyKxvbPPvm438jhkHXmRQvma302W5G4X79+MvKYY0s2iJynjLbc3DyZ+a1/gw6DypRNzdmSKCuSO/idVIb0vDUtQjZvytUnVclI34sriGA6M647iDps2PAykbkdu3ZpVQWPCB4IJOvXX31lPesNhJ5535w5v2jJzo0TSGSD1X+UHYReLpSUJWgSmKvBsk0fa367aZBTBuqcMxjp/W8b6Ba2diJnpxbqJjDlwazCqBj8LYJngcBztWzpUl2Wh8008phRfhyDyDk5WZK6O01Wr/7DeldwBPUz49EYOfp4PVqYJoJmOUavzM7Oke+/nS6T339PHwsEP6iiZVN4M5YvXSYPX11PRh1ZLHc/F6PzBQDO/Gfu7iKD+zeokGS2L+eoGhDJHuVDj8V4IsDi1FoLlx6eAvuxUIEqA4nRx9HBGQPh5KdGMi9bvES6de9WMhELqWqXrHZAUDaMUogcmEGXsmOHfPP1V0KrNZZzCl+NZNYdjdrN1U1gLn9ILe1WzjjV2S/d311L5L/du0jnlXuZacK89Buv9ZEYg86pOptrffGlV+j2AggN9jnv+Jnzc3P0bPaXnn+2jN1Soaw55vtNee892bJpo5ZG29XJYNu4YYP877WXXYkMKjtuGJVKN4HZnlRCZECugK8JTG7IiUZedGbUBnzRBETo11BfGblIl0DY3xMqaH7C3+fGIeCi294qUrth3i9z5I81PokIWU3xauBmpC3f1ykVlCGS9A1hoD1kL/O7rCYw9uIHhvLQBGbyF0s8zc0GEHf0iGFaNWBzIjIgIf/1V1+Sn36YqaPCeDSYjpuask2rHY89+kgZIgdDUMlsB54LyqdQxlE/vMAeASyvbMrA7mce2LOe3HVJEznrdv8ORFpa/Mt92lRlgJ6J/pqRmSUnn3iCLm8K9DUj3U3ZVUUkNH8DVWbUMSP1zQO53XRmJLNp5sjc8iGDBzneXF5g9zNzPZkqQDvegYMHl0ybsq+CBkxm/XT65pLj1VE2haFHjgtjiFFBiD24oUKS2Q5CimS1eSUygLhey6YCgZfknGNFtxwgH8OA42ed1FqZvqHP1kOa4p0I3OxSFvJ27dJVu8tIACIdNBB4H0gPJSSNMRcquVBtkMy8DyMwmM5sxxqlO5p8jC++/FJ3IA3cGJFMd1OnFmTozEZ6cz3z1FKO5wjYm8CgyhngwRjYI0rOPLEdqni1Af8ykpqq7GBEDoZq/HoVR692e+XZf3aVUaN6qG9YX574x2C585IYPQXp7f/EyYkDU9Sv935T2UHEDf8mS7vJrbADzwUEQ1qSvE/VNF4YA6QykTU66tNPpI2SErjpQgGpn+jMlDGRrISLLhRftU8H3aLzmAO3P37/XbvEZn43UxPbPvoNmFZmAJVjd2ppC1+MvW7d2smU/zTR55o52W/9o526ATJkcPcd8vb9vmSj2opaSeYRh4fpllClXos8OeuUjnLdeXHSrYOysCFyYej5zBgX5JUsUPoYpKV0CsPLHsFjPh8kRlqiT+dkZmiDygB1gza4P/44S0tJtg+nTLGe9QbccRQGcEOR14LxYyRkVQCpy1KdqlQY8rXN92dwP62wXFcSy2vRrkt3ue6ijnLBmc0lprF6r9UEplvr3XL+CaGn3tYUPOvMNQV05qOOGiGFmWXDseEBTUl6D7tIOiuVIBSdGbUCiUphqJPOi9qA1ASQGfcbktlOaKQoagIkJDc5lIw5AJmMpwTPiUl+CkSgzgxoyh3rMEErMjxMwpQRSHDLNI7MyfZ5NbiJ/3LmmVpnpq0vMJloxpvxzv/elII9ZTsHBZ7z7Up76doveNZcdSPkRKMDBbsBWB4q2jcDvRjCYnxhQdslM2QO9C3bjTOIyIgHVIQMpSJQHBtqCiifQTCGv4NeHtiIxsCJzBxzSj5ywqRJkzT5ceUNHDhQ4uJiayTRqLpRaQOwIsCbce55E0s29g8kIC0qAdIWIF0ht90AJIxt1Aez2Y0zopqoKlSrEEChupvwdig46eST9c2EVK+IzuwVkBj9GqMvWN75oYJqJTMpoET+zGZPCa1pGE8GSzouMYwwSA257ZIZ36/d08FGoMQAqU5yzLChR+p8aIjIsVBQGZ35l59/9rvRVvzhi47RyYh9/PsGkBhC41dOSfG1NKsJ0GsOVywCjADKJ1/4tzeoLpSrZpC3POTIYToNLzY2TlnHObrD+by5c3TnmWAgDXD6tKllkquDATXjmnOSpG3T4N6K8LgukhN/ltSvH+9JzcALweQnqjrQlQGEDsypwAcMOYO1zoLgSON1SmLzd+fM+dlPpy4PldGZDUw24+BBA3XFtvEhJyYmyTnnjNPPvfrqK2oV8bm5+JujRx/rqmbMmfaY9GrpP2IuEJzz1et2VUlLWzsokRo4eJA0b95CIqJiZE9aqlrxlsvChb86pgdXSM3o1KWbXHrF1TJ0+FHSrkNHaaWWQuaYEOK+5rob9Ri1YKDhNMZTqOrFsLa7ZcyADTJm8C4ZM2yvjDmqSMaMCJcxo5JkzLGtZMzx3eXEo5Kkf3fvFc0ApzwqggFLvBOCtc4yUhoVgc7v5FgEFsWWB/Rl0k8xMFFz+DdYBDAQENOkSebt830/EosCEUob3qG9CkrPOZvjOY+Xowd3td4RHOW1tDUgZWLcuecKY0fatGuvOdZT3ZxnjD1LLrviyjJFz8HgSuakpGZypvrAJk0SdNecFs2aSovmvq1li+Y67/S8iRdJ06Zle08ACEw4G9WCbdHSFZ5J/fzc4XL3693UxShW3zBa152Nv71Qjrlst9z9xC4pLghdO0KyGvJCHjaCH04gKw5VItgMPx2CtqpEQgVuQVx/Rj0x5WhegETm9ejC9to4wtlcJ7q1VgT2JjDPfN5FjrkqQp/znxerFcDKUvzvGxly4wPlG4kUZZiWthdfOFEunnie9Yw/hg4bLgOUYUqOfBO1AtIkqGWLZroEjGzN7j17y7nnXyBO+fJOcGXFUSNGaAmA7kMldXJysmxYv15vFLOSrM/JG3388dY7/EFVSUUH9FD/Reh00tfKag+L0k1g1ifTs7dIH3/8PXURTbFlCPjxh+/1v5AIMqEz240/wHFUCKQuARFUErsBiPcDz4WR2jwONaTNQE4qvNGV+XtTlN7uJQIIoiLpxFq2uTppBhynHWxl8P4PLfREKc415/zmx7boJjBvfbxRPvh8nT5eHijK4Lr//NOPOrH+PmtSrx2Er48cDsca6mqT1NTduqCZ80DuT5H6fQkJjRWh+yitwJvQcCVzpy5ddbIKYp6eyFxcmrNQs4dUiI2N18/17e9fqWFQFZUmsxfscW8CoxBqopEXbwZAhcD1hh4cWH6EmoHObKQ2jwOrVcoDf5+bhJuKFQLvht3ILA92Sb5+3Xod6ftt8WL9fUk5QH9mCxlRTWTe8hITSsM0gflpkX++RjCgYmD0sTKTzwyYb2IHkcj6MdHaRoJn2coQhl9sZPQRufSpU7E6q9ALXMlMGUtEZFTJiePuwRjkTjLgOcjttgxwN9q3UNG5bZS0TGzhNzAG6CYwlL+HCEhLsSpdQMmrwD0W6M2gLzAZgmz8PgIOTiBng1YFFQHeFELiSH4uWJJa4eyD4oMBHV3JtZKh9RiHhLFptIP3grROjLxAQ688uDWB4dLSBKZvV++qECoGRimelYuUikHflEAnQGSE79xyjtmYlwO/2AznwsMjdX88VDovcCVzYPlKTna29l5Q/m2HnrvnUDaFrsTdaN845hW+jLk2ugHJoze1KinXIWOuok1g7CA/A/eYnchAqwBKYrNRVBnopaBxITkdtMTdrG6GUBuNA24gu3uNze4tgZSQPFqpFIGgwGHEyBF6otNZZ4/T2+mnn66OjZQjCIwoktPJlC1wxSkXVhMYk9jFOb/j4hh9Da6bEOmX8BUMeDBQMRsogcFgU+wlilrtKCj0N6wZ/AS/2AKN7nwHm8UJrmRGd2EONR8cr6QxYp8JppCafcBzblXAlak0ueykDHnh/5TUUieRhiTDB7eRH97sJjMndZaX/hmnLvQu9eude3UEA8Q1UnfHzh06mSgQM6ZP1/kMbORuBBKCGkCAasBSiYQPFXwPckBIUNKfE1CwyecShi5wcEtRlt9CGUpI82bq+7PxmGPYMExvYp/NrrrozytyTuovQT0lIaNI7Oon37/UT2a+0kPnxJgmME/cXCCv3VA+schfRsVkXjr20iMPPaiJbYcvA3Ov4liB1vfpywK/zJRcRuSJ7Jf8gkLZtNm5n0cgXMk8d85sHdunbKpD+/bS/7ABJVvPHj31JCC+0DdffWm9wx96nonSgxgCz+RULFuWHy/YkNZe5q+sL/OXFep+wIwX5vHm5PWyYuUuWfF7lixbsE8traFJZ4hppC66KsZXINCh8TWzuYHwNSVPGHEVgfFTozsTyqa7EpIYIJVJBsKfn6vOfYN4mu+USuiNSsjQ5ZNmMIHbOqU/J6sLj76/YuUq2b4t2XoXK1G05Nu8H4FYvinads4jZGVyriz4PV9WLP3d75yvSCvfVWYPmjRo2EjGT5igiW0HK/+c2YpjOXt1ngx+dzvH8Dkz3GfTxvWy1ipMKA9BgyY0/h6nJGzjJk10kz/TF46MLHTG1155VRYvcjbCqmJAT3moyICe8gDhjZ7s1NwF0kXF+Po8GMnH41DAjQKRjWph9vHJ03DH+JA7dOykiUwdoD7n6lxiy9AByOx7Rbfu3dV3bygLF/j3V66O3AzsI64z/wYLmuDR+MvYs2XI0GF6dYpVKlJERKRSW4uV1M7T5+O5p57Uo0fsqFDQhJKX5556XObM+lHnz+7YkaKXkO+++UYe/s+9rkQGKP3oyKOOHqbfg5QORWc+UIC8kIQtkMiA44a8/BsqkQFeDMLg3BgESzB4kMQIC0qb8BaxBG/csF5L8OycbP0cUpuMOPZpjxYKunTpol1eNQUvQRMS8j/+cLK8/ebryu5YpOewwLHVv6/Sxx958P4yRA6GP1XWXG0BJEZXRq9liV22fLl2saEjGp3RgGghfv3t27aVec4rSGLq379fmREQoDokM0T2MgewojggWXOVAS1sy9tCbQJTW0D4G717a3Kydu/RGwPdWMkWrVYYIIlXKQObymwqqisCcjVwBf40q/ySNadzHLgFukmdYIIm9CC0l85VN2qlZD6QTWBqAiaZKSM7W+936dBBJzNtUwYbXgfUDBPh0+HryEgtyUlsWq5+q5ecC24EihD69u0rM2bMcJXqRjJXdROY6sRBJZkX724l+cVKEtlO6s8r2stHM/Ila486wSXlVAcviDKuWLJUb1j2TO8nYAPwBEBGQP4FevrHH30ktNCij9wJJ5yox6rRWNxszDTnGNuxxx2nXneOMqoayccffxSaemI1gfnoh8a68U5gE5h5C8t6gGoLqpXMXBSSi0LNmvt+eWs5+vpmygD1EZny9xsf2iwPvZ4nx1+3QUsHZar5XnwQIjs7Szooacyos/Yd2msDkIpkpLFJpo+t73+zQng8EeS4LFy4QHanpWl922zkSHMz7NmTIUvUDTJ58mT5Zc4cT1IcmESj1Tvaybi/F+lzfftz++Wmh9M0kTnnp960Ql75ODTDsyZRbWSuTNYcICfg+W/qy67d0X59HIryi+X5d5R0qEATmNqCXxcs0mrG4YcfLl06d5FFvy2WNat9bbggNMn0e3Odb1aUQiTt+rVrdSV24EY7AjwsRk0JCWoVfOPzQr9cGKZ7QWSawHhJMgImIR/XHNf93gcetp6pXlQbmSuTNWeQplbd3HwXJ30Fpk0dSOAfNs20IeuiBQtk6tSp8tVX0+S3RQs1+dCPjfutQmSsLNCRHZCfny77pIm1Vz6eef4F2ZORqVMYiP4NP+roGiG0ZzLj4KZFP/96QVVkzV10aj3dBIZ8DDvOPDpXkdk/R6Q2A1ccgQ42CkwJjBDlI6cFfRji4sWgwxAJNwcCOtFIGXunHNNcXWProIJpAjP2mEiddOQFJBmZwgwSjC46/1yZMME/AugEjF/NMa9/KADlejOoNhk5cqROnA6L8LmNUpK3yuzZs/Ssaze4ZcmV5zHBm3Hh2D668mH4QHTm+soIaiyTpy2WPVn7ZUDPBjK83x7dx2FbzqlV3p6rqkHiD8ONjHvKVEsX5O9TkpgGhr78C8hNMMSecF8TMN4MPaCn80Zt7BHSnvVbsTSISJHzTmwhDRorNW9/vg5r04uuIH5YuRFApDL5OOZ6m6hgICDwkSTpDzhCd9KnYqa4sECrTD/O/F6P2guEmzcjKJmpBBhxzCiJi2+gUz1jrDDvvsJiyc3JkulfTXVtuYV+XNH+zHraVEATGHRkrVpYDUloArNt3wRN5vnz5klkpLeMrppGQmKSDosTsSOVEVUjLS1dR/oIm5NQA7l5nmM1jYKCQjn+pJN8ZO6uzq/TOWfmYlG62leE9jBtCj3Z5JrAKXTo2++8W0eF7aB34fgJE6Vd+/YlHOP8cD4watPUjfbO/97Qnh87QiZz+46d5Vy1NLA0NkpobOVm+MhMthzpkfSNeFWpEuvXlx3IaCpy9dLa2Cc1+YFOd6cdkHnUscdJRH5prnC0+IY15u7zv9g9hlwsRww+ssR4qo3gIgFWTjJl9yrpi3qhE3/UeXSbOlCT6DdggLz07DOezvmG5KJym8B4XZWp/zti8BC9WjGQh2sfFhmtSFmo+zZnKyOZNNsn/vuwX2FryGQm46lHn36SlNhER6vIFTDgAnXt1k1b1Rgyr73sn6sKzA9CJ/zyyy/1TLcVarN3QHcCP8hrOHvYiOEy9ixfJTKIiomWJnFl8ylAvbBISc2sJwVWAagBw9abNXKWiLwnMy9acrJ8wY0SKGa2aOJMQt4Ddu5hll2hhKsVg0JaXGuN65dWnJvX7S8uKHmcsrtQ7ft/boxSU+zvMwj8O3bwN5s29D9mwPvScyIkb6//Zz77zDN6Kq4XeOnPDEHBzbffqeebkKhvl8xI5RtvvUMaN0kUBvFs2eifN9K6XXtdVgbHXnj2KT+VNmQy33bXPZJkFRmuVpIvKampLm8p2JenezTTPT8jI112qsd33HKj9S5/oGqcePIpcuqpp2qpHPiDnBAKmQNBrq2OHJpgS2QzdWVNxDBBps9OlXse95fil4+NkytPXFn6ngj12nB1IWyBglF/XWq92geS1J+4Sl34wPdElVZpX/3wPp1vkZaaLoktmkmzpCbyv9sW+14b0bzUgOX78T3V0n7LIxv0sHU7/H5TVBP1ensUNEHe+vh3efrt0jHD4N9XhulKa+fflCCk1V7x94q7Nb10NCLj8slnX9Cr8j1331VmvB5TWa+6/nppqfhFrjOtBWi1Bnbt3KFL8jp06Cg71eMP339Xvp1ROqEh5AggRjVlU9xBgCYlpOgxmsuATC5e42R9QmR0btwyEJnZzps9JllXCi5ERgcsynGZT+1CZLB/f9kgQf3ocOf3GBSnS05mmm5W3iBBSZeUnZKeuk19puX6KrRC9TYi8x6ztNsR1kh9DxciBw0cuRCZ9zSJ9CaBKwom8VJhApj9uEVdd6S1HeFqRSRMH6Y2OIYXB36xYRT6QK4K06j8A0hucCUz/RjsKx7lLHQ3T7OFRveTd6oUdSe9j0AJsyy4M5HIX039QqeRVjssIm/eGik//xamK4tLjBk3WBc9K7udLq33vUdBvSc9w7/RTURUuDRp1kYxuqN+j9SrL/NXNZI/NnTwvYCqcWU0Ze7eqAuBExObSnT9CKVuqZsiX5FVGVG8Z/XGIp0Mb4jMewL10xJYRC7zmwp2SmQ9F3+7428q5zxUEcwME1yx8ABikwpqR0GB4g0Gr+IO/EENg19sdpWWNFGnHtlOcCXzmj9+VwbKPu0qatmiRUnCemRUpN4HPLdkofty9d5772l9GfTu209ZtHfpx9UFLcUUkaf9mC3j/p6mQ+DHXbtcfp6fGrwAVl10qsBPu3mjfs+xVy6VSW8rHU29p36UP1kYkZC2U1nX+3M1UcbfliXX/HuN3P7Ub/LfN5TENR4XBcqzuOFbtm6vJJEik0XKu5/eJ+ffnaPfN+76JZK1G2+B8wWLjInV72E40dl37Nbfj7Dy6t/V9wvma1e/6edlLeXE6zeV/KaPvlDqlPpNeYVBJHoVAHXVabMjU9lSTCfACKZsikmtBg0aNdb6clFhvrrB98nGTZUsm6LnwZ40X80fg+C7dOlWsrVp216yszN1nu2Mr52nTYF/3n2H3tCTKZsx7prqRJE0kUferqfD4Xo/v1gefU2tCLiW3KCW4Rem7CsJ17LQvPpJjuxKcW4/piWo0ns/W9hKduf5PDXbtqbInKX7fNIWou+L1sRP3rJZGTG71IUp0KT8eWljv/D8xq058sY0JbGD1DRmZTWVZz9I198L8D2feEtJr2B1kOo3Pfn27pI5JLz3sXfVY3UeCvL829RWNVAxTbNMswWmMiBxZ86YrvmVl7dPFyvYOUaSFLkmy5YskS2bvBUVBPUzU+Vw/oUXS8tWrXV0KtLqAIRHgILQl158QTZtcNa/vps1R6sWL7/4vN6nqPXkU07Tg1uCAV/jjbfcpuvfQgW+ZnoXO/XAaxy+TnLCumu/aiCwqLlxA8F7wJ4i/9ZZEUrHo6jX6HaEp/ElS1i4tGrpK6Xatn2nWtL91Qa8QMVKUgf+Nr53XPEfZf4O4HygN2Y65ATz/Zzeoz+vQSPX3+R2HrwiL79AJj33tLVXFqEEzLCrTj1jrB4ET7kY5xQ/MwRfuvg3PcAncPRIhYImgHyB/v0Ply5du2rxn6OWhw2KwAt+nR80WoU1++bb75ZIY1x0ToPgDzYQbu3UubPk7s3V5WBt23eUmJgodVNv1GoZRnH7jh30efoztJF1glO0zy0CCBKTmuqkq7bt2uv6ynS1ki1fulRWrVqp9elAVJjMlYVZXqq6dOZAAIu8obo5C4oKJTI8QuvE6XvSSpoe0p4B5z7SlJTOAzHgvjaA7q9gijVa76STx+j52YwdrgocMDIfKqCRZEJiQokEZp8Gi8nbkrWU/rNLYzu46WkxQbAEUNDKLEi3eYChoo7MlQTqRFHBPj+yctHqx9bXDf/An1ka1yRCDprUwR/4RGNwk9lAqzLUjbbt2tURuRagjswuoIFfq1atdFgV7NmTrsgcrdULA6qqOQ5oG1CHA4tqJzNLMX7GwHBmbQYkbt2qtc6vbae+NwSmFRkGH3oyEwPYeH7Hzp2SuWePxMVVvw+9DsFRrWSmGQhhTJK0+dd0uaktwI3GPA28DwZIYki6du1analFy1gIjKSmu85mZcRA3vTd6SXeiyilfuQX+Gfj1aHm4ckAxLfaML6RREVHSP6+QsnMzvCkH+JbHHvGaTrtE78zMfraYmRC2pZKAuOJoDE3v4dMrpatWmjXmz3l0G7o2R343AxJSYma/MbLUYeKAYESFxevB8HTgxp7xC3Xu0LeDOr9mJY6ZNhwX2NoK4OOP7Zg3lz5fuZ3OkHEDZCZolaiV4QnadlUG8hsSIvaENjLDBWjceMELYFRLQA3c/t2HSQ8MrxEGgMmWDEiY4e6GeqIXApiC16rjGhHQWS4fYcOOtIZpgxqkJa6S77+eppjaV7IZCat8y9njZMePXtJXMNG0kBJJtL1QLGy3LOURCPJaMoH77veQWNOPV1uuf1OnT1FCug//37nAY8AmgheUUGRX4UMenFRYZGuOQuM6gHeFx/vHypHMteRuCy8hrMh8oUXXypNkpoKkxmQzpERkboukrk2VOVMfu+dMgUdIbvm+h12hHTr0cPXmr9RQ51AnaAkFltDdYwKlIFDhkr/wwdZ7/AHd+dTzzxbUpFtSqcONJCqNCHEM4EUBvxLQKSgyKf3bkv2paoSCIHEgPcF5nzUEdkdENe+OQGJDJHhmGnczr+QnClnCU2ayBnnTHCcFe4EVzLTkBsdhr65yVu3ytIlS3VHHbY/lOhvkpAg9Ps9esTR1jv8URV9M6oLeojNthStThivBFLYqBUQl33QvFmpK64O3jD75591SJuVmY1e3YFtbcn5QbVAIlPBRINIxmnArwW//qo7OzGsp5kiddduPax3BYcrmSmX4g+S+Q+YrkQ/s67dfIMswyN8lSdt27fX+4Goir4ZVQ2WMeO5QJ3AU6FzLHbs8JOy6NS0LsDgw/VWh9Dwj7t8ExJYmdnIyyCcbQeCEh2Z6wGZY6KjNL/YmAEImGhWXz3fvLk3geJKZow/BiXSydwNPMdrqmvaVFUCj0Snjp18W6cuWt+lqgEDjhuXfdBcPdYejcJ87bkwxl5lQWmQuZkqsiFYDhYwPIgmMPTOwJvFUMvAvAy8Fhh7dHCiZ4gbUPPgmBe4GoDX3XCTtOvUVU9kXamWgMhwRe7IKO29oCMPBa05OVl6yCUJ+IEIxaKtbmDcoYttT9kmDz/6uG466OtQv0efTGwCmo+Qk4zXhvFjxZaXhhTWn378QX6a9YPeryiYQtq4SdmBQF5Bcr9b7nhtA4ILLvEvqb+cw0C9GdfozbferitM0JEXLVykh1gCpgg0a95COnToJOlpqfLaKy/58SZkA3DVyhWSn5cr+3LzpL1SJZLUhzPbJLFpU70P9uXtk7lzftaPA1GZaVOVhTHaDOrHxemqBRqu0OP4s08+lc8+/UwW/PKjbFj+ldbRUraukS2b1siv8+bKhmXT5IeZ3+rtf6+/okel1SE0mADZgH699b+BwD7ZtStVey0om+rYuZPmFxvzs5mctW9frh6Wv3Z1WfecE1wlM0vbFVf+Tf2RzroHAm4phgyCoqICyc7O1jMyHn3oAe1CCQR3JYbfk0r5b6wk38uTJmn9KfAODcTlivj1Y0ojcqGCSuAVK5ZpAw69N0+dEAw9JC/f49jjTtA36i233SGFudtlf7LztKzILlfofy+76HwZfOQwPWPDDUePOEZ9b3+dMBCvvPiCJG/3TZatCA4myUz6AsILBwB2k5HUgaD124WXXq49FzgU0JENIDIC6LtvvpbJVl60QYWCJrhMGPbeqWt3PfaVaZmA2Wzr162V116eJLtTd+ljgajotKnrbrxFnnnyMWsvdNDv49OPp1h7okkdpYwLciyUci9Djhyqq8Rvu+tupUoUS+G6V6xX+iMUMh9/wkm6vD4YHnv0YVmr55ZUDAcTmUNBr9595OxzxitVkCr2+tq24LowfH/W99/JR1MmlwnMVYjMAOOOQdzML6ZXGmXfydu2yYZ1a1yDJQbozabCBL2oT7/+5erMhsy9uyRJyxAS0bbvFlmxNlW/f+rnn2k/MsadKYbUhl3r9jJy1DGya0eKXHblVZKXsblKJHMdmSsHjNtu3brra0SPjPS03bJm9RrXSVMVJnNNw5B56rPt9Nxsr9i+O0XOum2XVo3efuMNHQBBGuN+w2sBCI6MGz9BtwkbMWq0PjYgsWznpBVZh8neXF8A5dVJz5dLZqQLFnwwfDvjO8kMGNUcCg5lMoeKg47M373YTZo18m547czYKVc9UU/OGjdeHrr/Xn3M5GAQIMGvjFfj8quuks8//kg/7wUUW2IABiOzF/yZvBnVjT8Fmcffs0euv/kWeeyRB0tCzyxdjA+jdJ1EoWbNmktsCGPIaOIyd+4vJdHBiqIqyNyta1dpbmuW4oT8/LwyBtOhhkOWzIX1IiVif4Em8+irVsvd//g/+fSjKbJ+w/qSdE0kMu65XTtTyvRgqClUBZmvuf4G6a/sjmDYuzc75CpoPFfBxjR88cnHlfazVyXcyOzqZz4YAJEj45P0vwZ4T3SHnHbtSqJ6GBIYggeKyLUdRNi4Sdy2xKSK34Q1iWojM645PBgGJJzQ5agqgUQGENqO3Wm+nAuy3urw50G1kZnkku9/mqNJTAYVAZOfZ/9kPVtxIIXrNWhZIo33Z/n6GUc0HlEiiWOio3WhKQlEdfjzwBOZiaMzFoJ0Sf41FcvBgN724gvP+3Ka27XXCSdOORyhABIbKcy/7AMI3VDWCZP7ie+Tb52Wnu7Yc64OtQ/EMvAakQBGVBCd2AimUBDUAMSZffKYU6V7jx7KSIgtyV4ilr5syWKZ+uXnrv3m3LLkyjMy3QxAox8bSWyIXJCdWmIAnvevDLnsr1fL4/99OKh+jJHoBY0axcvjjz5a4qd2Ay7ANu2Cp7cyFy+yAhfIoKoNwFZtbKm7ikxNg+jFzK+xn8+igryg5ySUJDN8/6ee8RcdASTJC44RjCPZaOaMGTJ/XllDL2RvBsk6F150ibRp21ZJ4oY6iZpQY5j64fvy89Uf2yur//hdXn/lJXWiy6ZJOv0gwFy4YIDMzz/7lMx8+2JJjM/Q5DVEBobMwE7otD3J2pthboZg8PIaQGSP6KXTCbWjpiKAVUnmTl29Jbw7gQbz2za7t5n1Kshwm55/0aVqJU3QA6DIa44MD5fC4iLJV38jKytbvp76RRlPSsjejMGDhwitbBsmJGm3VoySKiRT086VP5rYpIl079lHhg07ynqHP7gLIa59I/kkGMzSws1RuGdWCZGNoQeMrgwMsQMNQC8gXE6U0W279eKyN2IdvAPi2jcnYE+RHtqkUUM9ZoSN4UJM4iJ1okliopx0ymk6R8gLXMnc7/AjtDRu2CBO18ytX79O1q9do4f1rFmzRhKaJOrnjhzuTOZQwV2KzmtPQjcSmX/diMtxJHOoIO+jXWI7161Pt7oORRWFl7IpKk0oioBjDGVat3adbFi3VnNs5YoVVtlUI923uXv3nta7gsOVzKRL+oYu+tIxW7VpI126ddfGnA/19HPNWrTSCnwgWGoCNy+IU6uAMTDtrjc7oY16YWCX3AcCC+b/KrfedH3QbdWqVdarD314KZsiUGPKphBgUZHhml9s1P6B6Oj6EhtTXw868oKg3gzKWYKWtPC8+gSn7LmLL5yoy2bsG8fcwJR/QLUHzVkMAiWyG6EPJMj7oBw+2JaTXblw+MGEo5S9RDtbAliTXnxB6/CBZVNwxkvZVBgE8wjXV1IFQP+CQmV4ABLxGUy5Ti0DBjy/c4dzwjlThhgDYfRlHj/z3AvWs2WBtUwnIT6TLkP4jY1+HEhg1ApzrA61D9hGCC/0YdoJOIXK8VYUq2tdXFysrznTzeAXG4MsDYoLiyR1l3POfCBcyUxNFm43xr4ypf6IgQPlsAFH6H/79eunvkCB9mj8PMs9P9neKZ/HZiQErix81vxrB/3bcAFyF+M3tuvHdkIfaLWiDt5x0fnnyoQJE6y9UiC8Nqz3pRjg6j1y6FDNL7ZBgwfrAuTc3L2SqVa031ettN4VHK5kXrJ4gaxasVyXrpiBMugwbCBjT4Ys+e03mfPzT3o/EHQwwl1FSJuNxxwD9WOjdbiZ9Ex748LMzAy15ITrfVxtwK5O1EnkqsOetFTp3LGD9OvbRz+2bz26d9Ob/VjDBg31a8PD9ktORtnhm3ZQLmXKphBMqBpOmKZWa4a9MyM7TwlOxsv5OBYj+fvylPqWLh9Nfl/zwguCBk3wKx9/4skyfOQoaRAXq53+2Hr4AH+Y+Z188dknusm2E4IN6MGHTe82UFBUpD+b8DM9Ku6+55+6buzdf/vyOpo0bq3/NeQOhlD8zKt+eVOeuNHd17pwQ46880NzT35mL6iKrDmqfcpL+mGuXuBoXzc8+9Kr0rVzFzlx9EjriA8M8c/MypaLzhtvHRGZeOElcsFFF8v//eNu+cWliLkiIPL3l7PHaTdv/RgTNFHXW5F8ygeTZfGisnMmK5UCirVJ6yRatzIKgVL9YJOm7CB4AiifylYS3gRYkL70sKB5IT0qcNOAcedMkCmT35OHR5ZP3kCMfSn7kCZzVSfn1wYyG+DBYpBlWESULpDek56mVFnnppyVSgGFuIQvSaNkpodXIgMkMVtubp5uWEhghPxi7kAqQOh9vE9Jerpr0vcYkqOCHEzg5BIFDLYlJtX5rYOB4ofk5GTNMYqkg3WXdYN3v0clUWQNeCQtkyaF+cp6xaXF2FlyjwE3DJYshah5askJdTtQ6NW7r7YJgm0dO5YdPlmHqkWNVppoYy+gahr9GYlthkR6zZtwQyhqxt/6u68w3Byv/z64VuVm1NUA+lApnbmiMO0FAKoGrjinqmn0JY6hdvzjvvtkg1I5KgpCoPf93z+tPWfUkbliQPBUVe+9yqDGyYzhR+DEgDTC6/52VQmp7VXTOqQZHa27JIG42Dj9b6hAz8px6K4UCMhMZl6Lpk2sI2WRkZ0rQ4cO90Rmvj/GSzBol2Nc8NcEw4EkM78PVRBbBrXQjM04UKhxMlMi9cF778hX06bpPI9TTj9DSzAzCD6wato+XqG68eSzL8i6taVd893QuUsXefrJJ2T92tXWkYrjYG41QIAL47yoaL+2d/Ly8kvUxAOBGicziUU9unaS7t26l8wH4djh/XqXlO0fqKppXI3RHhLlmSBVVd/rYCQzqZdhEi5JzZNKZosYKX0gRytXmMz0ae7YoZO0bN1K6isS0JVx+/YU2bB+rewvLrZeVRZuWXJnnHKyXqoCE08Odeh+10rVqCiK9++v0aXdDCoyYJScacgOyZmT6DTgqCIgBbRLl67675HTnJmZJZs2rnetZqkQmU10plnTZvqODI/0ub+KlZTYlpysp9bbfwwGAmMT+FI9evWWWEv3jVL6MP2Q165ZI8uXLtP68h+r/zigelcd3IFBTuaiGYVhqtztqqDpeW0fcmQQStkUkeLjTxqjG3NG0/01zHfD0055yW+LZOoXn5WJModMZoaiXHTJZToyx1yTOLqARvnITMg0J2evbE/eIi88+0yJ0cWUJpCZkS6JaklFF+aE2EcscBLQu5xGYtXhwMMY59gyhqgEuiC0V13ZbVUOFJbo4mPPGqf5RdpDbP1YXWlCo/fcffu0KjPvlzllWqO5kdk1aDJ8+FGKeIl6STH5GISj2YidJyb6mkKPHHWsfj2Sm3Fj/Fh8xtO/mynTvp4hK/5Yo3+c2SAys0LqUDuBd8nMCeeaAoQR1Ubk0JgJXeUB4tq3QFDQcdzxJ0lcfAM9yaygsEj2MswyO1tylJ1SX63miU0SZcjQYdpZ4AWuZEZNiIlroLOldu1SutGunbInLU2yMjJk29bNaolprJ8bNORI/XoMJZYhwF189tixevv4I99dRaLRs888o19Tk8ZeHcoHagUrpqm1w7AjsGXvCqXDzduSJWfvXr0fDJ7KpuLj1d9rpMlMNQk9s+EX27atW3SxRiwagXpdp85drHcFhyuZmSTFD4lWdyhg9gSjrtq1b69+vM9fynPxitSmbAp9ypQ8DTlyiDz+1NMybPjR2r01YviR8tTjj9bpybUM5A2jH6P/YtQRpcX2MbMQ26jVl31AHxIvvUg8lU1FK35FRkpkVKTmEWVT8IuNkXz6Nep5nA7Um3pB0NyMMMXRMEshN2COCZZ5VHSkfs6pbArnOqOFGZXWQt0E1994k/y2dIWrLlWHAwP0Y2aCs1qiH+NCxc5p1bqtFjrYO+wnJYaWJMXYkEsmTihRMegZEui9Kt5frEdzUDYVyDE74BrJ+17gSubkrclCOUuBNa1/zerVsmjhQlm2bKnOmotQX4B2r5s2+ixeA5YjXG9X//VyueG6a2XcWWfrbkZso0ZUTSV3HaoG8Y0aaiPLrJZcu9QdqVo3ZlVGV8a+SbWVMXkBA/9RM/BUAOoBA8Hf0mVT6m/DMcqm4BfbTtvsRTwZO3Z4c/+5knnRgvlat8Xgo0xq5DHHlmy9+/STveo5JPL8X/xzW7nbc7Jy5IJLLpOlSxbr5Gp+HNvnU7+yXlWHAwmuEfox7tKYGP9e1Tl7fZ4p5sAAOBCqaojQ4ibgmqMvO4EbZdnSpbosj88fecwoP44xNo3RfKm70+T3VcutdwWHK5lXrlwhP/3wvWSoJWLPngz9wUWF+Xqjaw4O7R/V86m7U0uMBKxO3DrFUiTDhjIIp3RpMQWOdTiwQEcmokdkz3gtMP4MUDsoLDZR2oqA605fQUi9J8O95Onrr6Yq9Wa9VkOYY8KEqUKKW5U0zszcox0Pb7zyouf8+XIjgP0PHygnnXyS7o+Bsg52qz/y1ZdfyMKFv+ryJ/Qq3HGcCO5I7mZyM6jIfvnF53Wyjhmn5fQ36lAzQBoTN7D7/iEyBRIQGD8yKgZei5pqOklqwejjTtCBFlp0CVHS4mJZ88fv2r9Mwn4gKp2bwR+lvwF6tP1OMQ71ooIi2bp1S8lJQl8iocc+Lxsd2mt9Wh2qHkhlEGiM4YFqqDayDnGJHQjXKR4xOMa/BOWCqTaVJnMw4FxHUXf6ApCayaxIaSR0HQ4cCHjEKdIGRl8hc2XUippGyBHAUBDMSKCbD01g6oh84IGXCbepXUdG9cDPbOyegxlVQuY61C4Q5EAKG7XCAOlLphs6MnkRbDr7TRnzRj08mFFH5kMQBD3CI6Ml1WEUNFmOBEfwL5NwT2rnoTJhoI7MhxiQyngk0tNStfqHPWNSDAAqBpXx5F/gXj0UJLJBHZkPEaBSEAzBdsHNhh6MGkGjHYqFeR5io2KQDXkookq8GW6g+yNN8+g1duVVV+veY7TeCgQumf79D7f2/EHLLlMuRFFo3/5H6KSUQKTvSfOz0vGPR1t+cTuys7Nk5YrSiBJzr+PjywZz9uUXyNLFC0vyThgc45SjkF9QpIzcRSUGMDndLVs4z/xesuS3EremT6e1zRWxgdneJkecciuqMJzwxx+rtIqA5O3Stac0iI/VDXWIB9DMm3AxlUE7d+7Qhh8FEfwGstCKispWCW3bllzitkPCH3HEIP04EHTldErKrylU2DXHyTxy6DDp3LmzxMbFyd69ubqt7by5v+jOM8FAYhGRP9Pi1C1ocubYsyVGEXp3atkO+MedcJzcceut+jGO9X6K9GvVRQnEyaedLjdf9zf9GOKNPess3dgxEEOHD5dXJr2gl1kKEP7+z/+TH7771nq2FD169pSffvq5pNfZw//9r3z7TdnXMfOF5dr4z7mBiZwGglRGbpq3//e63mdI0K/z5urHgejVu7c89YSv98ett98hSxYv0Y8DMUydj6cfe0xHXcdNOF/mOFRygGNGHydvvPayvtnPm3ih7t6aY1XC2zFi1LHyj7tu14+PO/4EaduuvSK3L3vOjuNPHiO333S9tVd5sIIMGjREWihjlMQjIpM07fx13jxHNahCrjn+yKWXX6Fzllu0IQzaStp17KwbKf7t2uukV6/e1ivdMVudYPJbcc+5gR8we9YPQidIZkObjY70W7eWdv2kEmHhr/O1dLW/btWqlX69NmKUZILIKSnb/V6XvHWLLF+2TP89QE0eN8a69ev9Xsf75s2d67cC8D34O/bX8T2ohOBGNNilVhK+t/11YOa3MyQysrTtGPndpAPYX8ekghnffC2l4oUVolAfs78uoUmCutF+1M+bZHpWrV9++VnfNOZ13GgbN23QQQhTEEFLB74LsH8m77XPTaxXL0z/tsBrslStLls2bbJe5QyEDhFf+8axQBAgId+ZahPy50mHaN6ytXTr3kMfv+yvV5XkWHuBa1O3pk2byxlnjlUflqCbuTCegVo+QNVJTk6sjD3vAtn9zBOOhYdIZUjcr/9hOh2Qz0DNCIZjlTQYNqw0w2qOS4M+TgxtCwzWubQC6H/YAN3szwDyOaFzp05+rwNM0gpEW0UO++sg2bQvykY0E5ROan/dkqVL9EoWCJJ57K9bs26ta4TU/rrcgnxZvnSpL3G9UxcdeS1QEgw9+axzxuuaTYMZ07+SPenpZaJ6SFf75KoZ06dZj/wReE2WLF5kPXKHvV+KHYGrMit+v8MOk4SEJjqYE8e0qchI3YAcdYxe3ePVikNKhNN0hkC4knn40UfrKgBISNXBHpv7BkPClM+MGn28o9RFrThxzCklCdoQe/q0qdazzli1YplsV3qbgVu7XPJvP7LVhe3NdbbIdygJa38dakzTZmWHy0Ny++t4nxP4O/bXuXV053vbX+cWXduvRLD9dYzAcIN5XVx8Q71ioP9mZezReTEk0FPRDCgCpT6TtAOQnr5HkyMQixcu8FPX6InhBHIk7Nckb5+3pJ9A4gbmspOnfOTwEdKgAdUm8ZKaulvSpFTNJIeEAaVde/SWdh06ldhNweBK5k7K6IhVdwrGxfaUFN3SloE8zIBjElAXpZeyfPVVkteJzBxjI5x9xZVXy8ljxui81mDqxrczZsiC30r1w6GDBliP/DF3zmyZPfdXa09k5NHOedK/Kx1x0iuvWnvqxhs5wpHM27anyDvv323t+T7PyYhLS9std95V+rqjjhzkV45vkJ+31+91fXp2d2wzQDNJ++uCGeDmdT26dPIRVS3R8crgIydm0+aNmrAkEE2ZPFnWrvlDtmzzrZa9ujuXHH36yceyfFUpmeln4oQffvSpiQZHDx1sPXIHryefmep9cJJaBQLLpqhsiakfowul4Vn2hg3SzmqgSfNM9PpEZazu20c7t7aeyOyqM0dGhEtEZJSYimzuHvQXU9IC6HDOUmDKpuwgj3XR0hU6p5WyGTwawQb01MEbCgoLpEF8o5Jm7RAZTwoeIbBV7W9L8TYDpLrgpWwqMkJxS6kUEYpfcCw8rJ7mF5vhXHg4nfSj9ExAL3AlszFCMAQAdwiejIKAZYbXOekzVNw+8tCDMvCwvnra0H8fftCxb0IdygdqXbhltG7cnCyxarVk4kBGRrYmss56UxecyUysnEVBmvPUBMaceppehWnNBn6ePbtMpl5RYWn/ZThWpIgEv9gCezMHU7/scCUzYr1QGRq4RuKV8UdodPPmTbJdGXvsA55b8/sK/TgQGH29+vSVBYuX6Q6Z6Ex/vfoa69k6eAUFDQQ+DuvTR3p28/V43p26Q0f5mO2NX5ugCLNnDkTqphOo/8RmOkrZXRj9xBgCkZmdoQRknhQr+4KyKTw58IsN37hPOu/XqixeKC9wJfMcpfegt9DHoIM6mfgBzdazVx89CSgnJ0e+nT7dekdZEDDhR/Fj+JcfWQfvIPQcodQ9jL3Fy5fr/njdunSU1Ws36PwKgH5OfoXXaozaAlaUBfPmSharvSLs4UyZsnGsVas2ejAPbQf+cPAsOcHVAGRZoJrkjLFn6+Hv3D34KAFRJtrPfvDO2+VGgux+ZoImwaD7jdmaC+7b6+wFIHJ2nK09LBOQnJCY2FSOGz3a2lNSTun9TmjYIN7vdfQDcQJNbuyvS2qSINlZvmGcdjDiIvDz1q8tG+jB1gh8nX0gDU0lOdfgvAnjddn9hk1bpHPnLjqKiZoR6BYdoEjRvWepd2d7sv/ybtCtey9poQhjwEQpJ3Ts0M7Pj04Dx/Jgpk299957WoDxrxO+n/mdNGveQiKPGKhVIwxBn2tuv1pl9kpKyg4d4PI6EsKVzIC+xISTjz/xROnatZsmMw38NqxdI1OnTi231Ss1YNwUXv3MJytdy+7TvPrKK6xH/hhxzDF+fmaGxjihT5/efv7ZF557xnrkD9oh2JuFv/XmG45+5qTEJPm/+0pvSDc/c3T9OHnhxUnWns/PfP+//mHtlYJAh/11GzdtlH/fs1UtsdYwz+Iivdxi7P37/gdK9EyW57PPPF0/DsStd94tLRRBDM4681TrkT/Ou2Cin5/5wvPOsR754zh1nu3XhNHJ5YGUBZO2QC2gGyDpe0rIbVi/To4aOcpXmhdeT9/AC3+dJ9O/mhZSHryrmmGA7vzKi8/LnbfeJLfccK3ccv018sxT3noW25V+vpRTXoYd+DMJHJiNWXBOSNme4vc6Nz8zrjT765ykKMDPbH8d73MCf8f+Or6HE/je9tclb/XNPwwEF7PkNdTdqXNE8IBAFSoGkT3G1WHs4WbkdRAeaew2hnfzpk0ln8nmJtX4TvbX0R7LCYHXxKuf2SvoJMv0qkcfvF9uv0nxS3HsjltulMnvvxcSkUG1Jhp5BaFLrHHH3IwTT9I/DhwKuRmffvKhLq+/4657SnIzMH6aNEnUNxH6I+kDn340RRP8hptu0aFoo26wOuLnJ7eC33KvJfGvu+Em+d1l2PyRw4aVjMaojbkZoaJaawArC0p2unRxdu4jnUxTa5bl7t2dZ/fZh/4A8kqcRrDZu1sCMzQoEKRRrl29usTtiNcAD0IgeJ291SuRUadACtikpGb79u31b0JiMjmAVmdM7adrz1ZlyYON6nVNmjTR1e4k0Tdr0UZnxNEFKFNJK/O3kpO3lkgv3HN4NZxg76OMmw/viBPsc2bImqNRvBMwzLa6rDY1gVpN5j8TIB3J8RDVVHiYG8BMGACQybRxsN8sdajmgtY6eAdkhcjU3pFMD0zXTXthKeQlukcmWx2RvaGOzDUMlnncmqga5CEjqYHpukkPEqQygMSHSn1eTaCOzDUISErP45YtW5WRxloSW2MXGKVRh9Dhmcw4+Enbc0oqqkP5oAbPGFR0D8L1FiiNSQ/Ac4Fv/88Iw7GKolwDsH3HznL00SOkdZvWQnsugC9zzuyfDmgd2MEEiMv4C9PjjX0KS3G90aMPMh/IUWRVDVyoXgf0QF7C10cMGix00qdnM8lsK1esUK//0dHXXCFvxuAhQ2XU6NE6SR9dL8ZKzcvL983H+/KzT12nl7o1Fv8zekxw6xUV7PMjK5LaNJoEbu3NDkZ4vfasRuPOOVcX2OKHJ504MjxMCouLtb89NTVV/vfay2VC9iF7M7gAELlhowRpkpioJEkzadq8ud6o1WqSlKTzNpDcTiCUTYNx8pgBNW/lhbMPVTj1Qc7KytR+cHToQ4nIANKa3HV4QBqwE+j+2VHn4zTRvnZWKx+/WugiirZt2sjEiy4pMYjLgyuZhw8fru8URD9FmlTLLl60UG90y09UX4DnRh93vPUOf5DTShfQk085TWfMDejXu9xw9qECEszxHRtPBZ6LwD7I1LtxHIQ6ZqG2A8lMHSD5zN/Pmq3TgE1uswEJRf0PH6CDRlT9r1/LjMglml9LFy/STe4bJSRIqzbtlOR2FpiBCCKZO+gsJgpZ85XkIAmkQ6cuSsS30fmm0dH19XPdezhH5MxMEzYyqPiBbsvPoQRIjA+ZHAsichDYqccbz2Po0SIrLq5s346DGQgvpPH111ylJTNSmsd2xMc1lAhF6AZK1eLGJjkffrGh1hYqzlHVRFlV+3bO/UUC4UpmhvNQNsUdBChfYQJVZHRpOiAuJV7j5OEwaoZ949ihDCQxJCW/mB4VhIchMJLa9HiDvOm700uielFK/WBG96GE2++8S/pYGXkm2eyTL/yLmcMjwnXZVJja4BhlU/CLjbQFH+rprMEoG+eCwZXMDEwpNQ19Y7NQxNNsw1oY0EOZjlPZFMsL7WzZqAPkX44dKuBG1nkdyjAGRPNMboRpXML5oo0slcY6WKIecwxihyurHSlOjrS9X8WhgHffeVueee4FTWAKW1E5li3zn0vCOcKWUOTR/CFXhXPDRi6zAVl1WZnO2Y6BcCUzJeb8QSoYqFQmswvQ+slULvPcst8W6sd/JiCBcachUU07BNOMBaPO6Mpg+/ZtuoIaQ89uyJBYRadO+0iGQwX0ufjyyy+lT5++uhaQ4oxAeykrO0tte9Vvz9dEbtbC1ywHNGjUWBo1bKjnmzB2eLND5p4TXMn88+xZkpm+W6cKNlaKOK0FzEalR3Z2puxOS5Nvpn9tvaMs7HryoaIvGwmMqsASavdChJJjgSpClt+hRmSAwde3bx+tK6NegsBVGYn7/XffSe7evZKbm6cb7Ng51pB+LRl7ZMXSpTqn3guC+plxz11w4UXSQklicn/NgJ6C/AKtD0564XnXJP1QHOcHC5CsWNZIWhMwuuHm23S+MIEk8q6PHnGMXH/zLfq5O26+Sb/uhVfe0LrgT7N+1IUO5BTTIIdK5Ksvv1i3ObvjHl++8RP/fUznUN/34CN6Gu6iBQv0ZNsTThoj56trAa66/BJlNMXLY0/7Kmfe+d+b8s3Xzh2JDgRoxxXYHwU+OF17ztdJp52hJHED7XCg5ExxUrcFW7Vihbw86QXZazWRNHDzM4f/61//+j/rsa4gsSNT3Rm//jpPd+7JZLyVIjDlRN9/960ud9m5w7nzD9iyeZMsX7bUb+PYwQykCcsizUkwWkhyHzhokK6R27o1Wc89xOBjPC5O/7Vr1yj1Y48iay9d/Ltl00bZoNQKSBobGydpqamycOECaawMRBLhsUuIfOGD7t6tmxQoSb5182YtxZs2bSqJSU31axb++qsyyCOla7ceev+PVavUzeQ/XPRAgmsdCLdrz/desXSx+h0Zyr7IlG3JydpFN/WLz+SLzz9V57HsykUhx8WXXm7tlaIun7kCQNUYddxoXde4ds0ardMFlh1BcIo/3cqRqhTKgNq29eAWFKGgLp+5CqBD+mrD2KMtGU0FUbfshG3cMF4SExrpZbJGiKyQ2KSx9hxQ6vRnRh2ZPYJcCsqN9Napi1YxTOkTrcwA3Tdxt7kVkVYnYpUObbpP/VlxyKoZkIoZ36GAPs1OBi1RPPQ0vBL4h3HL4YIjgtdN6bYREZG64JRi0+TtKVoqVxcGDxoozVu2kq+nTS2R/DS0PO7442Xmt9P9pgccqqhQ1tzBDPpgOPW0CIbTx54ljz5Efwr/pB+8OrnKgGPUBIn1UZFRsmNHikRERkjjBFx1baVQ6cd0E61O1QIV5r3JH+oI2WOPPiLTv/E1Da+ozkwVO72paSBOsMKAniS7UtNKKtMBvvOhQ4frIlr7GI0DgRrXme1NVQ4EaPTIMPujR43W299uvFluvv2uMtuZZ43Tz1NlTW4xrjd8xEhjE/wgUkV3IXvnzauvvU4ef+pZvY80rm4igxz1/bYoa59cGXsLgLi4GH2+mc8SCmjuwvtIwbSDYzSJsaNZc1+jHBLIaiuqjcxOzfIOBMYqacs2cMARMnLkiLLbqFH6+Q5K+hqgRpBMTxU1ILJHmwGasZhACYRnkkC4UjFqytjjb1x9xeVy9l/OlBWrSjsuxUTHaGlKEtifGZ7ITCIRVjySin+9lk6ZCKB9q83AWU9ABH2YCf8mOkdOBV4LCI3KwbZ+3Vrdi6869WMnkF1G3kwg9u7NVtrGgW1lWxmgOhGYY0qWiZ6GinLJTLXJ9TfdKjffeofabpfb77xbbrz1ThmqlqjySE0qoH2rSLPxwwYM1lLHnu9QHTC5J+lp6Tq7DeJShGCATslxKkbovPnxh1P8RjgcSOxO26N7YH874xvrSO3Dd7PmWI/8AYHpaIXKd8ttt+teeXf+/R659IqrtNAIBUENQP4IA1T03Al1cck/BeSaMjfj13m/yKcff6iPBYIvP3rEMGuv4njkiad1gz+aKHrpb2dw3Y23yDNPPqZvOoBf2NQw2sEYOGbuFSsVYuSxo+Wh++/VxwmM0Apg+7YU7VdmRbL3P2bcW8tWreWzzz6zjhw44Bqkk+nWzVv1d/UCtwohLyjYlxu0XtEplcFpbB5SeOLFl0rzZk11DjNemTArnL1vX4FkZGXKB2+9XsZDE7IBiDHRt18/PQkoMSlRl7Xo0VZqa9qsuT42dPhRemaJE1YsW6p9s2wQGxWjJpuNh6llC0IPHHyk3hhZQdw/cOveo6cMOGKQjDhmlPpdLXTuMYAUqBYQGr9ymay3rl3Vje48iNMNXKxrrr/Bb+OYAX7q++6/X1586SU59dRTrKM+mOf69O6l32efKAWR/6tu+oGDnYdQOgFdv6KbRARXA0j5hLz2zQknnjxGE7lxE8WvpCRdKkWbhZaKY82aJkozxbEJ500sGXFRHlwl8yWXXSEdlZULcelmvjcnx3qGpSFOBhx+uKTuTpOli3+TF559ynqmFJCXaoMnn3tRGjdqKC9PmqTnW4Tq/quoZPYCiGtvsoJvmjZZ6zesL5HCeDXwZOzameInmS+/6m/SsWMnee5Zn0fDCzorw/K2u+6WLz/3SfNTTz9DHn3wAVln9ct47IknZOrnn8umjRvk4ssul6lffC5z5/ncY5dddqn+l8bv5Hns2rlDXn31NX2MiCNkZtQGbXa9oFNX5wohLyCHfdvm0r5+XgAf7NcevfimW2/TQ1MbNmosv69aaT3jQ/sOHXQ+Svru3TrZiHx4g5Als0kor1/fd1d07dZNSbAjpEfPXno/PMJXedLRpT6Lmi9SAfsr6c5wFpJwQgH6EvryJ1M+0P2XGzZsrPeN5KwsUCMob7J/HksnjRWRwsYIIZGeVM3AEQtkv937r3usPW8gfxds3LBBb8AcM2A0MOSGsCQj2RET10BLL9JM7cjMytbnCH9xbYUpbDbABqKKhJUJHsVER2l+sVE8DSgni1bP0z/bC4IagOiYkZE+w8gJRL5Yqp0MQWq+MPhGHT1Mu7OyMjMqZADm5hXoraqBGmGvAjHYnZaqvRm454KBgIPbvG8D1AK7GrFz104tla+94Ua98ZhjBowa69Cxo34PhJ35fWlr3C8+/1LycrLkjVdfkU3r1+p9g4KCQt3j2B74OJBgyhh6swGPhx/lXzIXVi9MqYIRWkeGR24gO9EY5+XBlcyoFSggxZS2KOxM2a6rslO2lyr+PIfbKtj0zAYNG1mPlLQNMAoOBJDEqBNIBu0ztqpAjCSOiY7WfuXySpno/3zJFVdae6U4dtQorfOyIUXv/vvfrWd8IJ0WqcsWOBQTo6y90s8vveKveh/92IC2D/RtRv1APWHfgESjN9/9QOcG1wZ4KZvKU0YkwSiMPXjEQH34xUYKrEFxUbFkZHjrt+dK5lUrV0h+Xq7sy81Tul4nadm6rdafW7RsJZ07+VSLfWpJnusyEpg5gPwIKgx4jMrhZgjUFCBxYOU00TxAGROGXkNF9rT0dD9dOhQgTdGDzfbMU09bz/iMOMj4+isv643Hdsm9a4fSy5X0baGMIjaktMHnn33q97ns28HoB/vskQMJL2VTCMFdu1K114Le1N26d9f8YmvfoZPWl/cpwtOp36m5vBNcyfzTT7MkZdtWyVB/NDwyQl34RN2cg41+GRkZ6bJZ6ZLfzyzbTR4wkRUDkIpsHqNihGr8VRRI3cDGIRxzqpyOj4/XldLsU9NHh6FA/dgJ77/7jjzzxH+tvVJA2HHnTlAXpKP+l7kqgVi+YqXeQIP4Uv85N8KG9aWG1V6bbjx69LG6IsNs7BtwwTH8yJuoDfBSNgUYP41blIlmDRrEl/CLDfWVcXCzvv/Os/oU1M9M8vn48xQJe/SW+LhYibKm8ucrHW2NulteV0upm1/TLdrnldAYgEyLCsSG9auDSk1ITINCVAXjCzU+Y/Iv7D5Le4ssLwQOBC6jxKb+Y4lxqTHfmrq1U047XXt+brnpJutZkfGK4CuW+Szz3n37ywdKTw4ErwH253DHIbXNhcWANDdERRKNGtrUPzB4yBA9o9oJDP7//NOPrT2RwqKiMqVMdoRSNkUPkXMnnK8kcTNt7KEjo1pwg86c8Y189slHZVJqK5U1x5tbt2mnUxxJdWSWtn3kghOcHOeh1ABWhMy4ea657nqda1xYWKQNBzMfr0XLljLlA+ZKr9JLHCrFuedPVBIgXDfrY/I/+htgkOQD95VUkzmCGSIdOnfV2WuBuPOuu7S+jEGHf/7LL309I1ApjD5s8NrLL+kZJ4D3/TDzO+2O4/Frr7xaYiBCZgw/81l2oF4MGzpU5iiVr6LuS5KI7BO87CBUToSxuoC9gsHdTKkYGIZ4ZzZuWOt6nStF5gOBUMlMMOeIQUP0oJvJ77+r1SJmgaTu3Kal2Wln/EVnmpHGSXn/yGNG6cmfzBlp1Kih9mwAiPW3a2/Q0cNg4OJ37tpd7vu3O+nxZjzwn/+UkDXQzwzs5MTPDOZbvuWc7MyS5/Ez42OeN/cX9fyvfl6QiviZA3EgyRwqQvYzH6xgaDjN9l5/6z11gR+XN9+bLGeNG6+fM32PkQKmDzCpnLz2o0+/1NvgwUP08fJAT7QfHeyF8rwZAIKazQ56+qGSJKn3DR4yWJPWgABJys5dMuTIoXLvf+4vUUXqUIpDhswZVtcb1KCEhMaKrPVED4FU606jhCZanSBJyHSnb6yM2MqApJ5PHPJSgnkzCIag6xqym6iewUMPPqj/RZ2gAt4ufTEs8XBwg2jXnpLaBiQanTh6ZIWl8qGCWqtm1I9VBqfSeS++9AplmHSUF597Svt+8X+bLkKBoLcESxBh+JGd1khWhk9fnre9myJGqi41wjAjSDJi5Cg9quyRG/wDH6/NyFf2Qdty1QySsFBtSqo9LCCZe/btJ889/ZR+3FRZ5saQQ83AHUfzE4CvmCCICWejlkBWg8nvvVcSODGGJcZjieFnUE/duPv26hu6IoYsIBfHLR+a1NLalJF3QNQMvCE6+mOLBnkFnW7QjVu3bSt9evdWFu1+vQ+R8U5gBfOvHUQZo2LqS1Ga74c2aOTzu4ZlL9LzvxMSfK/ngtMDwwlNY7z1n+ilvtPgoaVjeA1i42K1BEX/JTSNumDgk8zr5ZwJE/TGY0NkgBS3S3V7BBCgfowcfbw2Bu2JSImNG8r/3p0sRx890joSOiiFQrI7bbU5tdSOaiMzBMbfSOCELTDEWRnUj43WIWeT0WbC0UxxirIqpY1UNoROT9st6ene0iO9AC8JXpNA4BtG8uLJuOTyK0qMOS8YPGSQNhDZAgMqRAZxzfXt01vnWrNfW4HLk+gf7lmuO1NrawLVRuZ7//OQ7pSP6kLwhBAnx0LFquXLtMspJ6t0tgWGHAlBbJQyUf5vSvxptCeNfNLQELqg/mG+Bn1KZ64q0P3p7ttvtvZKgTRlw8f88AMP+vmKUTPwSKA+sPGYYwajRh9X8hxS2x4YAW7BA2oDGXLPfO3agGeef0H2ZGTqgoxHHnpQhh91dI0Q2pPOTD5DYlIzndlUUFigdVc3H6BBYMofcDrmFQRD7FXTSGNITBPvgsJ8nTDUsWNnLRW6d+8ivRuUZun9uiZblm2Mkvlz55SMycUNhWsuUGf+4qfVEpV0dLk6M/oyWV15BWXHN9h133/+/R4/Qw6jjxwLwOxsk8YJUB3IuwB4NuxuvSOVukJEcaW6ucmem6IIX/K5tayjEdcZAUaPZuIKXBMigG7XHs8SnWX1mGalDnJzpmxPLokRBKJCOjOEGXv2OXLV366VCy66WCZMvFAuvPgyufGW2+UcdWIx0oKBH2XfKgqc6oFV0+i9VIEQksaDQUia0GhcbOnSXJ244OJL5ba7nVNAjQcD4y7QI0HuAfrwVX/9q5a0dlWijzIceQ/P4bGwh7rXr9+ojd95c33D4+2gBQF536TI1hYw/gP1EpiG406A6H+9+lqlVv1Vxk04X3Pssiv+Krfc5ivNCwWuZEYSkuXfu08fHVlLbNpUSz82pM7AIUMVwS/R4UcnEJevihpAUGRl7gVWTZs0TrLe9P7u3bJr1y4l1XZJvdanlmyrtroT/KdNHfxeu3Jz8BvUCyAwEtkk1htwnKaC6MQYiOi9RvICzivSFx8yDRbRoQ1OO/1UrXqMn3Ce1pnZN+BaUcDQNKmJdeTAgmFM9qQyCBs40wSgGp573vla0ibiemzZSknolppjRGxPPWNsSJmArmQmeNCidRtpmJCkKy1io2O0q4yN1qMM6CFn40gHix5wV9rLZtjMnRoqUC+cqqYBzbwBzVkAunFKyk6JqN+yZMvPd8+HRs+2v5ZmLl7w8UcfyesvT7L2ysIuke2AwEjd9YqsndTN6Zc1FyRoAtyS8zk/S5Yu0Y1bagNIBzBgRUbFINksECeejLuxgTRu1EiPGSH3h6Q20iYIfjHl7CQl4b0WZLjqzFdec720UxKP3IKNGzdKPaWXhesZbb6XDxo0WEnBnboL5qMP3q+P2cHdmJCQoOu86KHB3friC8+HNHEKiUNNGEncOVk5ytjL16mbZLjZjSHUDo4zuahN27aKBHN182oDypCOHHaUo86cp4hOHZrBH8qIOv+Ci8rVmYFTolEwQFyMOhP5I1+5jM/YBagoSOMVy5fra+IX0q5lOrO59uDm2+/UaaBIZvuQHqqyr7vhRi2RExRZV65cJfFxvhubVgo0bG+ppPOu1FR5+/XX1O8t1ZHddGZXMt+h9MGk5q3UhU6SVatW6Q/gjqNBNjWBTNWke/6Onaly+43XlEnQp3h1vNKBAPmtgVlUXmBKze31d25V0+buvfra6yUnu7Re0YDSnGefelLr1YDPZsl2MjKioiLlsUeCe14mXniJdOzU0c+AO1DAMKfN1soVyyQ5Odk6emBBoTOj8xIaN5J77r5Lpn3p3yqNXtMkhSU1V4afkswUQPfq45sXSA4N9liHDp0kTQmujz+cXPJ+BFwLpYaEROY77/mn0l18uaXLlQXtRObc3L1KQqbILdeXJbObwefVm8GXJpWTXhVkuUFaclx5jCeB7pu45sIjw0smN9UkvCQa1RSqItGoKsG5YTXevGWrsh3ulMyMDElP943NMIDM195wkx5imdA4Qc/+cyLznj1p8uEH75eQGSFUXJgfmjeDqVJUABQV+UiyTS3PZPxDZAOew+ByKpuq7Og0yEn+McsN0T7ccKgSLGGoGNolp/RdcpFrmsgA9YrK9DqUhWnNxgxI7CSmjQUm5+/dm1NSNgWPKJuCX2x7bG5fcptNeRkCDuPXDa6SmU5GZ4w9S+tnGH120EoJ/S8tLU2mvPeOY7iT2q9/3HWHvhuNlEZvZlKrE4x+jK8RibtV6bOAJHIShnL24naL1yrGH+oHHwgCByJUnbnaUAW5GVUJr7nstLPoqaQxPTMCi6JNCdguJbj+oaQ7Ay6xm5KaJ8ne7OzQ1AzIdeFFl+g/hueifoNGEmO54fIKCiQ3K0OWLl2q9NDHHYkFgc3n8RjXHB4NNzXD6MeZGenq7yVp9SFwrBg+ZlxztaUHMefoxJPGSKs2bSRzT7pM//or6dCxiwyy8jFmTJ8ue9J3y9izxqnfEykrli7RnUkHDz5S2isdt0idx48/miJJzVrKqGNH6ffMURec8qdTTj1dYuPjZdP69TJ//lw9xKe31XDns48+UgImQk4+zRdgWTB/gV/72QMNryom6uKlV/5NB0yYLsXE3/BwOLZfuywpm/rog3dl7txf9KqMyolbtmnTpNDUDAj67jtvydyfZ+vp8qnKCNu1a4feeEz+wYvPPe0qIdGX0J1INnIjsAH6MMMdqV6hrSxEBm3atNWE0UGTTl00kVEragv47UTzxo0bLyOOPU5HRZupE80+GysYx04/80y937lLN73f//DD9T7H2Y9Vv928h/PFMaZRsc9r2ee95jW5eVTSFJbsd+gQ/PweCHDN7ZsTUBfffGWSrFm9WnbvTtNpCvCL47QIfvd/b8jCXxdqIqNyYi8FGzXnKpntwPVFODuufoxWAVJTd6m7pjRXwgnGmkVvMrjjtlvls08/drwBIC3H0Y+ZscfnUzGNTxWS48XIzM5wvXnqUHuAiglItgInnTxG2rZr61qtgopBVRHCilgCgTCMRgqMUZtMpynjDAjZNVdVgNS9larC8Ev60xH0cKsf5KbB4DNqBMQG27dt0z+iDgcHMNLve/Bh7V8GeMPoahUsrG0H72+ouACM/cToC1ZvVE83NaPayWyHCW7YK6ftMM/jQw6PCK9V+nEdagbYRYHzY4j+sk9+Do/ppxGSzlwdQLpCVJaMwMR6wPMsMXgsapt+XIeaAakTGH6AHA1DZNRLpLKxp5xQo2QG9laxSGI7IDjuF9OopTa4mepQs3CaHwORjfALJuBqnMwAazVwYDpuGgheLEXaYsW9YzZC42w8pnIBL4n9ebeu7HXw+Xzt58rs22HOp6kEop0a+5xrYH/O/rgqoD1ZajNwmh/js6VaSFh4WFABd0DIDLYlb9FLCDqRVvgbN9Z9kXFDGeCbplrlttvv0NsN110rp59ysg7bGv2e11RFh/5DFSZ4wflic2peaTp0kj8MUU1rNc61gf19Tp9REXDd9ZBQtk5dtGBD1WTlhtDEHtiwo5K3JZe7UtcImTlBtGyy39HccSbKx1w99CG3L0vkkOZ7t9x+p25CXYeqA35tGhzicYDUDGHnfL/x9rt+55psRLcpCYFgFeVzueYQlnrAQGDocd2J5qJWogsTVwCs3Pb5MTxvF3JuKJfM+ABptcpdy2xm/mXfNFEpD/wQk9scmM+MOoEOhF7k5AznPUhkUkdvvOYq+Xn2T/ozOEF1CA2oB2yBoCIEMNkAUgMkMjV89nNNvgU5Fl7ANcvIyNDXD5jPtcNu6LVp116XvLVu00ZzjIqZmOj62uMFsYMFSuwIykgqTC65/Eo5f+IFcvKpp8uoE06WU/9yti5rueLKq/Xz5YEfQoKRWeYCgTR2C4SgQrz33nt62WvXvoM89rDv5NRJ59Dhdv6HDfepGIzoADTKBAgPYM4118Lp/W4w82tIMELqB8IYeqOPO0GX5DEf56RTTpWTTztTxk2YINfccKPuTUIwzStcyUwKHvnIlCSRQE3tWssWvg2XSfeeveWiS6/QSdblgR/kJhmCgeSU6V9N1TcEUoHWBSR52xNWeE0d3BF4fsy+uR4IClNFjyqHVOV6BZ5r++eUd86NnYONQ6ncxRPP82vyDjD0evbsKSNHHatTe8n/wSFAxBiOUVHDc6edfqZ+vRe4Bk20SqHulgRL+kaEhyvq+7gfGREpMTHROkf12+lfl0m8tgM92RgMnASvXUDrcPDD1wRopM6+pLvTmJOO1+Fq0nd3794lt9xxt65mIsGINsnMz8nNZdptgcTVr6+k937ZnbZbHn/kQa1uGLiFs10lc8/efSWmfpw0bNBQ5yzv3r1bspQetSctTec0N2qUoJ8zZfOBwFjgzjf6spPOXIdDD0heSu6wlZDu9z/woBaE//7Xv3TswDR5R0rT/4+SL8Y2b0/eIjtSUnQefUpysk5njW3UWOLi48vM9naDK5kpM6LVVbSSwACx30YtAagbBjwX37BxmVxUwKgrEvLtVdoVrc6uw8EB9FvcaLfeeqtWDafPmKFLph564D55+3+v69cgYYny0u9bT9NixVegXQQV2XAMAgNSjuvHxEhCk7LRYicENQDDFEfDwoKED9Vz4eoTnCpNkMrjzlW6krq7qP9jq1MxDm1gyONSO3H0sfLs009JnLK7MCw//PgzeXbSK9arfBX1VJYgxVFZg3EMrxnprl7gSubkrcm6nKWgwNejgpzTRQsX+g0fpCyf6UBOQBJjPPJjIDZpgfgd63BoQwc90lJlhrKlbr72Wh18efGFF3QVkYn2QvrVf6zUry3I36d5REU2/GLbubO0TQONMnfscG7bEAhXA5AWp+eef4FWKxopMW+qTAyoNslQyvmLzz0rS35bYB0tC3Rn3Himb0Io7p06HFwgLA35LrviSj24acypZ8i0Lz+TR/77uNx+q68vn734mG5ZQ4YO02VTCU3KunlzcrJkm9Kf/3XPXX4BtQrlM+Pnwz2CW4WpTFHRvrqs/H15uuPmD99969pCgPj+UUcfrSu68TP+PHu2HrzoVdVgaOQLk1629tyRsiNFLjrP1xm/Dt7x7EuvSlcPhtWtN13vN+rXDejLpGhSKYRrDy6xIl960YXy2pv/k97du+rUhRwljU36L4PgL738Cj0bhpHUDDPCTYdRuFeRl6jfi889o9vt2hGyNwPgcvto8geSrPQgRP9ORRy2TZu3yDtvvhG0F0aDRo10B0iWGSoMyKeo05kPTRAlpC0EMEn1JmgCkQlH02KNaK8ZxQHoYfLKy5Pkpx9m6hEXFK9iIG5X2+LfFuvhR4FEDgZPyfl4K6hE5q5BGadxSrCprFWBAyGZUYn0Eqh+L/V7Ybq40oeOSqoERjxpUEJPuMqA4lfK6Q3IDPvVoadzcVGBbiWWmbGnpCtTZVBVktkUGZviY/avVrryhRddrIMmWZmZej74zpStjgUZBpxvXHT8S9FqsBD2ASubChWt2rTXulfLFs1kvNLZAV3vSxDgBqQz5rtvvS1RkeGSunt3hUeHAQJFSU2bSfeevaRb9x7Sto2vfx3YoSSHE+ytvSqCjZs2+/Wboyq5Q/uy12Hd+g26NRcV38FslGBgWW/eqo0WThMvuEBohhns3FLp8cWnH+u+FXgfli1ZqG8oO8hqIyHITlQktX2+otGl3dIWQsVBQ+Zb7/y7hEdGy/6wMGV0Rkt0pNKE1OPwyCiJiQiTCGWIskJEqg09jcdh6nUxkRGyT+nyE87+i/VJ7iDRu027Nur90VI/hs8johkjzVu0lEj1ObrbaYtWWo9jAdqbp4yP4mKJ1C11S32eFF1WFvweGlECGirqz1S/N0xt9ZWkMqBCPiVlhx5JzHiJ4iK1QioJhn82OytTtzAoD9hAvfv2k3pRMbpJYYT6G3rQekS4Po98F1xlkUo60sBQHyvZouTvd9xSZtmHuGS/rV+/1jri6+fNWGcqqquj29RBQ+Y7/nFvhYgcoZZnLuy4v5xufZI7UGFatmwh7dv7Otm379hRSUM6cpaSx4DI5+rVa6w90YMy7U0Zq0oyQ2TsEjNrpUmTJtK9ezf92AlktW1cv15J7PWy6Nf58tOsH6xn3AGZ+xwxuEJEJkXz77fdoqO/+I8JfOBaw1dMoIQQdWqqTx8mugcY75ypjDh7KLoqUCED8ECgokQO08ede0VXJbw68EMF5HAbGlSVqCiRo9XzVAMFDtKH0BCZEDXV9Gw8j6EHkZkuUFOodWS2Exknu1ci85yO9VczqotwqBXVDdqseSFyuFJDIGS0er0hckRUpJLCDcsM0kelQCIT+YO89DwxqkVUTKzufVFTqHVkthM5MrxeCETmonjPff0zghvGC5Ebxsf6DEN13BA5xsQYLC+DybHAvsDAQ0JzDGJjOKJq0OeC+Tc1hQqRmRxmKk6I4NCnGF2MXmheq0+CIoDIxcoC27Bxs8ye9aN8/snH8vXUqcqa/013PPIjspIgRVXsLkRfzs7Zq5NdzIbOXB0gs8z+dwqLirUHJTfPW5WFF7ByBRI5dddOWbhwgUyfNlVmzvhG1v6+UrZs3qLPO0Smf0m47bqafGRAjgV1nKQtIGgM6ESFER/YKxBQ60fDxP88/F/tHnz6+Uly9z/+T3PI/tkVQUgGIOUsl191pRw/erTjski/sA+nfCCvTnpJtxSoCB596vkSIu/clS6/zPpOWfHbZW9e6XIVrVQPlrdjjjtBRqvvQnNwfgaegNPHnGi9yh1eDcDkbdv1hQ+GqnbNBSJS2QxNEsqORq6IAUhuzOChw/S5LcgvkF/nzpHff18tWdm+blGdO3XUXpLU3XukT5/eMnbcOUovbqIEdKTk5eXJww/cLxs2rPMjKSQmOmyv0UMYBZIY7txy+21y5BD32eQY8O++844898yTQWv+KmUAIokffuxJmfLRh3Li8ce76neJiU10rdh3s2bpO60iMERO2ZUqM6Z9Kus3bvIjMthXWCw7U9Nk2hdfyNdffaWJjGGGNKtqMA/FbUPNqSwIPjl9ttnClGSsKnDdOLdSVCTfffO1ksi/lhAZkNDDyI24uBiZN2+O9jH7vocvGcgk/BCWNpIY3TiQeHYis1rfevsdmjvBiAyYZXLJpZfK9G9/0C2VQ0W5V4NqgXfe/0DGjh1rHSkf5GOQLWdCmqGAk80SN3/2LE3YYMjOyZFZ38/Uc0jo4ew0k68yaN2qpQ6cuG2Jid7ybIOhY4f2jp9ttsYNyi9L8wpSLVEtyJVhclXxfv/Lz/ncuTNVB1fat2uvR0p88fnnipz5UqBISxQSqQzIgisPBGceevRxuTJEHiAU33r3vZAmTYGgZObue/7l1x2ra72AOrBQJTTLOo0Svab97U7fI/N++UVJ6wLZr7Y6uIOAEGm9q1askH1K17WDtrpsSGpmkCOhIfaC+XN1FXWxIjPqBM3fA3Ms3HDFVX8LSQjawSry7Asv6k4AXhGUzKTyDR400NqrGB58+BHtn/QKDDpKZ5ASXrF543ptiHgde/ZnRkamImu2/+i1VhQqt2qtt47t22q1gUH8zZolad16O0N/lJSl4oNpuMEq6g0Ic9908y3WXsVAZPTf9//H2isfrmTGsrzqb6GrCYHgC11zQ9kZ025gNcjd5y81ygNhXYogA/MG6uAPuvcTlt+/v9S2SExorGfwkfuxdfMmLZFbKQNrW4ovZM4YEFx0IDl5W1DDzA64U57x7AXDhw3zPHnWlcynn/EXaWDVYlUWZ5xxhs668wJOQEKjOGvPG2iLUKTITDJLHdyB77hBo4YSHVUaKcXoylTSGjABCgJv2OTrNEViPDkrVEoTbi/YF7w9lgHejFNPLZ0gW1mMG3+O9Sg4XMk8bMRI61HlgXQeOMjj3RUZLR07dvSbGx0MYfWKpXuPntqbgZFSB3cQ0evQvr2Wtkjk+Dif0IDQqBfAENmcf1xyGOW4zUgc8oJeffqXJE9VBYYc6dwBIBCuZKZBR1Wie49e1qPgILKH77dXrx6aqOWhRfOW0r1XL01mjJQ6BEG9MJ3hdtKYU7QqgaTNzMrWKxuqGqoFgOToy4Sv+x4+ULsPQ8l869SpajtOtW/XzlNAzvUVjICtSjAL2Qvw3UYoQv/l7HHStWt3HSBxQ4vmTXVLJ7K4igqQzHU6czDgISD5n7EcTBGLjK6vDW28FxAaQ5CtefNmugqkT7/+0qN7V03kUFY93LlVDS8rtStTCqtY/yz26GkwIeomynJmtvLIY4+TZklNtNsoOjJc/8sS2b9fXznz7HO1hNFEVsafGcBZh7IgfwLjTqOeKJ32NLnsiiu0epGbVyB70tO1IchGMtVRxxwnR48cqXToIk1kVr6iYv/kfTfQNLGqYQ/uuMGVzCkpKdajqgFjib3AnmuBtDhr3Di5+bY75MLLrtR9OM6ZcL5MvORSOfOssyUpMaGEyHgz6iSzM/AQkT/RgAQiJZ1NrsXhAwbIrXfcLZdf+Vc54+xz5MiRx8pxp5wh5190sfTs0c2PyFq42bwgwbB+feVKyQKxafNmT9mKrmReuHCh9ahq8Ntvi6xHwWGIbELURPaiFam7dO4sffr2lS5du2oVCDecncicbK/S/88G1ARSM+PUUk0eS1hYPW3YEapGpevSuYv0799PJ4u1aemLCRjVwhA5r1CRyWP666qVS7XBWFWYN3eu9Sg4/MhsV7K/+apsg+iKYt269Z6nRgUSmcieLyCS7zux1hZIZI7tq4bcjIMZJGMZkJpJWJrEpSJ1nggw5eblSp4iXb5SzxjwX1xADgbnvSyRi0LIS6bgeerUquPPl599Yj3ygcm1TvAjc+vWpQMo5/4yR1atWmXtVQ6vvTLJelQ+KkpkVIyigEytiqBAXbg9ezLKbDUJuvsE/v3MbO8RUUCdI1UhdkIT1aODEICseH+ohM7OydW9UHzn3YXISiqHkmI76bln1VsqL1wWKA2Bfit2kDfiBD8y9+t/mPXIl831z3v+Ye1VHIuXLJGPpky29sqH74SGTmQCJuxXFjnK0NinJJh9ywqRSJWF43ewusx7BSm49uR5gIFM61hUNFrLkmVIcla5ElmRcl9BcUjkpMD1+eees/YqBlSVv995h7VXCrwxTvAj8+gTTrIe+cBw8Qfuv8/aCx3kN9903TX65HlFIJHVOdTv50RikBQWW14LtW8EhSay3q/a5PyDDUhhe0NvPa1JnUeMP6JyOqcCQaBvkH3qXPuSs/S55fyxKnKu1XlkC9uvrps6DpHzFOGZLxIKnn3qcZn+zTfWXui4+cYbHFtHjD7+BOuRP/yS87kTRh19lB7GbcflV/1N7rjjTmvPG6hCuPjCCyvcx6I6m8AES85nSUcS2oGhRDpmTYEKl8DcbKQlKakGgcn569R5ZlgoUTrT0FuXMEX42mZxjNG91PSR9fbfp56t0vZcbuDv3/Ove2XiRO9NMxkQdMO11zgWHPQ/fKB8+PHH1p4//CQzYc3rbiqbFPTKi8/L+eeO18WMXvCx+mOnjTmpUg1Z6uCOegEtYHX+hJLGTsWmqA4UmHKM4lLTmKWmwN//9z/u1j3nyrPBWB3gzsnHH+taOXPbne5C1Y/MYMKECX4jzgzmz/tFxpx4nFz918vlk08/9etgg9Tgi0568QXdm/eOW270nF1Vh9BBMla0UhtATHSUbl4DTIVHYLEphOIYakdNEtkOyElJ29ljx8rTTz4hX02fLvPmz5c5v/wiH380WbdAPurIIZo7bn02qDcdMtg9x8dPzTBAzI8fN9aTO82p3qsqQA70VdfeYO25g8jVU48/au15w6GoZnipAbSDKiDyl8vDG6+9Kps2rLP2DhyoOnnp1deCppU6khkwfOfaq6/SEvlQQx2ZDy6cOfZsXeRRXn50GTXDICEhQddh3XnPPytdAl6HOlQEeGYee/p5efSxx8slMnAlMyCOf9lll8usOfPkX/c9oHtlkC9xqIK6QyefMuFf2g4gMasbm7ds1UETJ2zZuk32ZGVbe4cmyLijG+sjTzwt3/04W04/zXuSv6uaEQy0jiW2f7BiT3qa/PeRh8uoGQwbp7LcDXv37tXV1NWJDRs3uSe240evV0/36rCrGUiwweWU8R8MIJUXjaCiqBCZD3bgA7/rjtvLkJnUSGYepil7wQ/FxdK2bRtp2ChBIoPkV1cFCFsnb90q+wK9DuHh0qFdO2nc2JcrbCdz586d5eSTT9bH/8yo3itzkKF+TLQee7tl0ybJysjQW4Yidsr27bpHRnUTGTSMj9OtunbtQuXJ1tse63sYItfBGXVkDkBcXKz23S78db78Om+u/LZwgbSr4cHzHTp10i5H/j7b7ytXSI8qLmM7FFGnZgS45g4W1KkZZVEnmetwyKCOzHU4ZFBH5jocIhD5f1SnGycRD7lkAAAAAElFTkSuQmCC;" parent="1" vertex="1">
          <mxGeometry x="470" y="200" width="179" height="344" as="geometry" />
        </mxCell>
        <mxCell id="PtL3wAgKAEpK9odxt3dh-8" value="" style="endArrow=none;html=1;rounded=0;strokeWidth=5;exitX=-0.015;exitY=0.592;exitDx=0;exitDy=0;exitPerimeter=0;" parent="1" source="PtL3wAgKAEpK9odxt3dh-7" edge="1">
          <mxGeometry width="50" height="50" relative="1" as="geometry">
            <mxPoint x="480" y="150" as="sourcePoint" />
            <mxPoint x="460" y="-30" as="targetPoint" />
            <Array as="points">
              <mxPoint x="370" y="404" />
              <mxPoint x="370" y="-30" />
            </Array>
          </mxGeometry>
        </mxCell>
        <mxCell id="PtL3wAgKAEpK9odxt3dh-9" value="" style="endArrow=classic;html=1;rounded=0;exitX=1.005;exitY=0.771;exitDx=0;exitDy=0;exitPerimeter=0;entryX=1.004;entryY=0.706;entryDx=0;entryDy=0;entryPerimeter=0;strokeWidth=3;" parent="1" source="PtL3wAgKAEpK9odxt3dh-5" target="PtL3wAgKAEpK9odxt3dh-7" edge="1">
          <mxGeometry width="50" height="50" relative="1" as="geometry">
            <mxPoint x="691" as="sourcePoint" />
            <mxPoint x="750" y="60" as="targetPoint" />
            <Array as="points">
              <mxPoint x="790" y="20" />
              <mxPoint x="790" y="443" />
            </Array>
          </mxGeometry>
        </mxCell>
        <mxCell id="PtL3wAgKAEpK9odxt3dh-10" value="" style="endArrow=classic;html=1;rounded=0;exitX=1;exitY=0.75;exitDx=0;exitDy=0;entryX=1.002;entryY=0.707;entryDx=0;entryDy=0;entryPerimeter=0;strokeWidth=3;" parent="1" source="PtL3wAgKAEpK9odxt3dh-7" target="PtL3wAgKAEpK9odxt3dh-5" edge="1">
          <mxGeometry width="50" height="50" relative="1" as="geometry">
            <mxPoint x="490" y="250" as="sourcePoint" />
            <mxPoint x="540" y="200" as="targetPoint" />
            <Array as="points">
              <mxPoint x="810" y="458" />
              <mxPoint x="810" y="-4" />
            </Array>
          </mxGeometry>
        </mxCell>
      </root>
    </mxGraphModel>
  </diagram>
</mxfile>
